<?xml version="1.0" standalone="no"?>
<!DOCTYPE svg PUBLIC "-//W3C//DTD SVG 1.1//EN" "http://www.w3.org/Graphics/SVG/1.1/DTD/svg11.dtd" >
<svg xmlns="http://www.w3.org/2000/svg" xmlns:xlink="http://www.w3.org/1999/xlink" version="1.1">
<metadata>
Created by FontForge 20161003 at Mon Aug  7 13:38:32 2017
 By www-data
Copyright (c) 2017 by jorse. All rights reserved.
</metadata>
<defs>
<font id="Muctar" horiz-adv-x="484" >
  <font-face 
    font-family="Muctar"
    font-weight="400"
    font-stretch="normal"
    units-per-em="1000"
    panose-1="0 0 0 0 0 0 0 0 0 0"
    ascent="800"
    descent="-200"
    x-height="492"
    cap-height="711.5"
    bbox="-1300.94 -407.518 1775.94 928.114"
    underline-thickness="50"
    underline-position="-150"
    unicode-range="U+000D-FB02"
  />
<missing-glyph horiz-adv-x="306" 
 />
    <glyph glyph-name="W_h" unicode="Wh" horiz-adv-x="1324" 
d="M497 503q-14 -57 -66 -214.5t-69 -214.5q126 221 253 528l1 1v1l2 11q0 19 40 0q48 -22 65 -53q6 -11 5 -20q-14 -107 -99 -454q198 428 371 748q8 15 35 0q34 -19 33 -49q0 -11 -7 -22q-89 -140 -224.5 -398t-205.5 -427q-7 -8 -20 -5t-24 10q-24 6 -49.5 24t-25.5 34
q14 131 46 341q-93 -202 -207 -389q-10 -19 -31 -11q-22 1 -53.5 21.5t-32.5 38.5q3 30 17.5 87.5t29 107t39 133.5t35.5 121q1 8 10 38q18 64 26 107q6 46 -12.5 57.5t-59.5 -2.5q-95 -38 -168 -116t-85 -168q1 -3 -2 -7.5t-8 -1.5q-66 51 -49.5 114t95.5 124t189 97
q84 27 144.5 16t81.5 -61.5t-20 -146.5zM1209 662q-11 -30 -109 -217l-40 -76q64 84 101 109q44 30 74 20q18 -4 30 -12q29 -13 50 -42t11 -57q-6 -18 -51 -99.5t-77 -149t-20 -73.5q23 -11 148 156l3 4q16 11 33 -2q8 -7 9 -16.5t-6 -17.5q-78 -100 -118 -136
q-73 -66 -118 -47q-56 24 -68 62q-19 58 53 193l84 159q4 20 -9 15q-17 -6 -57 -51q-33 -37 -80 -105.5t-101 -152.5t-73 -112l-2 -4q-6 -11 -23 -8l-6 2q-30 10 -54.5 41t-13.5 61q5 16 64 128l14 27q30 55 137 262.5t118 235.5q9 19 45 -2q42 -25 53 -62q4 -18 -1 -33z
" />
    <glyph glyph-name="o_r" unicode="or" horiz-adv-x="713" 
d="M626 604q-2 -9 -9 -23.5t-22 -41t-21 -38.5q-2 -4 -2 -5q28 -13 45.5 -23t44.5 -29t37.5 -41t2.5 -44q-7 -18 -48 -92t-70 -134.5t-18 -66.5q23 -11 148 155l4 4q15 12 33 -2q8 -6 9 -16t-6 -18q-80 -102 -122 -139q-71 -62 -115 -44q-55 23 -67 62q-20 57 53 193
q10 20 43.5 81.5t46.5 87.5q-23 14 -40 22q-72 -130 -126.5 -176t-101.5 -11q-35 -68 -80 -130t-101 -104t-98 -29q-103 32 -75 160q23 107 116 219q79 94 144 114q63 19 114 -24q27 -22 21 -34q0 -1 -2 -2q-4 -1 -12 -1q-55 -3 -128.5 -94t-115.5 -181.5t-21 -93.5
q32 -5 93 75t107 171q-13 42 11 82.5t56 29.5q38 -15 6 -81l-4 -7v-1l-9 -23l2 -2q18 -11 43.5 6.5t49.5 52t41 63.5t27 49l-1 1q-37 23 -46 36q-10 24 20.5 90.5t33.5 85.5q0 12 39 -7q55 -28 68 -62q4 -11 2 -20z" />
    <glyph glyph-name="o_x" unicode="ox" horiz-adv-x="792" 
d="M672 412q-2 -11 -12 -69q122 142 122 156q10 8 38 -11t13 -36q-93 -92 -184 -194q-24 -183 -4 -192q8 -4 28.5 14.5t47 50t42.5 52t30 38.5l3 4q15 12 33 -2q8 -7 9 -16.5t-6 -17.5q-80 -102 -122 -139q-70 -63 -114 -44q-26 11 -49 33t-30 42q-2 6 -4 14
q-64 -82 -67 -93q-5 -5 -20 2.5t-27 19t-8 16.5q52 57 118 131q0 7 0.5 21t0.5 22l11 155q-24 -50 -51.5 -79.5t-50 -37.5t-44 -6t-32.5 8t-16 11q-35 -68 -80 -130t-101 -104t-98 -29q-103 32 -75 160q23 107 116 219q79 94 144 114q63 19 114 -24q27 -22 21 -34
q0 -1 -2 -2q-4 -1 -12 -1q-55 -3 -128.5 -94t-115.5 -181.5t-21 -93.5q32 -5 93 75t107 171q-13 42 11 82.5t56 29.5q38 -15 6 -81l-4 -7v-1l-9 -23l2 -2q16 -10 31.5 -10.5t28.5 8t24.5 20t23 29.5t19 32t16.5 31.5t14 25.5q10 16 14 28q0 9 7 14q8 12 32.5 9t50.5 -12.5
t45 -30t15 -41.5z" />
    <glyph glyph-name="o_z" unicode="oz" horiz-adv-x="868" 
d="M910 488q-9 -9 -15 -13v-1q-27 -26 -51.5 -47t-47 -39t-88 -71.5t-136.5 -111.5q63 30 101.5 -13.5t26.5 -104.5q99 52 138 97q23 25 27 31q13 22 34 11q19 -10 12 -29l-5 -8q-4 -5 -10.5 -14t-16.5 -21q-20 -25 -51.5 -47.5t-54.5 -34.5t-76 -37q-7 -51 -44 -121.5
t-90.5 -129t-98.5 -68.5q-54 -14 -89 21q-32 33 -33.5 66.5t27 66t64.5 59.5t92 60q29 57 24 109q-5 46 -40 30q-6 -3 -14 -8q-7 -3 -24.5 -1.5t-34 8.5t-12.5 14q16 29 117 142q117 133 143 168l-23 4q-9 2 -46 9t-51 9q-34 -82 -68.5 -134.5t-60 -71.5t-50 -21t-37 4
t-21.5 15q-35 -68 -80 -130t-101 -104t-98 -29q-103 32 -75 160q23 107 116 219q79 94 144 114q63 19 114 -24q27 -22 21 -34q0 -1 -2 -2q-4 -1 -12 -1q-55 -3 -128.5 -94t-115.5 -181.5t-21 -93.5q32 -5 93 75t107 171q-13 42 11 82.5t56 29.5q38 -15 6 -81l-4 -7v-1
l-9 -23l2 -2q14 -8 28 -8.5t26.5 6.5t23.5 18t21.5 27t19 31.5t17 34.5t13.5 32t11 28l8 20q10 23 22.5 27t38.5 -4q160 -32 214 -28h3q10 2 16 2q43 8 64 33q5 9 15.5 11t19.5 -4t11 -16.5t-4 -18.5zM463 -117l5 9q-81 -62 -63 -80q8 -7 33 31l7 11q12 18 18 29z" />
    <glyph glyph-name="s_r" unicode="sr" horiz-adv-x="688" 
d="M601 604q-2 -9 -9 -23.5t-22 -41t-21 -38.5q-2 -4 -2 -5q28 -13 45.5 -23t44.5 -29t37.5 -41t2.5 -44q-7 -18 -48 -92t-70 -134.5t-18 -66.5q23 -11 148 155l4 4q15 12 33 -2q8 -6 9 -16t-6 -18q-80 -102 -122 -139q-71 -62 -115 -44q-55 23 -67 62q-20 57 53 193
q10 20 43.5 81.5t46.5 87.5q-3 2 -8.5 6.5t-9.5 8t-9 7t-7.5 3.5t-5.5 -3q-53 -92 -121.5 -158t-152.5 -125q21 -12 25.5 -33.5t-9.5 -45.5q-25 -38 -85 -65.5t-138 -16.5h-1q-63 21 30 96q27 22 55 38l-17 3q-26 2 -45.5 6.5t-40.5 20t-26.5 39.5t6.5 69t48 105
q49 81 142 111q38 11 71 0t52 -32q13 22 22 49q2 15 24 -1q20 -16 25 -36q1 -11 -23.5 -43.5t-59 -73t-45.5 -57.5q-11 -5 -17 15t-3 29q38 51 60 88q-67 -10 -139 -127q-42 -67 -38 -97t57 -31q225 161 301 301l-1 1q-37 23 -46 36q-10 24 20.5 90.5t33.5 85.5q0 12 39 -7
q55 -28 68 -62q4 -11 2 -20z" />
    <glyph glyph-name="T_r" unicode="Tr" horiz-adv-x="909" 
d="M543 573q-6 -47 -74.5 -171.5t-138.5 -254.5t-78 -190q1 -21 -40 -5q-44 17 -58 43q-3 5 -3 10q6 51 73 187.5t134.5 271.5t73.5 182q0 4 1 5l-25 3q-43 3 -86.5 0.5t-86 -23.5t-76.5 -53t-59 -87t-34 -126q1 -3 -2.5 -7.5t-8.5 -1.5q-57 35 -54 112q3 88 79 157
q115 106 321 89q4 -1 8 -1q21 -2 126.5 -22t176.5 -18.5t120 33.5q3 2 6.5 5t4.5 4t3 -0.5t5 -5.5q30 -46 -2.5 -85.5t-92.5 -40.5q-57 0 -100.5 8.5t-94 25.5t-79.5 24q65 -36 61 -68zM679 397l-15 -25q61 79 99 106q44 29 74 20q12 -3 30 -12q30 -14 52 -42.5t12 -55.5
q-12 -35 -56 -100.5t-69.5 -109t-7.5 -46.5q19 -3 17 -10t-26 -10q-37 -4 -64 9.5t-37.5 35.5t-9.5 47.5t15 45.5q68 93 107 170q5 27 -20 9q-17 -13 -46 -45q-33 -37 -80.5 -106t-100.5 -152.5t-73 -112.5l-2 -4q-6 -10 -23 -7q-2 0 -6 2q-30 10 -54.5 41t-13.5 61
q4 13 64 127q4 9 14 27q112 210 122 234q9 19 48 -3q43 -25 53 -60q6 -19 -3 -34z" />
    <glyph glyph-name="F_r" unicode="Fr" horiz-adv-x="907" 
d="M485 431l3 1q50 0 75 -13q30 -15 39.5 -42t-4.5 -52q-2 -4 -3.5 -5.5t-2.5 -0.5l-4 4t-6 5q-38 22 -134 34q-12 -21 -48.5 -86.5t-53 -96.5t-41.5 -80t-37.5 -83t-15.5 -59q1 -21 -40 -5q-44 17 -58 43q-3 5 -3 10q2 23 14.5 58t41.5 96t43.5 89.5t56.5 110.5
q-61 -11 -86 -24q-2 -4 -10.5 -0.5t-14.5 11.5t-2 14q23 28 141 54q90 182 97 232q0 4 1 5l-25 3q-43 3 -86.5 0.5t-86 -23.5t-76.5 -53t-59 -87t-34 -126q1 -3 -2.5 -7.5t-8.5 -1.5q-57 35 -54 112q3 88 79 157q115 106 321 89q4 -1 8 -1q27 -3 68.5 -7.5t67 -7t54 -5
t47 -2t29.5 3.5q3 1 7 2.5t6 2.5t4.5 1t3.5 -2t1 -6q0 -9 -8.5 -31.5t-21 -42.5t-21.5 -19q-16 -1 -39.5 4.5t-61 18t-63.5 18.5q65 -36 61 -68q-5 -39 -58 -142zM820 604q-2 -9 -9 -23.5t-22 -41t-21 -38.5q-2 -4 -2 -5q28 -13 45.5 -23t44.5 -29t37.5 -41t2.5 -44
q-7 -18 -48 -92t-70 -134.5t-18 -66.5q23 -11 148 155l4 4q15 12 33 -2q8 -6 9 -16t-6 -18q-80 -102 -122 -139q-71 -62 -115 -44q-55 23 -67 62q-20 57 53 193q2 4 35.5 69.5t48.5 92.5q-16 13 -46 30t-50.5 32t-27.5 32q-9 24 21 90t33 86q0 12 39 -7q55 -28 68 -62
q4 -11 2 -20z" />
    <glyph glyph-name="t_t" unicode="tt" horiz-adv-x="444" 
d="M366 647q0 -1 -5.5 -9t-13.5 -20t-13 -20q57 -5 71 -5q41 77 52 104q10 20 46 -2q42 -24 52 -61q5 -18 -1 -33q-2 -7 -9 -20q50 -4 58 -4q10 -6 -3.5 -22.5t-22.5 -18.5q-28 2 -53 2q-15 -30 -52.5 -100.5t-66 -125.5t-58 -114t-43 -94t-7.5 -38q23 -11 148 156l4 3
q6 5 16 4.5t16 -6.5q19 -14 4 -33q-73 -92 -101 -119q-85 -86 -136 -64q-56 24 -68 61q-2 5 -4 17q-96 -101 -150 -78q-56 24 -68 61q-19 59 53 194q52 93 141 271q-67 -2 -72 -3q-9 -4 -7 14q4 36 23 64q2 3 4 5q3 2 92 -3q12 22 30.5 53.5t31.5 53.5t15 26q10 20 46 -2
q42 -24 52 -61q5 -18 -1 -33zM376 536l-76 -2q-15 -28 -53 -100.5t-65.5 -125t-57 -112t-42.5 -93.5t-7 -37q20 -10 123 122v1q12 29 35 73q56 104 143 274z" />
    <glyph glyph-name="T_h" unicode="Th" horiz-adv-x="946" 
d="M831 662q-11 -30 -109 -217l-40 -76q64 84 101 109q44 30 74 20q18 -4 30 -12q29 -13 50 -42t11 -57q-6 -18 -51 -99.5t-77 -149t-20 -73.5q23 -11 148 156l3 4q16 11 33 -2q8 -7 9 -16.5t-6 -17.5q-78 -100 -118 -136q-73 -67 -118 -47q-56 24 -68 62q-19 58 53 193
l84 159q4 20 -9 15q-17 -6 -57 -51q-33 -37 -80 -105.5t-101 -152.5t-73 -112l-2 -4q-6 -11 -23 -8l-6 2q-30 10 -54.5 41t-13.5 61q5 16 64 128l14 27q30 55 137 262.5t118 235.5q9 19 45 -2q42 -25 53 -62q4 -18 -1 -33zM543 573q-6 -47 -74.5 -171.5t-138.5 -254.5
t-78 -190q1 -21 -40 -5q-44 17 -58 43q-3 5 -3 10q6 51 73 187.5t134.5 271.5t73.5 182q0 4 1 5l-25 3q-43 3 -86.5 0.5t-86 -23.5t-76.5 -53t-59 -87t-34 -126q1 -3 -2.5 -7.5t-8.5 -1.5q-57 35 -54 112q3 88 79 157q115 106 321 89q4 -1 8 -1q99 -10 184 1.5t122 39.5
q3 2 -2 -9q-23 -56 -57 -107q-9 -12 -12 -14q-11 -10 -45.5 -7.5t-116.5 24.5q65 -36 61 -68z" />
    <glyph glyph-name="T_i" unicode="Ti" horiz-adv-x="687" 
d="M543 573q-6 -47 -74.5 -171.5t-138.5 -254.5t-78 -190q1 -21 -40 -5q-44 17 -58 43q-3 5 -3 10q6 51 73 187.5t134.5 271.5t73.5 182q0 4 1 5l-25 3q-43 3 -86.5 0.5t-86 -23.5t-76.5 -53t-59 -87t-34 -126q1 -3 -2.5 -7.5t-8.5 -1.5q-57 35 -54 112q3 88 79 157
q115 106 321 89q4 -1 8 -1q43 -4 113 -14.5t91.5 -12.5t58.5 1q3 1 7 2.5t6 2.5t4.5 1t3.5 -2t1 -6q0 -9 -7 -31t-18 -41.5t-20 -18.5q-15 -1 -40 6.5t-62 20.5t-65 20q65 -36 61 -68zM694 395q-6 -18 -51.5 -101t-78.5 -152.5t-22 -75.5q8 -4 28.5 14.5t47 50t42.5 52
t30 38.5q1 3 4 4q6 5 16 4t16 -6q8 -6 9 -16.5t-5 -17.5q-74 -93 -104 -122q-83 -82 -133 -61q-56 24 -68 62q-19 58 53 193q104 195 118 231q10 19 47 -3q42 -25 52 -63q4 -16 -1 -31zM795 595q-2 -12 -30 -46t-40 -61q-9 -7 -28 10t-27 30q-10 24 11.5 79.5t23.5 71.5
q0 13 33 -6q46 -26 56 -59q2 -10 1 -19z" />
    <glyph glyph-name=".notdef" horiz-adv-x="306" 
 />
    <glyph glyph-name=".null" horiz-adv-x="0" 
 />
    <glyph glyph-name="nonmarkingreturn" horiz-adv-x="333" 
 />
    <glyph glyph-name="NULL" horiz-adv-x="0" 
 />
    <glyph glyph-name="NULL" horiz-adv-x="0" 
 />
    <glyph glyph-name="CR" unicode="&#xd;" horiz-adv-x="306" 
 />
    <glyph glyph-name="space" unicode=" " horiz-adv-x="306" 
 />
    <glyph glyph-name="exclam" unicode="!" horiz-adv-x="295" 
d="M355 562q-5 -39 -36.5 -98.5t-66.5 -111t-67.5 -106.5t-38.5 -84q1 -20 -26 -9q-31 12 -42 37q-3 6 -3 11q8 62 85.5 220t83.5 213q0 19 41 -1q49 -22 66 -53q5 -10 4 -18zM125 78q-3 -15 -27.5 -40.5t-26.5 -28.5q-15 -15 -39.5 -2t-30.5 29q-9 24 11.5 66.5t23.5 60.5
q0 13 32 -5q45 -25 55 -59q4 -11 2 -21z" />
    <glyph glyph-name="quotedbl" unicode="&#x22;" horiz-adv-x="432" 
d="M389 516q-2 -9 -12 -26t-19 -29.5t-24.5 -33t-17.5 -22.5q-16 -15 -38.5 -2t-30.5 29q-6 10 5.5 40.5t28 69t19.5 58.5q0 13 32 -5q44 -25 55 -58q4 -11 2 -21zM239 516q-2 -9 -12 -26t-19 -29.5t-24.5 -33t-17.5 -22.5q-16 -15 -38.5 -2t-30.5 29q-6 10 5.5 40.5t28 69
t19.5 58.5q0 13 32 -5q44 -25 55 -58q4 -11 2 -21z" />
    <glyph glyph-name="numbersign" unicode="#" horiz-adv-x="557" 
d="M364 504q-5 -32 -24 -68q35 -4 56 -5q68 100 75 138q0 19 34 2q40 -19 54 -49q4 -9 3 -18q-4 -29 -23 -65l25 6q14 7 14 -10q-1 -28 -23 -51l-12 -10q-28 -9 -51 -10q-18 -25 -48 -64q30 6 46 11q15 8 15 -11q-2 -29 -24 -52q-6 -6 -12 -9q-31 -10 -82 -12
q-58 -72 -75 -113q1 -21 -32 -5q-35 16 -46 42l-3 11q5 25 31 72q-7 1 -20 2.5t-23.5 2.5t-19.5 1q-68 -85 -85 -126q1 -21 -32 -5q-35 16 -46 42l-3 11q7 31 36 79q-19 -4 -31 -7q-12 -5 -11 9q1 25 26 51q12 12 24 16l38 3l45 65q-28 -3 -48 -9q-12 -6 -11 9q1 25 26 50
q12 12 24 16q18 3 58 3q58 86 64 122q0 19 34 2q40 -19 54 -49q4 -9 3 -18zM303 298q23 34 48 69q-34 4 -51 5q-24 -34 -51 -69z" />
    <glyph glyph-name="dollar" unicode="$" horiz-adv-x="421" 
d="M406 739q25 19 76 -2q33 -13 32 -25q0 -4 -4 -6q-85 -63 -113 -103q28 -21 38 -54.5t-5.5 -86t-60.5 -114.5q-9 -13 -19.5 -8.5t-19 17t-4.5 16.5q66 95 48 141q-13 32 -57 14q-33 -13 -67 -51q-45 -51 -52.5 -90.5t25.5 -50.5q9 -3 30 -5.5t30 -6.5q59 -24 68 -89
t-31 -125q-35 -58 -92.5 -87t-113.5 -23q-9 -15 -23 -42t-24 -45t-18 -27q-25 -18 -76 2q-33 14 -32 26q0 3 4 6q84 62 111 98q-32 20 -45 54t1.5 88.5t61.5 119.5q10 13 20.5 8.5t18.5 -17t5 -17.5q-67 -94 -48 -141q12 -32 56 -14q33 13 67 51q46 51 53 91t-25 51
q-7 2 -29 4.5t-32 6.5q-59 25 -68 89.5t31 125.5q38 61 99.5 89.5t118.5 18.5q8 15 22.5 42t24.5 44.5t18 26.5z" />
    <glyph glyph-name="percent" unicode="%" horiz-adv-x="643" 
d="M315 710q17 4 48 -30q30 -34 17 -43q-3 -1 -8 -1q-8 1 -23 -6q15 -13 20 -42q4 -39 -17.5 -95t-60.5 -109q-34 -50 -72.5 -81.5t-71.5 -40.5t-61 -3t-46 28.5t-22 56.5q-9 71 39 153t120.5 140t137.5 73zM561 318q17 4 48 -30q30 -34 17 -43q-3 -1 -8 -1q-8 1 -23 -6
q15 -13 20 -42q4 -39 -17.5 -95t-60.5 -109q-34 -50 -72.5 -81.5t-71.5 -40.5t-61 -3t-46 28.5t-22 56.5q-9 71 39 153t120.5 140t137.5 73zM598 634q-5 -38 -80 -152t-163 -232.5t-164 -238t-83 -167.5q1 -20 -29 -5q-34 17 -45 43q-3 6 -3 11q5 40 82 162t166.5 247.5
t166.5 245.5t82 158q0 19 26 0q34 -25 43 -57zM276 436q9 14 20.5 36t22.5 51t11 53.5t-16 33.5q-65 -44 -125.5 -114t-72.5 -135q-4 -46 12 -56q4 -3 9 -3q8 0 9 1q25 7 52.5 33t41.5 46t36 54zM522 44q9 14 20.5 36t22.5 51t11 53.5t-16 33.5q-65 -44 -125.5 -114
t-72.5 -135q-4 -46 12 -56q4 -3 9 -3q8 0 9 1q25 7 52.5 33t41.5 46t36 54z" />
    <glyph glyph-name="ampersand" unicode="&#x26;" horiz-adv-x="488" 
d="M392 363q-33 20 -99 -14t-103 -109q-27 -53 -29.5 -96.5t16 -65t47.5 -27.5t67.5 13.5t73.5 60.5q53 63 58 161q-7 14 11 13q27 -1 46 -21q9 -9 9 -19q-32 -81 -73 -138.5t-84 -85.5t-81 -39t-77 -9h-4q-13 -20 -41 -72.5t-40 -66.5q-24 -18 -76 3q-33 13 -32 25q2 4 5 6
q58 43 81.5 66t42.5 52q-55 23 -75 78t4 147q22 72 70.5 119t115.5 65q-35 32 -35 87t32 105q39 63 102 91.5t120 16.5q10 17 25 45.5t26.5 48.5t19.5 30q25 18 76 -2q33 -14 32 -26q0 -3 -4 -6q-57 -43 -80.5 -65.5t-40.5 -48.5q27 -21 36.5 -54.5t-6.5 -85.5t-60 -113
q-10 -13 -20.5 -8.5t-18.5 17t-4 16.5q66 95 48 141q-13 32 -57 14q-33 -13 -67 -51q-99 -112 19 -145l51 -7q23 -5 3 -29q-16 -21 -28 -18z" />
    <glyph glyph-name="quotesingle" unicode="'" horiz-adv-x="250" 
d="M207 516q-2 -9 -12 -26t-19 -29.5t-24.5 -33t-17.5 -22.5q-16 -15 -38.5 -2t-30.5 29q-6 10 5.5 40.5t28 69t19.5 58.5q0 13 32 -5q44 -25 55 -58q4 -11 2 -21z" />
    <glyph glyph-name="parenleft" unicode="(" horiz-adv-x="273" 
d="M420 502q-49 -12 -95.5 -49.5t-80 -88t-61.5 -109.5t-40 -115.5t-15 -106t13 -79.5q5 -3 0.5 -13.5t-7.5 -10.5q-48 34 -70.5 96t-19 131t32 140t75.5 125.5t118.5 85t154.5 21.5q10 -2 7 -13t-12 -14z" />
    <glyph glyph-name="parenright" unicode=")" horiz-adv-x="329" 
d="M-66 -5q49 12 95.5 49.5t80 88t61.5 109.5t40 115.5t15 106t-13 79.5q-5 3 -0.5 13.5t7.5 10.5q48 -34 70.5 -96t19 -131t-32 -140t-75.5 -125.5t-118.5 -85t-154.5 -21.5q-10 2 -7 13t12 14z" />
    <glyph glyph-name="asterisk" unicode="*" horiz-adv-x="454" 
d="M372 588q-9 -32 -22 -58q36 23 69 38q24 6 40 -21q13 -23 -1 -30q-1 -1 -3 -1q-45 -12 -107 -48q34 -35 73 -49q17 -2 -8 -19q-29 -19 -49 -17q-30 10 -64 38q-21 -50 -30 -95q-1 -16 -13 -10q-16 8 -15 26q6 29 22 76q-47 -26 -88 -37q-21 -3 -36 17q-13 16 6 19
q58 16 108 49q-33 37 -70 48q-14 3 12 26q38 31 61 26q26 -14 50 -45q20 54 26 84q1 14 19 12q19 -3 21 -21q0 -4 -1 -8z" />
    <glyph glyph-name="plus" unicode="+" horiz-adv-x="478" 
d="M75 280q44 6 132 -6q22 84 44 124q19 23 67 12q35 -8 34 -22q0 -4 -3 -7q-35 -43 -61 -117q72 -5 135 13q16 8 15 -11q-2 -28 -24 -51q-6 -6 -12 -9q-51 -17 -139 -15q-29 -80 -66 -124q-20 -18 -59 -12q-22 3 -20 13q1 3 5 7q40 51 63 120q-82 4 -132 -12q-13 -6 -16 15
q-5 34 15 64q10 14 22 18z" />
    <glyph glyph-name="comma" unicode="," horiz-adv-x="183" 
d="M167 78q-1 -6 -5 -13t-11.5 -15.5t-12.5 -14t-16 -16t-14 -13.5q-1 -2 -4 -5l-5 -5q-4 -4 -6 -5q-41 -39 -48 -56q-6 -4 -15 3t-14 15q-3 8 1.5 19t15 27.5t14.5 25.5l-5 11q-8 24 12.5 66.5t23.5 60.5q-1 13 31 -5q46 -26 56 -60q4 -10 2 -20z" />
    <glyph glyph-name="hyphen" unicode="-" horiz-adv-x="452" 
d="M74 280q43 6 108.5 -2.5t112.5 -13.5t127 14q15 8 15 -11q-2 -29 -24 -52q-6 -6 -12 -9q-59 -19 -177 -12.5t-171 -10.5q-13 -6 -16 16q-5 35 16 64q9 13 21 17z" />
    <glyph glyph-name="period" unicode="." horiz-adv-x="181" 
d="M151 78q-2 -11 -11.5 -23t-23.5 -25.5t-20 -21.5q-15 -15 -39.5 -1.5t-30.5 29.5q-8 24 12.5 66t23.5 61q0 12 32 -6q46 -25 56 -59q3 -10 1 -20z" />
    <glyph glyph-name="slash" unicode="/" horiz-adv-x="329" 
d="M517 701q-5 -38 -80 -152t-163 -232.5t-164 -238t-83 -167.5q1 -20 -29 -5q-34 17 -45 43q-3 6 -3 11q5 40 82 162t166.5 247.5t166.5 245.5t82 158q0 19 26 0q34 -25 43 -57z" />
    <glyph glyph-name="zero" unicode="0" horiz-adv-x="420" 
d="M385 589q20 5 58 -38q36 -43 25 -58q-3 -4 -12 -4q-9 1 -28 -8q20 -19 24 -57q6 -54 -21.5 -129.5t-75.5 -147.5q0 -1 -1 -1q-43 -68 -91 -110.5t-89.5 -54.5t-77 -3.5t-57.5 39t-27 76.5q-8 72 26 156t90.5 153t126 120.5t130.5 66.5zM336 217q12 20 25.5 49t28 68.5
t14 72.5t-20.5 46q-81 -60 -157 -154t-91 -183q-5 -63 15 -77q3 -2 11 -4q8 0 12 2q24 7 47.5 25.5t47 50.5t35 50t33.5 54z" />
    <glyph glyph-name="one" unicode="1" horiz-adv-x="214" 
d="M316 504q-5 -38 -40 -104t-75 -127.5t-76 -133.5t-43 -120q1 -21 -38 -6q-43 17 -58 43q-4 6 -4 11q7 62 112 258.5t111 251.5q1 19 42 -1q48 -22 65 -54q5 -10 4 -18z" />
    <glyph glyph-name="two" unicode="2" horiz-adv-x="420" 
d="M293 9q-38 -12 -95.5 -4.5t-104 14.5t-122.5 -14q-18 -10 -19 13q0 28 20 47l7 5l17 6q13 23 38.5 50t42.5 42t56 48q38 32 62.5 55.5t57 60t49 75.5t16.5 78q0 43 -36 42q-44 -2 -94 -57q-24 -26 -40 -58q-4 -4 -17 -3.5t-23 10t-1 21.5q33 56 77 92.5t85.5 46.5t78 2
t61 -37.5t29.5 -74.5q5 -46 -12.5 -94.5t-52.5 -91.5t-74 -79t-85 -69q-41 -29 -65 -53q60 -1 105.5 11t87.5 49q8 4 9 -9q2 -33 -23 -84q-18 -34 -35 -40z" />
    <glyph glyph-name="three" unicode="3" horiz-adv-x="421" 
d="M165 347q25 -1 51 3t57 16.5t51.5 43.5t21.5 77q1 43 -36 42q-43 -2 -93 -57q-24 -27 -40 -58q-4 -4 -17.5 -3.5t-23.5 10t-1 22.5q63 105 165 134q82 24 133 -15q42 -32 34 -91q-18 -135 -141 -164q33 -34 33 -87t-32 -104q-51 -84 -143 -105q-82 -20 -134 22
q-62 50 -25 153q18 47 56 100q10 13 20.5 8.5t18.5 -17t4 -17.5q-65 -93 -48 -140q12 -32 55 -16q34 13 69 53q47 52 53 92.5t-29 49.5h-18h-18h-11h-4q-23 -1 -27 11t4.5 24.5t14.5 12.5z" />
    <glyph glyph-name="four" unicode="4" horiz-adv-x="409" 
d="M409 382q-8 -32 -54 -119q21 11 39 28q10 5 10 -9q-2 -30 -28 -65q-15 -19 -29 -24q-16 -5 -36 -7q-63 -116 -72 -167q1 -21 -40 -5q-43 17 -58 43l-3 10q7 54 46 131q-89 13 -160 -10q-15 -8 -19.5 5t3.5 28q27 61 127.5 180.5t124.5 175.5q9 12 36.5 4t53 -33t17.5 -44
q-17 -27 -35 -47q29 -12 54 -34t23 -41zM209 247q65 123 77 158q-21 -22 -72.5 -74.5t-76.5 -79.5z" />
    <glyph glyph-name="five" unicode="5" horiz-adv-x="397" 
d="M186 293q1 -21 -38 -5q-43 17 -58 43q-4 6 -4 11q3 24 19 52t41 61.5t35 51.5q-4 -2 -7 -2q-17 -9 -18 12q-1 29 20 49l7 5q32 6 73.5 2.5t77.5 -11t75 -3.5t65 25q9 4 10 -9q2 -33 -23 -84q-17 -34 -35 -40q-15 0 -20.5 -0.5t-21.5 5t-23 8.5l-24.5 10.5t-26.5 11.5
q-4 -20 -21.5 -45t-43.5 -56t-39 -52q68 0 103.5 -35.5t34.5 -87t-33 -102.5q-51 -83 -143 -105q-81 -20 -133 21q-63 50 -26 151q17 48 56 102q10 13 20.5 8.5t18.5 -17t4 -16.5q-66 -95 -48 -141q13 -32 57 -14q33 13 67 51q35 39 47.5 72.5t0.5 53t-46 19.5z" />
    <glyph glyph-name="six" unicode="6" horiz-adv-x="455" 
d="M462 492q-72 -23 -151.5 -92.5t-130.5 -156.5q28 34 54.5 49.5t46 14t39.5 -6.5q53 -16 43 -92q-9 -76 -66 -141q-55 -62 -116 -62q-33 0 -55 20q0 -4 2 -12q0 -7 -27 1q-58 18 -77 74q-28 86 61 230q31 51 86 106.5t98 96t52 57.5q0 19 52 -5q61 -28 83 -62q7 -11 6 -19
zM125 97q0 -6 -2 -18q55 -5 93 54q28 44 19 73q-3 12 -14 13q-17 2 -48 -35.5t-48 -86.5z" />
    <glyph glyph-name="seven" unicode="7" horiz-adv-x="318" 
d="M396 496q-5 -38 -51 -104t-99 -128t-100 -133.5t-53 -119.5q1 -21 -40 -5q-44 18 -58 44q-3 5 -3 10q5 46 59.5 128t123 174.5t91.5 141.5q-45 1 -73.5 -1t-67.5 -16t-70 -43q-11 -5 -9 18q4 46 31 89q14 22 27 26q30 10 71 7.5t74.5 -10.5t82 -7.5t94.5 15.5
q17 9 18 -12q1 -30 -20 -49q-3 -3 -7 -5q-8 -3 -24 -7q3 -6 3 -13z" />
    <glyph glyph-name="eight" unicode="8" horiz-adv-x="443" 
d="M471 473q10 -23 10 -45.5t-5 -40.5t-21.5 -38t-29 -33t-40 -32.5t-42.5 -29t-47 -29.5q14 -46 15 -89.5t-23 -81.5t-70 -55q-47 -17 -109 5q-29 9 -54 29q-28 21 -35 44q-33 68 43 144q36 37 128 92q-10 14 -14.5 20.5t-12.5 19.5t-11 22t-6.5 21.5t-2.5 25t5 25.5
q5 17 15 32t29 28.5t31.5 22.5t40.5 21t37.5 16t41 15t33.5 12q14 1 30 -26q17 -30 -1 -36h-2q-12 0 -32 -3q29 -4 60.5 -21t38.5 -35zM233 339q78 47 108.5 87.5t-1.5 91.5v2l1 2q-32 -8 -60 -21.5t-52.5 -34t-27.5 -45.5t15 -57l15 -22zM252 197q-70 -46 -98 -84
q-19 -32 -11.5 -52.5t37.5 -18.5q20 2 39 13q63 41 33 142z" />
    <glyph glyph-name="nine" unicode="9" horiz-adv-x="409" 
d="M12 97q72 24 151.5 93t130.5 156q-28 -33 -54 -48.5t-45.5 -14t-40.5 6.5q-53 16 -43 92q9 76 66 141q55 62 116 62q31 0 56 -20l-3 12q0 9 30 8q58 0 81 -47q41 -81 -67 -266q-31 -52 -85.5 -107.5t-99 -96t-52.5 -57.5q0 -19 -53 6q-62 29 -83 62q-6 10 -5 18zM349 492
q2 14 2 19q-55 5 -93 -54q-28 -44 -19 -73q4 -12 15 -13q17 -2 48 35t47 86z" />
    <glyph glyph-name="colon" unicode=":" horiz-adv-x="262" 
d="M252 258q-2 -11 -11.5 -23t-23.5 -25.5t-20 -20.5q-15 -16 -39.5 -2.5t-30.5 29.5q-8 24 12.5 66.5t23.5 60.5q-1 13 31 -5q46 -26 56 -60q4 -10 2 -20zM155 77q-3 -15 -27 -40t-27 -30q-15 -15 -39.5 -2t-30.5 29q-8 24 12 66.5t23 60.5q0 13 32 -5q44 -25 55 -58
q4 -11 2 -21z" />
    <glyph glyph-name="semicolon" unicode=";" horiz-adv-x="238" 
d="M128 62q-1 -8 -8 -18.5t-13 -17t-19.5 -20l-17.5 -17.5l-9 -9q-3 -4 -6 -6q-41 -39 -49 -55q-5 -4 -14.5 3t-13.5 14q-3 8 1.5 19t15 27.5t14.5 25.5l-5 11q-8 24 12 66t23 61q0 13 32 -5q44 -25 55 -58q4 -11 2 -21zM225 243q-3 -15 -26.5 -40t-27.5 -30
q-15 -15 -39.5 -1.5t-30.5 29.5q-8 24 12 66t23 61q0 12 32 -6q45 -26 56 -59q3 -10 1 -20z" />
    <glyph glyph-name="less" unicode="&#x3c;" horiz-adv-x="296" 
d="M113 96q-33 76 -98 196q-15 10 17 22q7 3 15 5q74 34 208 135q10 14 59 -12q44 -24 44 -40q0 -5 -6 -8q-48 -18 -123 -61.5t-102 -55.5q4 -6 25 -41t38 -59t39 -47q12 -9 -25 -25q-52 -24 -81 -14q-7 1 -10 5z" />
    <glyph glyph-name="equal" unicode="=" horiz-adv-x="493" 
d="M70 240q43 6 108.5 -2.5t112.5 -13.5t127 14q15 8 15 -11q-2 -29 -24 -52q-6 -6 -12 -9q-59 -19 -177 -12.5t-171 -10.5q-13 -6 -16 16q-5 35 16 64q9 13 21 17zM112 374q43 6 108.5 -2.5t112.5 -13.5t127 14q15 8 15 -11q-2 -29 -24 -52q-6 -6 -12 -9
q-59 -19 -177 -12.5t-171 -10.5q-13 -6 -16 16q-5 35 16 64q9 13 21 17z" />
    <glyph glyph-name="greater" unicode="&#x3e;" horiz-adv-x="364" 
d="M239 450q33 -76 98 -196q15 -10 -17 -22q-7 -3 -15 -5q-74 -34 -208 -135q-10 -14 -59 12q-44 24 -44 40q0 5 6 8q48 18 123 61.5t102 55.5q-4 6 -25 41t-38 59t-39 47q-12 9 25 25q52 24 81 14q7 -1 10 -5z" />
    <glyph glyph-name="question" unicode="?" horiz-adv-x="352" 
d="M141 304q81 68 108 101q54 66 54 139q0 43 -36 41q-44 -1 -94 -57q-24 -26 -40 -58q-4 -3 -17 -2.5t-23 10t-1 21.5q33 56 77 92.5t85.5 46.5t78 2t61 -37.5t29.5 -74.5q7 -61 -21 -115t-71.5 -91t-88.5 -67.5t-75.5 -57t-28.5 -47.5q2 -16 -30 6q-34 23 -36 38
q-1 51 69 110zM120 78q-2 -12 -11.5 -24t-23.5 -25.5t-20 -20.5q-15 -16 -39.5 -2.5t-30.5 29.5q-8 24 12.5 66.5t23.5 60.5q0 12 31 -5q46 -25 56 -59q4 -10 2 -20z" />
    <glyph glyph-name="at" unicode="@" horiz-adv-x="807" 
d="M310 454q49 14 91 -9t45 -45l9 20q9 19 45 -2q42 -25 53 -62q4 -18 -1 -33q-4 -9 -7.5 -20.5t-5.5 -17.5t-8 -18.5t-16 -29.5q-65 -112 -47 -121q7 -3 35.5 20.5t60.5 66t57 93.5t22.5 111t-41.5 110q-42 54 -109 67t-128.5 -5t-119.5 -54q-105 -65 -169 -176.5
t-41 -224.5q12 -57 47.5 -98t82 -59.5t102.5 -24.5t108 8q99 22 179.5 84.5t116.5 143.5q5 10 18.5 8.5t26.5 -11.5t9 -18q-59 -104 -151 -171.5t-207 -88.5q-90 -15 -172 5t-141.5 81t-71.5 154q-12 96 28 190.5t112 164.5t161 110q66 30 133 36t132 -21t107 -88
q40 -64 40 -133t-32 -135.5t-75.5 -116.5t-91 -75t-77.5 -12q-55 23 -67 62q-10 27 0 68q-4 -5 -13 -16t-11.5 -14t-8.5 -10.5t-9 -10t-8 -7.5l-8.5 -8.5t-9 -7.5t-11.5 -8q-44 -29 -74 -20q-50 15 -73 52.5t-17 83.5t30 92.5t70 85t101 55.5zM431 393q-68 -3 -146 -108
q-56 -74 -67 -125q-6 -27 9 -24q21 4 75 64q33 37 52 62.5t43.5 63.5t45.5 68q-8 -2 -12 -1z" />
    <glyph glyph-name="A" unicode="A" horiz-adv-x="709" 
d="M687 672q-13 -22 -31 -49q29 -12 54 -34t22 -41q-7 -53 -75 -235q33 -15 55 -30q5 -6 -0.5 -14.5t-14.5 -13t-11 -1.5q-28 18 -42 25q-4 -12 -16.5 -45t-18 -47t-16.5 -43.5t-16.5 -45.5t-14 -41t-13 -41t-10 -35t-8.5 -34t-5 -28q1 -21 -40 -5q-44 18 -58 44q-3 5 -3 10
q7 63 105 349q-23 3 -64 7q-7 0 -21 0.5t-21 0.5q-43 -51 -76.5 -89t-94.5 -101t-110.5 -105.5t-107.5 -78t-104 -43.5q-21 -3 -22 36q0 30 8 29q60 10 153.5 80t162 137.5t122.5 130.5q-105 -11 -195 -51t-137 -103q-3 -2 -5.5 -5.5t-4 -4.5t-3.5 -0.5t-5 4.5
q-52 60 -2 106q61 55 166 80t225 20q132 158 235 343q6 8 20 4t27.5 -18t10.5 -24zM606 553q-28 -37 -113 -144q-21 -27 -38 -46q39 -4 86 -14q47 139 65 204z" />
    <glyph glyph-name="B" unicode="B" horiz-adv-x="694" 
d="M501 533q-3 -25 -20.5 -64.5t-34 -70t-51 -89.5t-48.5 -84q14 4 30 4q76 14 145.5 71.5t99.5 152.5q26 87 7.5 138t-70 70t-115 13.5t-128.5 -31.5q-95 -38 -168 -116t-85 -168q1 -3 -2 -7.5t-8 -1.5q-66 51 -49.5 114t95.5 124t189 97q56 18 121 26.5t133.5 1.5
t121 -30.5t80 -77t13.5 -131.5q-14 -80 -88 -154t-193 -114q63 -20 59.5 -88.5t-58.5 -122.5q-57 -54 -154.5 -60t-170.5 45q-26 18 -37.5 45.5t-2.5 54.5q10 29 75 77q20 50 108.5 223t94.5 225q1 19 43 -1q49 -23 64 -54q5 -9 4 -17zM326 188q-54 -103 -63 -161
q1 -20 -38 -5q-44 18 -59 44q-2 3 -3 6q-11 -16 2 -35q13 -20 46 -29t81 4t88 52q14 14 24 32t13.5 36.5t-11.5 33t-48 16.5q-3 -1 -7 -2.5t-6 -2.5t-5 -0.5t-6 3.5q-5 3 -8 8z" />
    <glyph glyph-name="C" unicode="C" horiz-adv-x="661" 
d="M556 579q-101 -94 -193 -263q-95 -175 -88 -263q4 -49 44 -53q58 -5 129.5 58t113.5 178q13 18 35 0q26 -21 18 -51q-1 -6 -4 -11q-71 -112 -146.5 -168t-147.5 -54q-136 4 -157 128q-20 119 64 289q74 148 184 246q-152 10 -251 -92q-80 -83 -93 -176q1 -3 -2 -8t-8 -1
q-45 31 -51.5 73t19.5 84t78 81q151 116 362 80q86 60 173 60q59 0 112.5 -47.5t37.5 -93.5q-10 -30 -46.5 -41t-88.5 7q-14 5 -45.5 18t-48.5 20zM604 616q11 -4 31 -12.5t28 -11.5q48 -21 68 -15q15 4 0 25q-22 32 -65 33q-31 1 -62 -19z" />
    <glyph glyph-name="D" unicode="D" horiz-adv-x="743" 
d="M501 533q-6 -47 -61.5 -144t-112 -199.5t-64.5 -162.5q1 -21 -40 -4q-44 18 -58 43q-1 2 -2 5q-12 -15 2 -34q9 -15 34 -24t56 -8q33 2 83 39.5t100 96t96 130.5t72 141t29 129t-35 94q-43 40 -126 40.5t-158 -32.5q-95 -38 -168 -116t-85 -168q1 -3 -2 -7.5t-8 -1.5
q-66 51 -49.5 114t95.5 124t189 97q57 19 123.5 27t138 1t121.5 -34q57 -31 77 -90.5t4 -130.5t-52 -148t-92.5 -147t-117 -124t-125.5 -81.5t-117 -17.5q-56 11 -96 40q-26 18 -37.5 45.5t-2.5 54.5q10 29 75 77q20 50 108.5 223t94.5 225q1 19 43 -1q49 -23 64 -54
q5 -9 4 -17z" />
    <glyph glyph-name="E" unicode="E" horiz-adv-x="674" 
d="M587 590q-38 -33 -80 -85q-13 -16 -24.5 -34.5t-18.5 -42t-3.5 -41.5t26 -31t64.5 -13q14 2 -3 -21q-12 -16 -18 -19q-45 -6 -83 -23t-62 -37.5t-43 -47.5t-28 -47.5t-16 -42.5q-13 -44 -2 -73t42 -32q58 -5 129.5 58t114.5 177q12 18 34 1q26 -19 19 -49q-1 -7 -5 -13
q-70 -112 -146 -168t-148 -54q-78 2 -123.5 42.5t-35.5 101.5q6 39 27.5 78t57 76t93 58.5t126.5 17.5q-80 15 -118 49t-34 76.5t32.5 87t77.5 86.5q4 2 10 8q-179 29 -292 -87q-80 -83 -93 -176q1 -3 -2 -8t-8 -1q-45 31 -51.5 73t19.5 84t78 81q166 127 403 72
q80 48 151 45q50 -2 99.5 -39.5t25.5 -80.5q-15 -26 -50.5 -36.5t-78.5 4.5q-31 11 -63 26zM733 622q-25 24 -66 14q-12 -2 -29 -11q5 -2 13.5 -5.5t11.5 -4.5q48 -21 68 -15q17 6 2 22z" />
    <glyph glyph-name="F" unicode="F" horiz-adv-x="554" 
d="M543 573q-5 -40 -54 -134q50 0 75 -13q30 -15 39.5 -42t-4.5 -52q-2 -4 -3.5 -5.5t-2.5 -0.5l-4 4t-6 5q-43 26 -131 35q-13 -24 -49 -88t-54 -97.5t-43 -82.5t-38 -84t-16 -61q1 -21 -40 -5q-44 17 -58 43q-3 5 -3 10q7 63 145 333q9 19 14 28q-59 -8 -88 -24
q-2 -4 -10.5 -0.5t-14.5 11.5t-2 14q23 29 144 55q87 174 93 224q0 4 1 5l-25 3q-43 3 -86.5 0.5t-86 -23.5t-76.5 -53t-59 -87t-34 -126q1 -3 -2.5 -7.5t-8.5 -1.5q-57 35 -54 112q3 88 79 157q115 106 321 89q4 -1 8 -1q21 -2 126.5 -22t176.5 -18.5t120 33.5q3 2 6.5 5
t4.5 4t3 -0.5t5 -5.5q30 -46 -2.5 -85.5t-92.5 -40.5q-57 0 -100.5 8.5t-94 25.5t-79.5 24q65 -36 61 -68z" />
    <glyph glyph-name="G" unicode="G" horiz-adv-x="639" 
d="M373 647q-180 29 -293 -87q-80 -83 -93 -176q1 -3 -2 -8t-8 -1q-45 31 -51.5 73t19.5 84t78 81q165 127 404 72q78 48 149 45q40 -2 76 -21q42 -20 55 -58q17 -44 -26 -71t-108 -2l-63 26q-1 0 -3 0.5t-3 0.5q-38 -29 -83.5 -83t-82 -112.5t-64 -116.5t-31 -95.5
t17.5 -49.5q31 -12 78 29.5t84 93t76 115.5q0 18 41 -1q49 -23 66 -53q5 -11 4 -19q-7 -29 -121 -226q15 -2 45 -8q9 -2 14.5 -8.5t5.5 -14t-3 -14.5t-11 -11t-17 -2q-26 9 -59 16l-2 -3v-1q-19 -34 -35.5 -61.5t-39 -62t-45 -61t-49 -53t-54.5 -43.5t-58 -28t-63.5 -10
t-67.5 13q-48 17 -49 82q-2 79 66 154q103 113 291 122q3 6 4 7l32 65q-99 -85 -172 -71q-80 14 -95.5 93t50 205.5t204.5 257.5zM335 52q-139 -13 -230 -107q-62 -64 -62 -119q0 -41 39 -48q89 -16 229 228zM660 631q-26 30 -72 19q-10 -3 -27 -10l25 -11q48 -21 68 -15
q13 4 6 17z" />
    <glyph glyph-name="H" unicode="H" horiz-adv-x="688" 
d="M468 455q-12 -26 -37 -71q56 0 120 -8q140 276 147 330q0 19 41 -1q49 -22 66 -53q5 -10 4 -18q-8 -55 -133 -281q57 -15 98 -36q5 -5 -0.5 -13.5t-14 -13.5t-11.5 -2q-41 17 -93 28q-52 -94 -77.5 -142t-54 -113t-33.5 -99q1 -21 -39 -5q-44 18 -59 44q-3 5 -3 10
q8 62 138 317q-65 1 -133 -8q-7 -13 -32 -55t-34.5 -59t-30 -53t-30 -56.5t-22 -48t-19 -48.5t-8.5 -38q1 -21 -40 -5q-44 18 -58 44l-3 10q6 58 119 274q-51 -18 -81 -40q-3 -2 -6 -5.5t-4.5 -4.5t-3.5 0t-5 5q-21 22 -13.5 51t40.5 47q43 24 121 37q28 51 62 121
q65 147 36 166q-16 8 -66 -7q-95 -38 -168 -116t-85 -168q1 -3 -2 -7.5t-8 -1.5q-66 51 -49.5 114t95.5 124t189 97q91 30 153.5 14.5t76.5 -77.5t-50 -179z" />
    <glyph glyph-name="I" unicode="I" horiz-adv-x="430" 
d="M468 455q-25 -51 -89 -159.5t-109 -195.5t-52 -138q1 -21 -40 -5q-44 18 -58 44l-3 10q4 40 39.5 116.5t98 193.5t84.5 161l6 13q41 83 45 122q0 3 2 5q3 32 -18.5 39t-57.5 -6q-95 -38 -168 -116t-85 -168q1 -3 -2 -7.5t-8 -1.5q-66 51 -49.5 114t95.5 124t189 97
q91 30 153.5 14.5t76.5 -77.5t-50 -179z" />
    <glyph glyph-name="J" unicode="J" horiz-adv-x="333" 
d="M143 5q31 -3 75 -11q25 -6 19.5 -30.5t-30.5 -19.5q-41 14 -86 22q-175 -287 -357 -220q-51 18 -54 72q-4 64 61 118q85 70 243 76q71 131 179 360t140 293q-84 22 -174 -9.5t-157 -109.5t-81 -181q1 -3 -2 -7.5t-8 -1.5q-84 59 -34 150q138 251 472 203q47 -7 101.5 -8
t84.5 10q10 5 11 -11q3 -29 -21 -52q-8 -8 -17 -12q-8 -3 -30.5 2.5t-23.5 5.5q-31 -62 -154 -318.5t-157 -320.5zM-7 -25q-130 -7 -202 -75q-48 -45 -36 -82q7 -23 40 -29q89 -17 198 186z" />
    <glyph glyph-name="K" unicode="K" horiz-adv-x="683" 
d="M796 618q-19 -88 -60 -167t-100 -143t-140 -105t-173 -48q61 -63 138.5 -99t152.5 -29q3 2 8.5 0t3.5 -8q-28 -69 -86.5 -72t-124.5 48t-126 137q-63 -116 -71 -174q1 -21 -40 -5q-44 18 -58 44l-3 10q4 40 39.5 116.5t97.5 192.5t85 162l6 13q41 83 45 122q0 3 2 5
q3 32 -18.5 39t-57.5 -6q-95 -38 -168 -116t-85 -168q1 -3 -2 -7.5t-8 -1.5q-66 51 -49.5 114t95.5 124t189 97q91 30 153.5 14.5t76.5 -78t-50 -178.5q-15 -32 -36.5 -70.5t-56 -97t-47.5 -80.5q64 7 125 52.5t104.5 108t76 131.5t48 126t13.5 87q-1 16 30 3q45 -17 64 -53
q11 -20 7 -40z" />
    <glyph glyph-name="L" unicode="L" horiz-adv-x="431" 
d="M465 449q-21 -41 -112 -194.5t-118 -222.5l-6 -15q228 -9 228 -70q0 -18 -19 -40q-4 -4 -6 -4.5t-3 0.5l-4 4l-6 6q-53 37 -203 61q-12 -41 -65 -50q-47 -7 -69 15q-11 11 -8 26q4 19 22 34q29 79 158.5 320.5t135.5 297.5q0 3 2 5q3 32 -18.5 39t-57.5 -6
q-95 -38 -168 -116t-85 -168q1 -3 -2 -7.5t-8 -1.5q-66 51 -49.5 114t95.5 124t189 97q91 30 153.5 14.5t76.5 -77.5t-50 -179z" />
    <glyph glyph-name="M" unicode="M" horiz-adv-x="1030" 
d="M468 452q-11 -23 -130 -230q113 145 250 305q17 20 48.5 56.5t57.5 67t48 57.5v1q1 18 44 -3q48 -24 63 -54q5 -9 4 -17q-3 -20 -15.5 -51.5t-36.5 -77.5t-44.5 -84t-55.5 -100t-54 -96q84 111 246 301q122 141 155 181v1q1 18 44 -3q48 -24 63 -54q5 -9 4 -17
q-6 -47 -83 -186t-155 -284t-86 -205q1 -21 -40 -5q-44 18 -58 44q-3 5 -3 10q5 41 48 133t113.5 229t98.5 195q-20 -24 -62 -72q-287 -338 -401 -521q-2 -8 -2 -13q1 -21 -40 -5q-44 18 -58 44q-3 5 -3 10q5 41 48 133t113.5 229t98.5 195q-20 -24 -62 -72
q-89 -105 -145 -173.5t-133 -171t-129 -185.5l-1 -2v-2q1 -21 -40 -5q-44 18 -58 44l-3 10q4 40 40.5 117t97 191t84.5 163l6 13q41 83 45 122q0 3 2 5q3 32 -18.5 39t-57.5 -6q-95 -38 -168 -116t-85 -168q1 -3 -2 -7.5t-8 -1.5q-66 51 -49.5 114t95.5 124t189 97
q91 30 153.5 14.5t76.5 -78t-50 -178.5v-1z" />
    <glyph glyph-name="N" unicode="N" horiz-adv-x="732" 
d="M468 452q-11 -23 -130 -230q100 131 250 305q17 20 48.5 56.5t57.5 67t48 57.5v1q1 18 44 -3q48 -24 63 -54q5 -9 4 -17q-6 -47 -83 -186t-155 -284t-86 -205q1 -21 -40 -5q-44 18 -58 44q-3 5 -3 10q5 41 48 133t113.5 229t98.5 195q-20 -24 -62 -72
q-89 -105 -145 -173.5t-133 -171t-129 -185.5l-1 -2v-2q1 -21 -40 -5q-44 18 -58 44l-3 10q4 40 39.5 116.5t97.5 192.5t85 162l6 13q41 83 45 122q0 3 2 5q3 32 -18.5 39t-57.5 -6q-95 -38 -168 -116t-85 -168q1 -3 -2 -7.5t-8 -1.5q-66 51 -49.5 114t95.5 124t189 97
q91 30 153.5 14.5t76.5 -78t-50 -178.5v-1z" />
    <glyph glyph-name="O" unicode="O" horiz-adv-x="715" 
d="M587 590q-99 -85 -195 -255q-98 -173 -99 -270q-1 -61 44 -65q30 -1 72 30.5t81.5 82t74.5 112.5t55 120t18.5 106t-30.5 69q0 2 -2 2q-22 12 -11 35q13 22 35 10l16 -10q40 -33 49 -92.5t-9 -125.5t-56 -135.5t-86 -125t-104 -91t-105 -35.5q-135 0 -157 122
q-21 117 63 288q81 166 204 267q3 2 5 4q-180 29 -293 -87q-80 -83 -93 -176q1 -3 -2 -8t-8 -1q-45 31 -51.5 73t19.5 84t78 81q165 127 404 72q78 48 149 45q40 -2 76 -21q42 -20 55 -58q17 -44 -26 -71t-108 -2zM737 617q-26 30 -72 19q-13 -3 -27 -11l25 -10
q48 -21 68 -15q13 4 6 17z" />
    <glyph glyph-name="P" unicode="P" horiz-adv-x="684" 
d="M501 533q-2 -19 -12.5 -46t-31 -65.5t-37 -68t-47 -81.5t-45.5 -78q81 7 172 84.5t122 174.5q26 87 7.5 138t-70 70t-115 14t-128.5 -31q-95 -38 -168 -116t-85 -168q1 -3 -2 -8t-8 -1q-66 51 -49.5 113.5t95.5 123.5t189 97q56 18 122 26.5t135.5 1.5t122.5 -30.5
t79.5 -77t9.5 -130.5q-16 -77 -70 -143t-122 -106t-139 -61.5t-126 -18.5q-75 -135 -82 -195q1 -21 -40 -5q-44 18 -58 44l-3 10q6 51 71.5 179t131 254t70.5 173q1 18 42 -1q48 -23 65 -53q5 -11 4 -19z" />
    <glyph glyph-name="Q" unicode="Q" horiz-adv-x="693" 
d="M324 55q-12 12 10 22q19 9 25 1q10 -15 70 -34q64 65 121 160.5t79.5 183.5t-21.5 132q0 2 -2 2q-22 12 -11 35q13 22 35 10l16 -10q32 -45 33.5 -106t-18 -119.5t-53.5 -119.5t-65.5 -104.5t-61.5 -76.5q87 -20 118 -48q27 -25 27.5 -54.5t-24.5 -47.5q-4 -3 -6 -3t-3 1
t-3 5t-4 7q-26 60 -139 108q-57 -47 -112 -47q-135 0 -157 122q-21 117 63 288q81 166 204 267q3 2 5 4q-180 29 -293 -87q-80 -83 -93 -176q1 -3 -2 -8t-8 -1q-45 31 -51.5 73t19.5 84t78 81q165 127 404 72q78 48 149 45q40 -2 76 -21q42 -20 55 -58q17 -44 -26 -71
t-108 -2l-63 26q-99 -85 -195 -255q-98 -173 -99 -270q-1 -61 44 -65q39 -2 65 18v1q-10 4 -30 11.5t-31.5 13t-16.5 11.5zM737 617q-26 30 -72 19q-10 -3 -27 -10l25 -11q48 -21 68 -15q13 4 6 17z" />
    <glyph glyph-name="R" unicode="R" horiz-adv-x="720" 
d="M501 533q-2 -19 -12.5 -46t-31 -66t-37 -67.5t-47.5 -81.5t-45 -77q81 6 172 83.5t122 174.5q26 87 7.5 138t-70 70t-115 14t-128.5 -31q-95 -38 -168 -116t-85 -168q1 -3 -2 -8t-8 -1q-66 51 -49.5 113.5t95.5 123.5t189 97q56 18 122 26.5t135.5 1.5t122.5 -30.5
t79.5 -77t9.5 -130.5q-15 -71 -63 -133.5t-110 -103t-128 -65t-123 -27.5q61 -62 138 -97.5t152 -28.5q2 2 7.5 -0.5t3.5 -7.5q-21 -53 -61 -67.5t-87.5 6.5t-98 68t-95.5 113q-67 -124 -74 -181q1 -21 -40 -5q-44 18 -58 44l-3 10q6 51 71.5 179t131 254t70.5 173
q1 18 42 -1q48 -23 65 -53q5 -11 4 -19z" />
    <glyph glyph-name="S" unicode="S" horiz-adv-x="670" 
d="M555 579q-56 -55 -102 -120q-45 -65 -64.5 -112t-12 -81t47.5 -50q14 -5 36.5 -9.5t38 -7t35 -9.5t26.5 -18t12 -32t-7 -52q-22 -73 -93 -116.5t-140 -24.5q-52 14 -73.5 49.5t1.5 93.5q15 42 37 68q6 6 15.5 -3.5t15.5 -23t3 -17.5q-24 -27 -33.5 -62t12.5 -45
q12 -4 43 20.5t56 56.5q13 16 19.5 29t7.5 26.5t-11 24t-37 16.5q-76 19 -105.5 72t-14.5 122t66 145q35 53 79 94l-5 2q-152 10 -251 -93q-80 -82 -93 -175q1 -3 -2 -8t-8 -1q-45 31 -51.5 73t19.5 84t78 81q151 116 362 80q63 49 148 58q34 5 61 -1q62 -8 96 -40t21 -77
q-5 -18 -13.5 -30.5t-21 -19t-24 -10t-28.5 -1.5t-29.5 4t-31.5 8.5t-29.5 10t-29.5 11.5t-25 10h-1zM604 616q123 -45 133 -25q7 15 -9 31.5t-47.5 18.5t-76.5 -25z" />
    <glyph glyph-name="T" unicode="T" horiz-adv-x="468" 
d="M543 573q-6 -47 -74.5 -171.5t-138.5 -254.5t-78 -190q1 -21 -40 -5q-44 17 -58 43q-3 5 -3 10q6 51 73 187.5t134.5 271.5t73.5 182q0 4 1 5l-25 3q-43 3 -86.5 0.5t-86 -23.5t-76.5 -53t-59 -87t-34 -126q1 -3 -2.5 -7.5t-8.5 -1.5q-57 35 -54 112q3 88 79 157
q115 106 321 89q4 -1 8 -1q21 -2 126.5 -22t176.5 -18.5t120 33.5q3 2 6.5 5t4.5 4t3 -0.5t5 -5.5q30 -46 -2.5 -85.5t-92.5 -40.5q-57 0 -100.5 8.5t-94 25.5t-79.5 24q65 -36 61 -68z" />
    <glyph glyph-name="U" unicode="U" horiz-adv-x="773" 
d="M468 455q-25 -50 -94.5 -169t-96.5 -172q-13 -25 -19.5 -39t-14 -33t-6.5 -29.5t10 -13.5q7 2 14 6t14 11t10.5 11t11.5 14t10 13q110 133 312 429q4 6 38.5 56t51.5 77q12 17 47 73q3 9 3 17q1 19 42 -1q49 -22 65 -53q5 -10 4 -18q-6 -47 -81 -185.5t-152 -282.5
t-85 -204q1 -21 -40 -5q-43 18 -58 44q-3 5 -3 10q7 62 157 357q11 21 16 31q-85 -123 -159 -224q-117 -158 -156 -196q-22 -23 -53 -30.5t-61 5.5q-75 34 -38 152q15 55 41 105q18 35 60 114t64 122.5t43.5 94t24.5 75.5q0 3 2 5q3 32 -18.5 39t-57.5 -6q-95 -38 -168 -116
t-85 -168q1 -3 -2 -7.5t-8 -1.5q-66 51 -49.5 114t95.5 124t189 97q91 30 153.5 14.5t76.5 -77.5t-50 -179z" />
    <glyph glyph-name="V" unicode="V" horiz-adv-x="618" 
d="M482 450q-12 -50 -46.5 -174.5t-49.5 -183.5q344 605 406 689q35 47 82 10q26 -21 28 -39q0 -3 -2 -4q-12 -6 -29 -23.5t-41.5 -50t-44.5 -60t-52 -75.5l-49 -73.5t-51 -78.5t-43 -66q-35 -53 -72.5 -114t-82.5 -136t-70 -116q-5 -9 -15 -11.5t-19 2.5q-24 6 -49 24
t-26 34q5 41 23.5 124t47 199.5t40.5 168.5q9 43 13.5 71t5 48t-2.5 30t-12.5 14t-22 2t-32.5 -8q-95 -38 -168 -116t-85 -168q1 -3 -2 -7.5t-8 -1.5q-66 51 -49.5 114t95.5 124t189 97q139 45 191 -10.5t3 -234.5z" />
    <glyph glyph-name="W" unicode="W" horiz-adv-x="842" 
d="M494 503q-14 -57 -66 -214.5t-69 -214.5q126 221 253 528v1l1 1l2 11q0 19 40 0q48 -22 65 -53q6 -11 5 -20q-5 -37 -24 -111.5t-47.5 -177t-42.5 -161.5q35 61 133.5 241.5t165 296.5t96.5 154q27 33 82 3q29 -16 32 -28q1 -3 -1 -4q-11 -5 -27 -22.5t-40 -50
t-43.5 -60.5t-51 -77t-48.5 -75t-51 -80.5t-43 -68.5q-64 -101 -225 -366q-5 -9 -15.5 -11.5t-18.5 2.5q-24 6 -49.5 24t-25.5 34q6 58 74 340q-93 -202 -207 -389q-10 -19 -31 -11q-22 1 -53.5 21.5t-32.5 38.5q3 30 17.5 87.5t29 107t39 133.5t35.5 121q2 8 10 38
q18 64 26 107q6 46 -12.5 57.5t-59.5 -2.5q-95 -38 -168 -116t-85 -168q1 -3 -2 -7.5t-8 -1.5q-66 51 -49.5 114t95.5 124t189 97q84 27 144.5 16t81.5 -61.5t-20 -146.5z" />
    <glyph glyph-name="X" unicode="X" horiz-adv-x="644" 
d="M778 689q-110 -178 -248 -341q-1 -22 -5 -83.5t-5.5 -90.5t-2.5 -75t0 -78.5t5 -58.5q1 -21 -52 -6q-56 15 -74 40q-4 5 -4 10q-14 47 -7 185q-189 -189 -363 -266q-21 -3 -22 36q0 30 8 29q180 71 383 286q18 219 11 288q-10 96 -57 95q-10 0 -21 -4q-95 -38 -168 -116
t-85 -168q1 -3 -2 -7.5t-8 -1.5q-66 51 -49.5 114t95.5 124t189 97q86 30 151.5 15t77.5 -73q12 -61 9 -197q119 155 186 285q6 8 20 4t27.5 -18t10.5 -24z" />
    <glyph glyph-name="Y" unicode="Y" horiz-adv-x="775" 
d="M639 172l-31 -66q-35 -74 -45 -94q36 -4 75 -12q25 -6 19.5 -30.5t-30.5 -19.5q-42 14 -87 22q-11 -19 -33 -50h-1q-153 -233 -322 -170q-50 18 -54 71q-4 64 60 118q87 72 246 77q3 5 38 79t62 126q80 155 100 195q-68 -100 -147 -204q-96 -134 -149 -187
q-22 -22 -49.5 -29.5t-56.5 3.5q-8 3 -13 7q-16 7 -28 23.5t-19 41.5t-1.5 61.5t25.5 76.5q24 48 77.5 149t82 163t32.5 94q0 3 2 5q3 32 -18.5 39t-57.5 -6q-95 -38 -168 -116t-85 -168q1 -3 -2 -7.5t-8 -1.5q-66 51 -49.5 114t95.5 124t189 97q91 30 153.5 14.5
t76.5 -77.5t-50 -179q-25 -50 -94.5 -169t-96.5 -172q-38 -72 -4 -66q10 3 24 10q11 8 40 43q120 143 317 434q5 7 28.5 41t35.5 53q26 40 38 60q3 11 3 17q1 19 42 -1q49 -22 65 -53q5 -10 4 -18q-3 -26 -27 -79t-50.5 -102t-72 -131.5t-69.5 -127.5zM215 -205
q87 -15 201 187q-132 -7 -205 -76q-47 -45 -36 -81q8 -24 40 -30z" />
    <glyph glyph-name="Z" unicode="Z" horiz-adv-x="504" 
d="M123 -51q-10 -14 -54 9.5t-45 45.5q4 37 70 122t145.5 170t161.5 180t110 144q-31 12 -52.5 19t-53 12.5t-67 3.5t-76.5 -11q-76 -17 -129 -87.5t-67 -188.5q1 -3 -2.5 -7.5t-8.5 -1.5q-32 20 -46 57t-4.5 80.5t36.5 86t81 77t125 49.5q60 12 133.5 3.5t124 -22.5
t111.5 -15t96 26q3 2 6.5 5t5 4t3 -0.5t4.5 -5.5q31 -48 -3.5 -93t-91.5 -33q-13 -38 -81 -115.5t-146 -154t-157.5 -164.5t-108.5 -141q72 32 157 38t130 -18q33 -18 40.5 -47t-13.5 -51q-3 -4 -5 -5t-3.5 0t-4.5 4.5t-6 5.5q-38 40 -151 45.5t-164 -26.5z" />
    <glyph glyph-name="bracketleft" unicode="[" horiz-adv-x="398" 
d="M424 543q-18 -61 -139 -279t-153 -298q77 -2 111 14q15 -1 4 -35q-12 -35 -28 -38q-5 -1 -9 2q-17 12 -49.5 11.5t-64.5 -7t-58 -4.5t-29 20q6 51 77 191t142 278t77 185q2 15 50 14t102.5 -4t97.5 14q16 -1 4 -34q-13 -37 -33 -43q-4 -1 -8 0t-94 13z" />
    <glyph glyph-name="backslash" unicode="\" horiz-adv-x="356" 
d="M115 673q30 -38 55 -140t40.5 -206t44 -211t65.5 -155q20 -20 -12 -35q-35 -17 -67 -4q-9 4 -15 10q-32 40 -64.5 151.5t-54.5 225t-52 223t-60 147.5q-15 17 16 22q43 8 83 -11q14 -8 21 -17z" />
    <glyph glyph-name="bracketright" unicode="]" horiz-adv-x="455" 
d="M85 -49q18 61 139 279t153 298q-77 2 -111 -14q-15 1 -4 35q12 35 28 38q5 1 9 -2q17 -12 49.5 -11.5t64.5 7t58 4.5t29 -20q-6 -51 -77 -191t-142 -278t-77 -185q-2 -15 -50 -14t-102.5 4t-97.5 -14q-16 1 -4 34q13 37 33 43q4 1 8 0t94 -13z" />
    <glyph glyph-name="underscore" unicode="_" horiz-adv-x="598" 
d="M97 -43q43 6 138 -4.5t167 -17.5t157 12q15 8 15 -11q-2 -29 -24 -52q-6 -6 -12 -9q-59 -19 -234 -8.5t-228 -6.5q-13 -6 -16 16q-5 35 16 64q9 13 21 17z" />
    <glyph glyph-name="grave" unicode="`" horiz-adv-x="239" 
d="M65 638q-9 10 7.5 33t39.5 38t29 5q3 -33 33 -85t31 -59q1 -14 -20 -35t-33 -9q-12 16 -43.5 57t-43.5 55z" />
    <glyph glyph-name="a" unicode="a" 
d="M362 436q-69 -4 -176 -148q-80 -108 -109 -187q-14 -38 2 -35q16 4 59 52q67 75 209 277q6 10 12 25q9 20 46 -2q41 -24 52 -61q5 -18 -1 -33q-9 -28 -72 -137q-64 -111 -47 -121q23 -11 148 156l4 4q16 11 33 -2q7 -7 8 -17t-5 -17q-80 -102 -122 -139q-70 -63 -115 -44
q-55 23 -67 62q-10 27 0 69q-64 -81 -112 -114q-44 -29 -74 -20q-169 51 10 317q45 66 100 114t96 61q62 19 113 -23q27 -21 23 -33q-1 -2 -3 -3q-4 -3 -12 -1z" />
    <glyph glyph-name="b" unicode="b" horiz-adv-x="476" 
d="M364 662q-9 -24 -110 -217l-38 -70q61 72 104 103q44 29 74 20q168 -51 -10 -317q-45 -66 -100 -114t-96 -61q-49 -15 -91 8t-45 44q-16 -34 -22 -49q-9 -19 -46 2q-42 25 -52 62q-5 18 1 33q4 13 64 127q4 9 14 27q36 68 140.5 270t115.5 229q9 19 45 -2q42 -25 53 -62
q4 -18 -1 -33zM69 94l-14 -29q4 3 12 1q70 4 177 149q80 108 108 186q14 38 -2 34t-59 -52q-73 -81 -213 -281q-3 -6 -9 -8z" />
    <glyph glyph-name="c" unicode="c" horiz-adv-x="356" 
d="M331 434q-42 -6 -88 -56t-88 -128q-32 -61 -38 -106t10 -64.5t47 -15.5q28 4 66 32.5t65 62.5q33 36 56 69q14 10 33 -5q16 -13 0 -34q-4 -4 -10.5 -14.5t-10.5 -15.5q-96 -135 -209 -159q-88 -18 -138 39q-58 68 -22 192q13 44 37 89q38 73 88.5 117.5t95.5 58.5
q37 11 70 0t53 -32q15 29 22 49q2 16 24 -2q19 -15 24 -35q1 -11 -23.5 -43.5t-59 -73t-45.5 -57.5q-10 -5 -16.5 15t-2.5 29q43 61 60 88z" />
    <glyph glyph-name="d" unicode="d" horiz-adv-x="483" 
d="M221 136q-65 -81 -112 -113q-45 -30 -74 -20q-169 51 10 317q45 66 100 114t96 61q43 13 81 -3.5t51 -39.5q145 279 156 307q9 19 45 -2q42 -25 53 -62q4 -18 -1 -33q-6 -17 -86 -168t-147 -287t-56 -142q23 -11 148 156l4 4q16 11 33 -2q7 -7 8 -17t-5 -17
q-78 -99 -117 -135q-74 -68 -120 -48q-55 23 -67 62q-10 27 0 68zM362 435q-69 -4 -176 -148q-80 -108 -109 -187q-14 -38 2 -35q16 4 59 52q73 82 194 255l32 62q-1 0 -2 1z" />
    <glyph glyph-name="e" unicode="e" horiz-adv-x="356" 
d="M115 107q8 -44 48 -44q24 1 69 31.5t72 64.5q1 1 14 16t25.5 29.5t12.5 13.5q13 21 37 5q7 -6 8 -16t-5 -18q-4 -5 -11.5 -15.5t-10.5 -14.5q-96 -134 -208 -158q-89 -20 -140 38q-59 66 -24 189q13 45 38 92q38 73 88.5 117.5t95.5 58.5q36 11 68.5 0t52.5 -31
q21 38 24 48q2 16 24 -2q19 -15 24 -35q1 -14 -47 -90t-123 -163.5t-132 -115.5zM328 434q-83 -14 -174 -184q-25 -46 -34 -84q91 69 208 268z" />
    <glyph glyph-name="f" unicode="f" horiz-adv-x="288" 
d="M234 697q10 20 47 -2q42 -25 52 -63q4 -16 -1 -31q-7 -18 -194 -380q90 -2 157 7h6q8 -1 14 -8.5t7 -16.5q1 -10 -5.5 -17.5t-16.5 -8.5q-11 -1 -40 -4.5t-58.5 -6.5t-56.5 -3q3 -56 -17 -135t-55 -151t-88.5 -119.5t-108.5 -39.5q-51 8 -68 62q-19 60 53 193l106 202h-7
q-17 1 -3 28q14 28 32 29q2 0 4 -1l2 -1q230 444 239 467zM54 -53q52 126 50 209l-84 -164q-11 -22 -19 -36.5t-19 -36t-18.5 -36.5t-16 -32.5t-13 -29.5t-8 -23t-3 -16.5t3.5 -6.5q21 -4 59 48t68 124zM104 164v-8l5 8h-5z" />
    <glyph glyph-name="g" unicode="g" 
d="M362 436q-69 -4 -176 -148q-80 -108 -109 -187q-14 -38 2 -35q16 4 59 52q69 77 210 278l11 24q9 19 46 -1q41 -23 53 -58q7 -20 -2 -37q-10 -22 -32 -63q0 -5 -2 -7l-19 -35q-12 -23 -34.5 -65.5t-30.5 -56.5q81 44 119 88l24 31q14 23 36 11q20 -11 12 -30l-4 -7
l-28 -35q-20 -25 -57 -50t-59.5 -37t-81.5 -41l-11 -20q-15 -26 -41 -75t-34 -63q-69 -135 -130 -152q-54 -15 -89 21q-32 33 -35.5 66t20 64.5t58.5 59t89 58.5l53 103q-41 -44 -70 -65q-44 -29 -74 -20q-169 51 10 317q45 66 100 114t96 61q62 19 113 -23q27 -21 23 -33
q-1 -2 -3 -3q-4 -3 -12 -1zM70 -117q1 3 5 9q-81 -62 -63 -80q8 -6 33 32l7 10z" />
    <glyph glyph-name="h" unicode="h" horiz-adv-x="478" 
d="M363 662q-11 -30 -109 -217l-40 -76q64 84 101 109q44 30 74 20q18 -4 30 -12q29 -13 50 -42t11 -57q-6 -18 -51 -99.5t-77 -149t-20 -73.5q23 -11 148 156l3 4q16 11 33 -2q8 -7 9 -16.5t-6 -17.5q-78 -100 -118 -136q-73 -67 -118 -47q-56 24 -68 62q-19 58 53 193
l84 159q4 20 -9 15q-17 -6 -57 -51q-33 -37 -80 -105.5t-101 -152.5t-73 -112l-2 -4q-6 -11 -23 -8l-6 2q-30 10 -54.5 41t-13.5 61q5 16 64 128l14 27q30 55 137 262.5t118 235.5q9 19 45 -2q42 -25 53 -62q4 -18 -1 -33z" />
    <glyph glyph-name="i" unicode="i" horiz-adv-x="219" 
d="M226 395q-6 -18 -51.5 -101t-78.5 -152.5t-22 -75.5q8 -4 28.5 14.5t47 50t42.5 52t30 38.5q1 3 4 4q6 5 16 4t16 -6q8 -6 9 -16.5t-5 -17.5q-74 -93 -104 -122q-83 -82 -133 -61q-56 24 -68 62q-19 58 53 193q104 195 118 231q10 19 47 -3q42 -25 52 -63q4 -16 -1 -31z
M327 595q-2 -12 -30 -46t-40 -61q-9 -7 -28 10t-27 30q-10 24 11.5 79.5t23.5 71.5q0 13 33 -6q46 -26 56 -59q2 -10 1 -19z" />
    <glyph glyph-name="j" unicode="j" horiz-adv-x="222" 
d="M34 27q-7 -14 -11 -20q-50 -92 -74 -139q-73 -136 -131 -152q-53 -15 -89 21q-32 33 -35 66.5t22.5 65.5t61 59.5t89.5 59.5q10 19 61.5 119.5t80.5 153.5q111 198 124 230q10 19 48 -3q43 -25 52 -61q5 -18 -3 -33q-4 -9 -34.5 -66t-35.5 -68q0 -1 -2 -7q-8 -11 -20 -35
l-65 -122q81 44 119 88q10 11 24 31q13 22 35 12q20 -10 14 -28q-1 -5 -5 -10l-27 -35q-20 -25 -56.5 -49.5t-62 -37.5t-80.5 -40zM308 594q-2 -11 -29.5 -44.5t-39.5 -61.5q-9 -7 -29 10.5t-26 29.5q-10 24 11.5 80.5t23.5 70.5q0 13 32 -5q45 -25 55 -59q4 -11 2 -21z
M-195 -118l6 10q-82 -64 -63 -80q7 -7 33 31l7 11z" />
    <glyph glyph-name="k" unicode="k" horiz-adv-x="478" 
d="M363 662q-11 -30 -109 -217v1l-40 -77q64 84 101 109q31 21 55 22t56 -17l1 -1q27 -15 44.5 -42t8.5 -53q-4 -10 -55 -25t-108.5 -39t-74.5 -56q-13 -25 5.5 -79.5t50 -92.5t52.5 -23q44 32 130 149l3 4q15 12 33 -2q8 -7 9 -16.5t-6 -17.5q-80 -102 -122 -139
q-70 -63 -114 -44q-58 25 -87 101.5t-10 141.5q-30 -44 -83 -126t-71 -109l-2 -4q-6 -12 -23 -7q-4 0 -6 1q-30 10 -54.5 41t-13.5 61q5 16 64 128q4 9 14 27q35 66 139.5 268.5t115.5 229.5q9 19 45 -2q42 -25 53 -62q4 -18 -1 -33zM348 420q8 13 -1 12q-19 0 -61 -48
q-23 -26 -53 -67q10 9 48.5 40.5t55.5 49.5q8 8 11 13z" />
    <glyph glyph-name="l" unicode="l" horiz-adv-x="222" 
d="M363 662q-6 -17 -86 -168t-147 -287t-56 -142q23 -11 148 156l4 3q6 5 16 4.5t16 -6.5q19 -14 4 -33q-73 -92 -101 -119q-85 -86 -136 -64q-56 22 -68 61q-19 59 53 194q31 57 138 264t118 234q9 19 45 -2q42 -25 53 -62q4 -18 -1 -33z" />
    <glyph glyph-name="m" unicode="m" horiz-adv-x="739" 
d="M231 397q-5 -8 -15 -25q61 79 99 106q44 30 74 20q18 -4 30 -12q29 -13 50 -42t11 -57q-2 -6 -11 -24q69 89 106 115q44 30 74 20q18 -4 30 -12q29 -13 50 -42t11 -57q-6 -18 -50.5 -99.5t-76.5 -149t-21 -73.5q23 -11 148 156l4 3q6 5 16 4.5t16 -5.5q19 -15 4 -34
q-73 -92 -101 -119q-85 -86 -136 -64q-56 24 -68 62q-19 58 53 193q40 70 84 159q5 27 -20 9q-17 -13 -46 -45q-45 -50 -148 -208t-106 -163l-2 -3q-4 -11 -23 -8l-6 2q-29 10 -53.5 41t-14.5 61q3 9 29 61q18 40 46 94l84 159q5 27 -20 9q-17 -13 -46 -45
q-33 -37 -80.5 -106t-100.5 -152.5t-73 -112.5l-2 -3q-6 -11 -23 -8l-6 2q-30 10 -54.5 41t-13.5 61q5 16 64 128l14 27q108 199 122 233q9 19 48 -3q44 -24 53 -60q6 -19 -3 -34z" />
    <glyph glyph-name="n" unicode="n" horiz-adv-x="478" 
d="M231 397l-15 -25q61 79 99 106q44 29 74 20q12 -3 30 -12q29 -14 50 -43t11 -57q-6 -18 -50.5 -99.5t-77 -148.5t-20.5 -73q23 -11 148 156l3 3q16 13 33 -2q8 -6 9 -16t-6 -18q-75 -94 -108 -126q-80 -78 -128 -57q-56 24 -68 62q-19 60 53 193q6 12 23.5 44.5t33 62
t27.5 53.5q5 27 -20 9q-17 -13 -46 -45q-33 -37 -80.5 -106t-100.5 -152.5t-73 -112.5l-2 -4q-6 -10 -23 -7q-2 0 -6 2q-30 10 -54.5 41t-13.5 61q4 13 64 127q4 9 14 27q112 210 122 234q9 19 48 -3q43 -25 53 -60q6 -19 -3 -34z" />
    <glyph glyph-name="o" unicode="o" horiz-adv-x="401" 
d="M354 434q-55 -3 -128.5 -94t-115.5 -181.5t-21 -93.5q32 -5 93 75t107 171q-13 42 11 82.5t56 29.5q38 -15 6 -81l-4 -7v-1l-9 -23l2 -2q36 -21 98 14q10 5 22 13q20 13 35 -7q13 -20 -7 -35q-92 -56 -149 -39q-16 6 -23 10q-35 -68 -80 -130t-101 -104t-98 -29
q-103 32 -75 160q23 107 116 219q79 94 144 114q63 19 114 -24q27 -22 21 -34q0 -1 -2 -2q-4 -1 -12 -1z" />
    <glyph glyph-name="p" unicode="p" horiz-adv-x="482" 
d="M224 394l-4 -9q59 67 96 93q42 29 74 20q168 -51 -10 -317q-45 -67 -100 -114.5t-97 -60.5q-46 -15 -86.5 5.5t-48.5 43.5q-123 -229 -158 -314q-9 -19 -46 2q-42 25 -52 62q-5 18 1 33q4 13 64 127q4 9 14 27q36 68 140.5 270t115.5 229q9 19 45 -2q42 -25 53 -62
q4 -18 -1 -33zM73 101l-19 -35q5 2 8 0q70 4 177 148q80 108 108 187q14 38 -2 34.5t-59 -51.5q-82 -93 -212 -282z" />
    <glyph glyph-name="q" unicode="q" horiz-adv-x="481" 
d="M360 432q-70 -3 -177 -148q-79 -107 -108 -185q-14 -39 2 -36q15 4 59 52q78 89 209 277l11 25q10 20 47 -2q42 -25 52 -63q4 -16 -1 -31q-10 -26 -73 -137q-13 -23 -30.5 -53.5t-28.5 -51t-18 -30.5q15 -10 82 60t97 110l3 3q16 12 33 -1q8 -7 9 -16.5t-6 -17.5
q-110 -143 -170 -175q8 -41 -3.5 -95t-38 -102.5t-72.5 -78.5t-100 -22q-51 8 -68 62q-19 58 53 193q51 94 74 139q-53 -61 -91 -87q-44 -30 -74 -20q-168 51 10 317q45 67 100 114.5t97 60.5q63 19 114 -23q27 -23 21 -34q0 -1 -2 -2q-4 -2 -12 -2zM308 -1q-10 0 -19 3
q-95 -182 -102 -215q-4 -15 2 -16q24 -6 54.5 38.5t49 101t15.5 88.5z" />
    <glyph glyph-name="r" unicode="r" horiz-adv-x="353" 
d="M266 604q-2 -9 -9 -23.5t-22 -41t-21 -38.5q-2 -4 -2 -5q28 -13 45.5 -23t44.5 -29t37.5 -41t2.5 -44q-7 -18 -48 -92t-70 -134.5t-18 -66.5q23 -11 148 155l4 4q15 12 33 -2q8 -6 9 -16t-6 -18q-80 -102 -122 -139q-70 -63 -115 -44q-55 23 -67 62q-20 57 53 193
q10 20 43.5 81.5t46.5 87.5q-23 14 -40 22q-67 -154 -174 -290q-6 -8 -16.5 -9.5t-18.5 4.5q-20 15 -5 36q105 135 171 287l-1 1q-37 23 -46 36q-10 24 20.5 90.5t33.5 85.5q0 12 39 -7q55 -28 68 -62q4 -11 2 -20z" />
    <glyph glyph-name="s" unicode="s" horiz-adv-x="365" 
d="M311 434q-67 -10 -139 -127q-46 -73 -37 -102t78 -25q45 2 65.5 -27t-1.5 -63q-25 -38 -85 -65.5t-138 -16.5h-1q-24 3 -43 21q-17 17 -21 34t5.5 33.5t18.5 26.5t24 24q11 10 22 2.5t13.5 -20.5t-0.5 -19q-7 -3 -19 -16t-12 -18q-1 -8 5 -12t17 -6q34 1 71 34t13 47
q-9 5 -26 6q-26 2 -45.5 6.5t-40.5 20t-26.5 39.5t6.5 69t48 105q49 81 142 111q38 11 71 0t52 -32q13 22 22 49q2 15 24 -1q20 -16 25 -36q1 -11 -23.5 -43.5t-59 -73t-45.5 -57.5q-11 -5 -17 15t-3 29q38 51 60 88z" />
    <glyph glyph-name="t" unicode="t" horiz-adv-x="222" 
d="M332 601q-2 -7 -9 -20q50 -4 58 -4q10 -6 -3.5 -22.5t-22.5 -18.5q-28 2 -53 2q-15 -30 -52.5 -100.5t-66 -125.5t-58 -114t-43 -94t-7.5 -38q23 -11 148 156l4 3q6 5 16 4.5t16 -6.5q19 -14 4 -33q-73 -92 -101 -119q-85 -86 -136 -64q-56 24 -68 61q-19 59 53 194
q56 104 143 274q-36 -4 -49 -8q-10 -5 -12 12q-2 29 15 49q10 8 75 4q41 77 52 104q10 20 46 -2q42 -24 52 -61q5 -18 -1 -33z" />
    <glyph glyph-name="u" unicode="u" horiz-adv-x="456" 
d="M462 395q-6 -18 -51.5 -101.5t-79 -152.5t-21.5 -75q9 -5 39.5 26t57 63.5t46.5 58.5q4 5 5 7l3 4q15 12 33 -2q8 -6 9 -16t-6 -18q-75 -94 -108 -126q-80 -78 -128 -57q-56 24 -68 62q-6 18 -3 46q-116 -129 -165 -108q-56 24 -68 62q-19 60 53 193q104 195 118 231
q10 19 47 -3q42 -25 52 -63q4 -16 -1 -31q-6 -18 -51.5 -101t-78.5 -152.5t-22 -75.5q21 -10 178 206q100 191 112 220q10 19 47 -3q42 -25 52 -63q4 -16 -1 -31z" />
    <glyph glyph-name="v" unicode="v" horiz-adv-x="382" 
d="M208 396q-3 -18 -32.5 -101t-50 -152.5t-8.5 -75.5q9 -4 27.5 16.5t40.5 54.5q29 44 198 358q8 8 19.5 3.5t20.5 -18t4 -21.5q-3 -5 -93 -168.5t-102 -180.5q-88 -129 -153 -103q-58 23 -79 61q-29 58 17 194q63 178 76 230q5 19 46 -2q46 -25 64 -62q8 -18 5 -33z" />
    <glyph glyph-name="w" unicode="w" horiz-adv-x="635" 
d="M220 396q-3 -20 -37.5 -102t-60.5 -151.5t-14 -75.5q9 -4 27.5 16.5t40.5 54.5q10 15 50.5 101.5t79 170t40.5 86.5q5 6 14 5q29 -1 68 -36t33 -69q-3 -18 -33 -101t-50.5 -152.5t-7.5 -75.5q9 -4 27.5 16.5t40.5 54.5q29 44 198 358q8 8 19.5 3.5t20.5 -18t4 -21.5
q-3 -5 -93 -168.5t-102 -180.5q-88 -129 -153 -103q-59 22 -79 61q-15 30 -12 75q-14 -28 -18 -33q-88 -129 -153 -103q-57 22 -79 61q-20 40 3 122t63.5 176.5t47.5 125.5q6 19 46 -2q47 -25 64 -62q8 -18 5 -33z" />
    <glyph glyph-name="x" unicode="x" horiz-adv-x="421" 
d="M301 412q-2 -11 -12 -69q122 142 122 156q10 8 38 -11t13 -36q-93 -92 -184 -194q-24 -183 -4 -192q8 -4 28.5 14.5t47 50t42.5 52t30 38.5l3 4q15 12 33 -2q8 -7 9 -16.5t-6 -17.5q-80 -102 -122 -139q-70 -63 -114 -44q-26 11 -49 33t-30 42q-2 6 -4 14
q-64 -82 -67 -93q-5 -5 -20 2.5t-27 19t-8 16.5q52 57 118 131q0 7 0.5 21t0.5 22l11 155q-72 -118 -131 -192q-15 -19 -36 -4q-19 15 -4 36q65 79 158 236q10 16 14 28q0 9 7 14q8 12 32.5 9t50.5 -12.5t45 -30t15 -41.5z" />
    <glyph glyph-name="y" unicode="y" horiz-adv-x="456" 
d="M226 395q-6 -18 -51.5 -101.5t-79 -152.5t-21.5 -75q19 -10 175 203q110 197 120 222q10 20 48 -3q42 -24 52 -59q5 -19 -3 -34q-68 -133 -157 -298q80 42 119 87q7 8 24 32q13 21 35 11q20 -10 14 -28q-1 -5 -5 -10l-27 -35q-7 -9 -15 -17t-19 -16.5t-18.5 -14
t-23 -14.5t-21.5 -13t-25.5 -14t-24 -12t-27 -13t-25.5 -13q-1 -2 -5 -9.5t-6 -10.5q-50 -92 -74 -139q-73 -136 -131 -152q-53 -15 -89 21q-32 33 -35 66.5t22.5 66t61 60t89.5 59.5q22 40 39 76q-77 -75 -117 -59q-56 24 -68 62q-19 60 53 193q104 195 118 231
q10 19 47 -3q42 -25 52 -63q4 -16 -1 -31zM41 -117l6 9q-82 -62 -63 -80q7 -7 33 31l7 11z" />
    <glyph glyph-name="z" unicode="z" horiz-adv-x="499" 
d="M429 494l-1 -1q10 2 16 2q43 8 64 33q5 9 15.5 11t19.5 -4t11 -16.5t-4 -18.5l-9 -12q-9 -9 -15 -13v-1q-27 -26 -51.5 -47t-47 -39t-88 -71.5t-136.5 -111.5q63 30 101.5 -13.5t26.5 -104.5q99 52 138 97q23 25 27 31q13 22 34 11q19 -10 12 -29l-5 -8q-4 -5 -10.5 -14
t-16.5 -21q-20 -25 -51.5 -47.5t-54.5 -34.5t-76 -37q-7 -51 -44 -121.5t-90.5 -129t-98.5 -68.5q-54 -14 -89 21q-32 33 -33.5 66.5t27 66t64.5 59.5t92 60q29 57 24 109q-5 46 -40 30q-6 -3 -14 -8q-7 -3 -24.5 -1.5t-34 8.5t-12.5 14q16 29 117 142q117 133 143 168
l-23 4q-9 2 -46 9t-51 9q-90 -202 -177 -312q-6 -8 -17 -9.5t-19 5.5t-9.5 17.5t5.5 18.5q42 54 91.5 143t80.5 162q10 23 22.5 27t38.5 -4q160 -32 214 -28h3zM94 -117l5 9q-81 -62 -63 -80q8 -7 33 31l7 11q12 18 18 29z" />
    <glyph glyph-name="braceleft" unicode="{" horiz-adv-x="318" 
d="M490 549q-37 1 -69 -29.5t-50 -68.5t-44 -94t-43 -83q-9 -14 -48 -14.5t-43 -13.5q-3 -9 7.5 -15t24.5 -8.5t24.5 -8t7.5 -14.5q-11 -30 -33 -78.5t-38.5 -85.5t-30 -73.5t-10 -58t25.5 -24.5q5 -2 4.5 -9.5t-3 -13.5t-4.5 -6q-41 8 -67 22.5t-36 36.5t-13 42.5t6 52
t17 53t23.5 57t22.5 53.5q13 33 5 51t-24 23t-28 12.5t-7 20.5q4 12 17.5 13t29.5 -1t41 15.5t49 57.5q11 18 23 41.5t20.5 41.5t19.5 38.5t22 35t25 29t31.5 23t39.5 14.5t50.5 5.5t62.5 -6.5q11 -3 7.5 -16t-15.5 -17z" />
    <glyph glyph-name="bar" unicode="|" horiz-adv-x="398" 
d="M382 764q-20 -153 -50 -468t-24 -407q1 -21 -33 -14q-37 6 -50 29q-3 5 -3 10q14 112 30 458t4 420q0 15 33 16t64 -12t29 -32z" />
    <glyph glyph-name="braceright" unicode="}" horiz-adv-x="431" 
d="M-4 -80q37 -1 69 29.5t50 68.5t44 94t43 83q9 14 48 14.5t43 13.5q3 9 -7.5 15t-24.5 8.5t-24.5 8t-7.5 14.5q11 30 33 78.5t38.5 85.5t30 73.5t10 58t-25.5 24.5q-5 2 -4.5 9.5t3 13.5t4.5 6q41 -8 67 -22.5t36 -36.5t13 -42.5t-6 -52t-17 -53t-23.5 -57t-22.5 -53.5
q-13 -33 -5 -51t24 -23t28 -12.5t7 -20.5q-4 -12 -17.5 -13t-29.5 1t-41 -15.5t-49 -57.5q-11 -18 -23 -41.5t-20.5 -41.5t-19.5 -38.5t-22 -35t-25 -29t-31.5 -23t-39.5 -14.5t-50.5 -5.5t-62.5 6.5q-11 3 -7.5 16t15.5 17z" />
    <glyph glyph-name="asciitilde" unicode="~" horiz-adv-x="591" 
d="M113 251q44 35 93 40.5t90.5 -6t81.5 -23t78.5 -4t68.5 45.5q13 19 28 -14q15 -34 6 -50q-1 -2 -2 -3q-50 -54 -101.5 -70.5t-92 -7t-78 22t-72 7t-61.5 -42.5q-17 -27 -36 9q-20 39 -13 76q3 14 10 20z" />
    <glyph glyph-name="exclamdown" unicode="&#xa1;" horiz-adv-x="295" 
d="M-15 -68q5 39 36.5 98.5t66.5 111t67.5 106.5t38.5 84q-1 20 26 9q31 -12 42 -37q3 -6 3 -11q-8 -62 -85.5 -220t-83.5 -213q0 -19 -41 1q-49 22 -66 53q-5 10 -4 18zM215 416q3 15 27.5 40.5t26.5 28.5q15 15 39.5 2t30.5 -29q9 -24 -11.5 -66.5t-23.5 -60.5
q0 -13 -32 5q-45 25 -55 59q-4 11 -2 21z" />
    <glyph glyph-name="sterling" unicode="&#xa3;" horiz-adv-x="431" 
d="M151 78q249 -8 225 -81q-4 -13 -17 -28l-4.5 -4.5t-3 -1t-2.5 1.5t-3.5 4t-4.5 5q-53 36 -204 62q-11 -42 -65 -50q-47 -8 -69 15q-11 11 -8 26q5 20 22 34q26 70 123 253q-33 -1 -66 -12q-13 -6 -16 16q-4 34 16 64q10 13 21 17q34 6 90 0q83 155 132 225
q104 148 288 64q16 -8 -10 -27q-33 -24 -54 -16q-2 0 -3 1q-29 8 -57.5 -14.5t-68.5 -84.5q-36 -55 -101 -164q73 -4 133 14q15 8 14 -11q-2 -28 -23 -51q-6 -6 -12 -9q-58 -20 -153 -14q-74 -135 -119 -234z" />
    <glyph glyph-name="section" unicode="&#xa7;" horiz-adv-x="511" 
d="M435 511q47 44 68 97q15 39 -7 37q-19 -3 -64 -41q-46 -39 -85 -100t-8 -87q25 -21 39.5 -38.5t23 -39t-1.5 -45t-38 -47.5q40 -77 -13 -163.5t-155 -116.5q-32 -9 -59 -8.5t-45 12t-28.5 28.5t-11 40t7 48t27 52t48.5 51q15 12 34 -3q15 -12 3 -17q-47 -44 -68 -97
q-15 -39 7 -37q19 3 64 41q46 39 85 100t7 87q-25 21 -39.5 38.5t-22.5 39t2 45t38 48.5q-40 76 13 162.5t155 116.5q32 9 59 8.5t44.5 -12t28.5 -28.5t11.5 -40t-7.5 -48t-27.5 -52t-47.5 -51q-15 -12 -34 3q-15 12 -3 17zM337 281q14 29 3 51.5t-39 40.5q-19 12 -33 27
q-31 -46 36 -92q20 -12 33 -27z" />
    <glyph glyph-name="dieresis" unicode="&#xa8;" horiz-adv-x="424" 
d="M198 604q-2 -11 -11.5 -23t-23.5 -25.5t-20 -21.5q-15 -15 -39.5 -1.5t-30.5 29.5q-8 24 12.5 66t23.5 61q0 12 32 -6q46 -25 56 -59q3 -10 1 -20zM379 604q-2 -11 -11.5 -23t-23.5 -25.5t-20 -21.5q-15 -15 -39.5 -1.5t-30.5 29.5q-8 24 12.5 66t23.5 61q0 12 32 -6
q46 -25 56 -59q3 -10 1 -20z" />
    <glyph glyph-name="acute" unicode="&#xb4;" horiz-adv-x="238" 
d="M223 638q-7 -8 -64.5 -47t-76.5 -64q-13 -11 -34 9.5t-19 34.5q0 10 23.5 34.5t57 57.5t48.5 53q6 10 26 -5t34 -38.5t5 -34.5z" />
    <glyph glyph-name="paragraph" unicode="&#xb6;" horiz-adv-x="420" 
d="M361 581q-84 -197 -196 -477.5t-132 -367.5q-7 -15 -26 -15.5t-37.5 12.5t-14.5 29q74 175 224 620q-83 -4 -91 61q-7 60 47 133q58 77 130 89q5 1 11 1q45 6 108 -3t108.5 -13.5t131.5 14.5q13 6 13 -5q-2 -19 -31 -49q-13 -13 -24 -18q-34 -9 -62 -12
q-77 -180 -191.5 -467.5t-135.5 -376.5q-7 -15 -26 -15.5t-37.5 12.5t-14.5 29q40 94 145 392.5t140 424.5q-26 2 -39 2z" />
    <glyph glyph-name="cedilla" unicode="&#xb8;" horiz-adv-x="833" 
d="M314 -80q58 -1 63 -38q4 -35 -39 -68q-65 -49 -159 -27q-15 2 -8 17q9 18 30 16q2 0 4 -1q22 -11 53 16q30 25 18 45q-4 5 -12 9q-37 2 -55 21q-10 9 1 15q15 6 28 16t19.5 18.5t18.5 25.5t19 26q27 15 64 11q23 -3 5 -12q-13 -16 -21.5 -31.5t-17 -34t-11.5 -24.5z" />
    <glyph glyph-name="questiondown" unicode="&#xbf;" horiz-adv-x="397" 
d="M206 188q-81 -68 -108 -101q-54 -66 -54 -139q0 -43 36 -41q44 1 94 57q24 26 40 58q4 3 17 2.5t23 -10t1 -21.5q-33 -56 -77 -92.5t-85.5 -46.5t-78 -2t-61 37.5t-29.5 74.5q-7 61 21 115t71.5 91t88.5 67.5t75.5 57t28.5 47.5q-2 16 30 -6q35 -23 36 -38
q1 -51 -69 -110zM227 414q2 12 11.5 24t23.5 25.5t20 20.5q15 16 39.5 2.5t30.5 -29.5q8 -24 -12.5 -66.5t-23.5 -60.5q0 -12 -31 5q-46 25 -56 59q-4 10 -2 20z" />
    <glyph glyph-name="Agrave" unicode="&#xc0;" horiz-adv-x="800" 
d="M778 672q-13 -22 -31 -49q29 -12 54 -34t22 -41q-7 -53 -75 -235q33 -15 55 -30q5 -6 -0.5 -14.5t-14.5 -13t-11 -1.5q-28 18 -42 25q-4 -12 -16.5 -45t-18 -47t-16.5 -43.5t-16.5 -45.5t-14 -41t-13 -41t-10 -35t-8.5 -34t-5 -28q1 -21 -40 -5q-44 18 -58 44q-3 5 -3 10
q7 63 105 349q-23 3 -64 7q-7 0 -21 0.5t-21 0.5q-43 -51 -76.5 -89t-94.5 -101t-110.5 -105.5t-107.5 -78t-104 -43.5q-21 -3 -22 36q0 30 8 29q60 10 153.5 80t162 137.5t122.5 130.5q-105 -11 -195 -51t-137 -103q-3 -2 -5.5 -5.5t-4 -4.5t-3.5 -0.5t-5 4.5
q-52 60 -2 106q61 55 166 80t225 20q132 158 235 343q6 8 20 4t27.5 -18t10.5 -24zM674 838q-9 10 7.5 33t39.5 38t29 5q3 -33 33 -85t31 -59q1 -14 -20 -35t-33 -9q-12 16 -43.5 57t-43.5 55zM697 553q-28 -37 -113 -144q-21 -27 -38 -46q39 -4 86 -14q47 139 65 204z" />
    <glyph glyph-name="Aacute" unicode="&#xc1;" horiz-adv-x="800" 
d="M778 672q-13 -22 -31 -49q29 -12 54 -34t22 -41q-7 -53 -75 -235q33 -15 55 -30q5 -6 -0.5 -14.5t-14.5 -13t-11 -1.5q-28 18 -42 25q-4 -12 -16.5 -45t-18 -47t-16.5 -43.5t-16.5 -45.5t-14 -41t-13 -41t-10 -35t-8.5 -34t-5 -28q1 -21 -40 -5q-44 18 -58 44q-3 5 -3 10
q7 63 105 349q-23 3 -64 7q-7 0 -21 0.5t-21 0.5q-43 -51 -76.5 -89t-94.5 -101t-110.5 -105.5t-107.5 -78t-104 -43.5q-21 -3 -22 36q0 30 8 29q60 10 153.5 80t162 137.5t122.5 130.5q-105 -11 -195 -51t-137 -103q-3 -2 -5.5 -5.5t-4 -4.5t-3.5 -0.5t-5 4.5
q-52 60 -2 106q61 55 166 80t225 20q132 158 235 343q6 8 20 4t27.5 -18t10.5 -24zM836 838q-7 -8 -64.5 -47t-76.5 -64q-13 -11 -34 9.5t-19 34.5q0 10 23.5 34.5t57 57.5t48.5 53q6 10 26 -5t34 -38.5t5 -34.5zM697 553q-28 -37 -113 -144q-21 -27 -38 -46q39 -4 86 -14
q47 139 65 204z" />
    <glyph glyph-name="Acircumflex" unicode="&#xc2;" horiz-adv-x="800" 
d="M778 672q-13 -22 -31 -49q29 -12 54 -34t22 -41q-7 -53 -75 -235q33 -15 55 -30q5 -6 -0.5 -14.5t-14.5 -13t-11 -1.5q-28 18 -42 25q-4 -12 -16.5 -45t-18 -47t-16.5 -43.5t-16.5 -45.5t-14 -41t-13 -41t-10 -35t-8.5 -34t-5 -28q1 -21 -40 -5q-44 18 -58 44q-3 5 -3 10
q7 63 105 349q-23 3 -64 7q-7 0 -21 0.5t-21 0.5q-43 -51 -76.5 -89t-94.5 -101t-110.5 -105.5t-107.5 -78t-104 -43.5q-21 -3 -22 36q0 30 8 29q60 10 153.5 80t162 137.5t122.5 130.5q-105 -11 -195 -51t-137 -103q-3 -2 -5.5 -5.5t-4 -4.5t-3.5 -0.5t-5 4.5
q-52 60 -2 106q61 55 166 80t225 20q132 158 235 343q6 8 20 4t27.5 -18t10.5 -24zM632 813q7 8 64.5 47t76.5 64q14 12 35 -11q21 23 35 11q75 -100 86 -112q9 -10 -7.5 -33t-39 -38t-28.5 -5q-1 11 -4.5 23t-10 25.5t-10.5 21t-13 23t-11 18.5q-6 -6 -49 -48.5t-59 -63.5
q-6 -10 -26 5t-34 38.5t-5 34.5zM697 553q-28 -37 -113 -144q-21 -27 -38 -46q39 -4 86 -14q47 139 65 204z" />
    <glyph glyph-name="Atilde" unicode="&#xc3;" horiz-adv-x="800" 
d="M778 672q-13 -22 -31 -49q29 -12 54 -34t22 -41q-7 -53 -75 -235q33 -15 55 -30q5 -6 -0.5 -14.5t-14.5 -13t-11 -1.5q-28 18 -42 25q-4 -12 -16.5 -45t-18 -47t-16.5 -43.5t-16.5 -45.5t-14 -41t-13 -41t-10 -35t-8.5 -34t-5 -28q1 -21 -40 -5q-44 18 -58 44q-3 5 -3 10
q7 63 105 349q-23 3 -64 7q-7 0 -21 0.5t-21 0.5q-43 -51 -76.5 -89t-94.5 -101t-110.5 -105.5t-107.5 -78t-104 -43.5q-21 -3 -22 36q0 30 8 29q60 10 153.5 80t162 137.5t122.5 130.5q-105 -11 -195 -51t-137 -103q-3 -2 -5.5 -5.5t-4 -4.5t-3.5 -0.5t-5 4.5
q-52 60 -2 106q61 55 166 80t225 20q132 158 235 343q6 8 20 4t27.5 -18t10.5 -24zM634 790q33 21 63.5 24t52.5 -4t43.5 -13.5t46 -2t50.5 26.5q12 12 13 -10q2 -24 -7 -29q-41 -32 -75 -42t-56 -4t-42 13t-41.5 4t-44.5 -25q-17 -17 -20 7q-5 29 11 49q3 4 6 6zM697 553
q-28 -37 -113 -144q-21 -27 -38 -46q39 -4 86 -14q47 139 65 204z" />
    <glyph glyph-name="Adieresis" unicode="&#xc4;" horiz-adv-x="800" 
d="M778 672q-13 -22 -31 -49q29 -12 54 -34t22 -41q-7 -53 -75 -235q33 -15 55 -30q5 -6 -0.5 -14.5t-14.5 -13t-11 -1.5q-28 18 -42 25q-4 -12 -16.5 -45t-18 -47t-16.5 -43.5t-16.5 -45.5t-14 -41t-13 -41t-10 -35t-8.5 -34t-5 -28q1 -21 -40 -5q-44 18 -58 44q-3 5 -3 10
q7 63 105 349q-23 3 -64 7q-7 0 -21 0.5t-21 0.5q-43 -51 -76.5 -89t-94.5 -101t-110.5 -105.5t-107.5 -78t-104 -43.5q-21 -3 -22 36q0 30 8 29q60 10 153.5 80t162 137.5t122.5 130.5q-105 -11 -195 -51t-137 -103q-3 -2 -5.5 -5.5t-4 -4.5t-3.5 -0.5t-5 4.5
q-52 60 -2 106q61 55 166 80t225 20q132 158 235 343q6 8 20 4t27.5 -18t10.5 -24zM906 804q-2 -11 -11.5 -23t-23.5 -25.5t-20 -21.5q-15 -15 -39.5 -1.5t-30.5 29.5q-8 24 12.5 66t23.5 61q0 12 32 -6q46 -25 56 -59q3 -10 1 -20zM725 804q-2 -11 -11.5 -23t-23.5 -25.5
t-20 -21.5q-15 -15 -39.5 -1.5t-30.5 29.5q-8 24 12.5 66t23.5 61q0 12 32 -6q46 -25 56 -59q3 -10 1 -20zM697 553q-28 -37 -113 -144q-21 -27 -38 -46q39 -4 86 -14q47 139 65 204z" />
    <glyph glyph-name="Aring" unicode="&#xc5;" horiz-adv-x="800" 
d="M792 926q12 3 31 -23q17 -24 3 -25q-6 0 -14 -4q28 -57 9.5 -104.5t-61.5 -66.5q21 -17 18 -31q-13 -22 -31 -49q29 -12 54 -34t22 -41q-7 -53 -75 -235q33 -15 55 -30q5 -6 -0.5 -14.5t-14.5 -13t-11 -1.5q-28 18 -42 25q-4 -12 -16.5 -45t-18 -47t-16.5 -43.5
t-16.5 -45.5t-14 -41t-13 -41t-10 -35t-8.5 -34t-5 -28q1 -21 -40 -5q-44 18 -58 44q-3 5 -3 10q7 63 105 349q-23 3 -64 7q-7 0 -21 0.5t-21 0.5q-43 -51 -76.5 -89t-94.5 -101t-110.5 -105.5t-107.5 -78t-104 -43.5q-21 -3 -22 36q0 30 8 29q60 10 153.5 80t162 137.5
t122.5 130.5q-105 -11 -195 -51t-137 -103q-3 -2 -5.5 -5.5t-4 -4.5t-3.5 -0.5t-5 4.5q-52 60 -2 106q61 55 166 80t225 20q128 154 227 329q-37 8 -50 58q-8 69 29 113t101 59zM697 553q-28 -37 -113 -144q-21 -27 -38 -46q39 -4 86 -14q47 139 65 204zM740 727q30 9 51 56
t0 77q-23 -1 -53.5 -57t-8.5 -75q1 -1 2 -1t1.5 -0.5t1.5 -0.5h4z" />
    <glyph glyph-name="AE" unicode="&#xc6;" horiz-adv-x="994" 
d="M775 672q-13 -22 -31 -49l8 -4l7 6q4 2 10 8q73 79 205 83q48 2 98.5 -37.5t26.5 -82.5q-15 -26 -50.5 -36.5t-78.5 4.5q-31 11 -63 26q-38 -33 -80 -85q-13 -16 -24.5 -34.5t-18.5 -42t-3.5 -41.5t26 -31t64.5 -13q14 2 -3 -21q-12 -16 -18 -19q-45 -6 -83 -23
t-62 -37.5t-43 -47.5t-28 -47.5t-16 -42.5q-13 -44 -2 -73t42 -32q58 -5 129.5 58t114.5 177q12 18 34 1q26 -19 19 -49q-1 -7 -5 -13q-70 -112 -146 -168t-148 -54q-78 2 -123.5 42.5t-35.5 101.5q9 57 50.5 115.5t109.5 89.5q-94 25 -145 24q-43 -51 -76.5 -89t-94.5 -101
t-110.5 -105.5t-107.5 -78t-104 -43.5q-21 -3 -22 36q0 30 8 29q60 10 153.5 80t162 137.5t122.5 130.5q-105 -11 -195 -51t-137 -103q-3 -2 -5.5 -5.5t-4 -4.5t-3.5 -0.5t-5 4.5q-52 60 -2 106q61 55 166 80t225 20q132 158 235 343q6 8 20 4t27.5 -18t10.5 -24zM801 326
q-57 11 -93 31t-48.5 46.5t-9.5 56t21 62.5q-40 -52 -90 -113q-21 -27 -38 -46q81 -3 181 -42q37 6 77 5zM1053 622q-25 24 -66 14q-12 -2 -29 -11q5 -2 13.5 -5.5t11.5 -4.5q48 -21 68 -15q17 6 2 22z" />
    <glyph glyph-name="Ccedilla" unicode="&#xc7;" horiz-adv-x="661" 
d="M258 -99q58 -1 63 -38q4 -35 -39 -68q-65 -49 -159 -27q-15 2 -8 17q9 18 30 16q2 0 4 -1q22 -11 53 16q30 25 18 45q-5 5 -12 9q-37 2 -55 21q-10 9 1 15q6 2 11 5t10 6.5t8.5 6t8.5 8t7 7.5t7 9t6.5 8.5t7 9.5t6.5 10q-58 34 -67.5 114.5t21.5 173.5t92 188.5
t136 162.5q-152 10 -251 -92q-80 -83 -93 -176q1 -3 -2 -8t-8 -1q-45 31 -51.5 73t19.5 84t78 81q151 116 362 80q86 60 173 60q59 0 112.5 -47.5t37.5 -93.5q-10 -30 -46.5 -41t-88.5 7q-14 5 -45.5 18t-48.5 20q-48 -45 -99.5 -115t-91.5 -145t-65.5 -143t-24.5 -116
t33 -58l2 -1q2 0 5 -0.5t4 -0.5q58 -5 129.5 58t113.5 178q13 18 35 0q26 -21 18 -51q-1 -6 -4 -11q-71 -112 -146.5 -168t-147.5 -54q-22 2 -33 4q-6 -12 -14.5 -30.5t-11.5 -24.5zM604 616q11 -4 31 -12.5t28 -11.5q48 -21 68 -15q15 4 0 25q-22 32 -65 33q-31 1 -62 -19z
" />
    <glyph glyph-name="Egrave" unicode="&#xc8;" horiz-adv-x="674" 
d="M587 590q-38 -33 -80 -85q-13 -16 -24.5 -34.5t-18.5 -42t-3.5 -41.5t26 -31t64.5 -13q14 2 -3 -21q-12 -16 -18 -19q-45 -6 -83 -23t-62 -37.5t-43 -47.5t-28 -47.5t-16 -42.5q-13 -44 -2 -73t42 -32q58 -5 129.5 58t114.5 177q12 18 34 1q26 -19 19 -49q-1 -7 -5 -13
q-70 -112 -146 -168t-148 -54q-78 2 -123.5 42.5t-35.5 101.5q6 39 27.5 78t57 76t93 58.5t126.5 17.5q-80 15 -118 49t-34 76.5t32.5 87t77.5 86.5q4 2 10 8q-179 29 -292 -87q-80 -83 -93 -176q1 -3 -2 -8t-8 -1q-45 31 -51.5 73t19.5 84t78 81q166 127 403 72
q80 48 151 45q50 -2 99.5 -39.5t25.5 -80.5q-15 -26 -50.5 -36.5t-78.5 4.5q-31 11 -63 26zM492 838q-9 10 7.5 33t39.5 38t29 5q3 -33 33 -85t31 -59q1 -14 -20 -35t-33 -9q-12 16 -43.5 57t-43.5 55zM733 622q-25 24 -66 14q-12 -2 -29 -11q5 -2 13.5 -5.5t11.5 -4.5
q48 -21 68 -15q17 6 2 22z" />
    <glyph glyph-name="Eacute" unicode="&#xc9;" horiz-adv-x="674" 
d="M587 590q-38 -33 -80 -85q-13 -16 -24.5 -34.5t-18.5 -42t-3.5 -41.5t26 -31t64.5 -13q14 2 -3 -21q-12 -16 -18 -19q-45 -6 -83 -23t-62 -37.5t-43 -47.5t-28 -47.5t-16 -42.5q-13 -44 -2 -73t42 -32q58 -5 129.5 58t114.5 177q12 18 34 1q26 -19 19 -49q-1 -7 -5 -13
q-70 -112 -146 -168t-148 -54q-78 2 -123.5 42.5t-35.5 101.5q6 39 27.5 78t57 76t93 58.5t126.5 17.5q-80 15 -118 49t-34 76.5t32.5 87t77.5 86.5q4 2 10 8q-179 29 -292 -87q-80 -83 -93 -176q1 -3 -2 -8t-8 -1q-45 31 -51.5 73t19.5 84t78 81q166 127 403 72
q80 48 151 45q50 -2 99.5 -39.5t25.5 -80.5q-15 -26 -50.5 -36.5t-78.5 4.5q-31 11 -63 26zM602 838q-7 -8 -64.5 -47t-76.5 -64q-13 -11 -34 9.5t-19 34.5q0 10 23.5 34.5t57 57.5t48.5 53q6 10 26 -5t34 -38.5t5 -34.5zM733 622q-25 24 -66 14q-12 -2 -29 -11
q5 -2 13.5 -5.5t11.5 -4.5q48 -21 68 -15q17 6 2 22z" />
    <glyph glyph-name="Ecircumflex" unicode="&#xca;" horiz-adv-x="674" 
d="M587 590q-38 -33 -80 -85q-13 -16 -24.5 -34.5t-18.5 -42t-3.5 -41.5t26 -31t64.5 -13q14 2 -3 -21q-12 -16 -18 -19q-45 -6 -83 -23t-62 -37.5t-43 -47.5t-28 -47.5t-16 -42.5q-13 -44 -2 -73t42 -32q58 -5 129.5 58t114.5 177q12 18 34 1q26 -19 19 -49q-1 -7 -5 -13
q-70 -112 -146 -168t-148 -54q-78 2 -123.5 42.5t-35.5 101.5q6 39 27.5 78t57 76t93 58.5t126.5 17.5q-80 15 -118 49t-34 76.5t32.5 87t77.5 86.5q4 2 10 8q-179 29 -292 -87q-80 -83 -93 -176q1 -3 -2 -8t-8 -1q-45 31 -51.5 73t19.5 84t78 81q166 127 403 72
q80 48 151 45q50 -2 99.5 -39.5t25.5 -80.5q-15 -26 -50.5 -36.5t-78.5 4.5q-31 11 -63 26zM482 813q7 8 64.5 47t76.5 64q14 12 35 -11q21 23 35 11q75 -100 86 -112q9 -10 -7.5 -33t-39 -38t-28.5 -5q-1 11 -4.5 23t-10 25.5t-10.5 21t-13 23t-11 18.5q-6 -6 -49 -48.5
t-59 -63.5q-6 -10 -26 5t-34 38.5t-5 34.5zM733 622q-25 24 -66 14q-12 -2 -29 -11q5 -2 13.5 -5.5t11.5 -4.5q48 -21 68 -15q17 6 2 22z" />
    <glyph glyph-name="Edieresis" unicode="&#xcb;" horiz-adv-x="674" 
d="M587 590q-38 -33 -80 -85q-13 -16 -24.5 -34.5t-18.5 -42t-3.5 -41.5t26 -31t64.5 -13q14 2 -3 -21q-12 -16 -18 -19q-45 -6 -83 -23t-62 -37.5t-43 -47.5t-28 -47.5t-16 -42.5q-13 -44 -2 -73t42 -32q58 -5 129.5 58t114.5 177q12 18 34 1q26 -19 19 -49q-1 -7 -5 -13
q-70 -112 -146 -168t-148 -54q-78 2 -123.5 42.5t-35.5 101.5q6 39 27.5 78t57 76t93 58.5t126.5 17.5q-80 15 -118 49t-34 76.5t32.5 87t77.5 86.5q4 2 10 8q-179 29 -292 -87q-80 -83 -93 -176q1 -3 -2 -8t-8 -1q-45 31 -51.5 73t19.5 84t78 81q166 127 403 72
q80 48 151 45q50 -2 99.5 -39.5t25.5 -80.5q-15 -26 -50.5 -36.5t-78.5 4.5q-31 11 -63 26zM803 804q-2 -11 -11.5 -23t-23.5 -25.5t-20 -21.5q-15 -15 -39.5 -1.5t-30.5 29.5q-8 24 12.5 66t23.5 61q0 12 32 -6q46 -25 56 -59q3 -10 1 -20zM622 804q-2 -11 -11.5 -23
t-23.5 -25.5t-20 -21.5q-15 -15 -39.5 -1.5t-30.5 29.5q-8 24 12.5 66t23.5 61q0 12 32 -6q46 -25 56 -59q3 -10 1 -20zM733 622q-25 24 -66 14q-12 -2 -29 -11q5 -2 13.5 -5.5t11.5 -4.5q48 -21 68 -15q17 6 2 22z" />
    <glyph glyph-name="Igrave" unicode="&#xcc;" horiz-adv-x="430" 
d="M468 455q-25 -51 -89 -159.5t-109 -195.5t-52 -138q1 -21 -40 -5q-44 18 -58 44l-3 10q4 40 39.5 116.5t98 193.5t84.5 161l6 13q41 83 45 122q0 3 2 5q3 32 -18.5 39t-57.5 -6q-95 -38 -168 -116t-85 -168q1 -3 -2 -7.5t-8 -1.5q-66 51 -49.5 114t95.5 124t189 97
q91 30 153.5 14.5t76.5 -77.5t-50 -179zM399 838q-9 10 7.5 33t39.5 38t29 5q3 -33 33 -85t31 -59q1 -14 -20 -35t-33 -9q-12 16 -43.5 57t-43.5 55z" />
    <glyph glyph-name="Iacute" unicode="&#xcd;" horiz-adv-x="430" 
d="M468 455q-25 -51 -89 -159.5t-109 -195.5t-52 -138q1 -21 -40 -5q-44 18 -58 44l-3 10q4 40 39.5 116.5t98 193.5t84.5 161l6 13q41 83 45 122q0 3 2 5q3 32 -18.5 39t-57.5 -6q-95 -38 -168 -116t-85 -168q1 -3 -2 -7.5t-8 -1.5q-66 51 -49.5 114t95.5 124t189 97
q91 30 153.5 14.5t76.5 -77.5t-50 -179zM426 838q-7 -8 -64.5 -47t-76.5 -64q-13 -11 -34 9.5t-19 34.5q0 10 23.5 34.5t57 57.5t48.5 53q6 10 26 -5t34 -38.5t5 -34.5z" />
    <glyph glyph-name="Icircumflex" unicode="&#xce;" horiz-adv-x="430" 
d="M468 455q-25 -51 -89 -159.5t-109 -195.5t-52 -138q1 -21 -40 -5q-44 18 -58 44l-3 10q4 40 39.5 116.5t98 193.5t84.5 161l6 13q41 83 45 122q0 3 2 5q3 32 -18.5 39t-57.5 -6q-95 -38 -168 -116t-85 -168q1 -3 -2 -7.5t-8 -1.5q-66 51 -49.5 114t95.5 124t189 97
q91 30 153.5 14.5t76.5 -77.5t-50 -179zM268 813q7 8 64.5 47t76.5 64q14 12 35 -11q21 23 35 11q75 -100 86 -112q9 -10 -7.5 -33t-39 -38t-28.5 -5q-1 11 -4.5 23t-10 25.5t-10.5 21t-13 23t-11 18.5q-6 -6 -49 -48.5t-59 -63.5q-6 -10 -26 5t-34 38.5t-5 34.5z" />
    <glyph glyph-name="Idieresis" unicode="&#xcf;" horiz-adv-x="430" 
d="M468 455q-25 -51 -89 -159.5t-109 -195.5t-52 -138q1 -21 -40 -5q-44 18 -58 44l-3 10q4 40 39.5 116.5t98 193.5t84.5 161l6 13q41 83 45 122q0 3 2 5q3 32 -18.5 39t-57.5 -6q-95 -38 -168 -116t-85 -168q1 -3 -2 -7.5t-8 -1.5q-66 51 -49.5 114t95.5 124t189 97
q91 30 153.5 14.5t76.5 -77.5t-50 -179zM574 804q-2 -11 -11.5 -23t-23.5 -25.5t-20 -21.5q-15 -15 -39.5 -1.5t-30.5 29.5q-8 24 12.5 66t23.5 61q0 12 32 -6q46 -25 56 -59q3 -10 1 -20zM393 804q-2 -11 -11.5 -23t-23.5 -25.5t-20 -21.5q-15 -15 -39.5 -1.5t-30.5 29.5
q-8 24 12.5 66t23.5 61q0 12 32 -6q46 -25 56 -59q3 -10 1 -20z" />
    <glyph glyph-name="Eth" unicode="&#xd0;" horiz-adv-x="743" 
d="M107 333q15 2 30.5 2.5t33 -1t30 -3t34 -4.5t31.5 -4q7 13 24 46t24.5 48.5t21 43t20.5 44t15.5 37t13 36t5.5 27.5q1 19 43 -1q49 -23 64 -54q5 -9 4 -17q-7 -55 -100 -214q36 6 54 12q15 8 15 -11q-2 -29 -24 -52q-6 -6 -12 -9q-41 -13 -77 -14q-85 -151 -94 -218
q1 -21 -40 -4q-44 18 -58 43q-1 2 -2 5q-12 -15 2 -34q9 -15 34 -24t56 -8q33 2 83 39.5t100 96t96 130.5t72 141t29 129t-35 94q-43 40 -126 40.5t-158 -32.5q-95 -38 -168 -116t-85 -168q1 -3 -2 -7.5t-8 -1.5q-66 51 -49.5 114t95.5 124t189 97q57 19 123.5 27t138 1
t121.5 -34q57 -31 77 -90.5t4 -130.5t-52 -148t-92.5 -147t-117 -124t-125.5 -81.5t-117 -17.5q-56 11 -96 40q-26 18 -37.5 45.5t-2.5 54.5q10 29 75 77q17 42 41 91q-86 5 -142 -12q-13 -6 -16 16q-5 35 16 64q9 13 21 17z" />
    <glyph glyph-name="Ntilde" unicode="&#xd1;" horiz-adv-x="732" 
d="M468 452q-11 -23 -130 -230q100 131 250 305q17 20 48.5 56.5t57.5 67t48 57.5v1q1 18 44 -3q48 -24 63 -54q5 -9 4 -17q-6 -47 -83 -186t-155 -284t-86 -205q1 -21 -40 -5q-44 18 -58 44q-3 5 -3 10q5 41 48 133t113.5 229t98.5 195q-20 -24 -62 -72
q-89 -105 -145 -173.5t-133 -171t-129 -185.5l-1 -2v-2q1 -21 -40 -5q-44 18 -58 44l-3 10q4 40 39.5 116.5t97.5 192.5t85 162l6 13q41 83 45 122q0 3 2 5q3 32 -18.5 39t-57.5 -6q-95 -38 -168 -116t-85 -168q1 -3 -2 -7.5t-8 -1.5q-66 51 -49.5 114t95.5 124t189 97
q91 30 153.5 14.5t76.5 -78t-50 -178.5v-1zM487 790q33 21 63.5 24t52.5 -4t43.5 -13.5t46 -2t50.5 26.5q12 12 13 -10q2 -24 -7 -29q-41 -32 -75 -42t-56 -4t-42 13t-41.5 4t-44.5 -25q-17 -17 -20 7q-5 29 11 49q3 4 6 6z" />
    <glyph glyph-name="Ograve" unicode="&#xd2;" horiz-adv-x="715" 
d="M587 590q-99 -85 -195 -255q-98 -173 -99 -270q-1 -61 44 -65q30 -1 72 30.5t81.5 82t74.5 112.5t55 120t18.5 106t-30.5 69q0 2 -2 2q-22 12 -11 35q13 22 35 10l16 -10q40 -33 49 -92.5t-9 -125.5t-56 -135.5t-86 -125t-104 -91t-105 -35.5q-135 0 -157 122
q-21 117 63 288q81 166 204 267q3 2 5 4q-180 29 -293 -87q-80 -83 -93 -176q1 -3 -2 -8t-8 -1q-45 31 -51.5 73t19.5 84t78 81q165 127 404 72q78 48 149 45q40 -2 76 -21q42 -20 55 -58q17 -44 -26 -71t-108 -2zM634 838q-9 10 7.5 33t39.5 38t29 5q3 -33 33 -85t31 -59
q1 -14 -20 -35t-33 -9q-12 16 -43.5 57t-43.5 55zM737 617q-26 30 -72 19q-13 -3 -27 -11l25 -10q48 -21 68 -15q13 4 6 17z" />
    <glyph glyph-name="Oacute" unicode="&#xd3;" horiz-adv-x="715" 
d="M587 590q-99 -85 -195 -255q-98 -173 -99 -270q-1 -61 44 -65q30 -1 72 30.5t81.5 82t74.5 112.5t55 120t18.5 106t-30.5 69q0 2 -2 2q-22 12 -11 35q13 22 35 10l16 -10q40 -33 49 -92.5t-9 -125.5t-56 -135.5t-86 -125t-104 -91t-105 -35.5q-135 0 -157 122
q-21 117 63 288q81 166 204 267q3 2 5 4q-180 29 -293 -87q-80 -83 -93 -176q1 -3 -2 -8t-8 -1q-45 31 -51.5 73t19.5 84t78 81q165 127 404 72q78 48 149 45q40 -2 76 -21q42 -20 55 -58q17 -44 -26 -71t-108 -2zM682 838q-7 -8 -64.5 -47t-76.5 -64q-13 -11 -34 9.5
t-19 34.5q0 10 23.5 34.5t57 57.5t48.5 53q6 10 26 -5t34 -38.5t5 -34.5zM737 617q-26 30 -72 19q-13 -3 -27 -11l25 -10q48 -21 68 -15q13 4 6 17z" />
    <glyph glyph-name="Ocircumflex" unicode="&#xd4;" horiz-adv-x="715" 
d="M587 590q-99 -85 -195 -255q-98 -173 -99 -270q-1 -61 44 -65q30 -1 72 30.5t81.5 82t74.5 112.5t55 120t18.5 106t-30.5 69q0 2 -2 2q-22 12 -11 35q13 22 35 10l16 -10q40 -33 49 -92.5t-9 -125.5t-56 -135.5t-86 -125t-104 -91t-105 -35.5q-135 0 -157 122
q-21 117 63 288q81 166 204 267q3 2 5 4q-180 29 -293 -87q-80 -83 -93 -176q1 -3 -2 -8t-8 -1q-45 31 -51.5 73t19.5 84t78 81q165 127 404 72q78 48 149 45q40 -2 76 -21q42 -20 55 -58q17 -44 -26 -71t-108 -2zM497 813q7 8 64.5 47t76.5 64q14 12 35 -11q21 23 35 11
q75 -100 86 -112q9 -10 -7.5 -33t-39 -38t-28.5 -5q-1 11 -4.5 23t-10 25.5t-10.5 21t-13 23t-11 18.5q-6 -6 -49 -48.5t-59 -63.5q-6 -10 -26 5t-34 38.5t-5 34.5zM737 617q-26 30 -72 19q-13 -3 -27 -11l25 -10q48 -21 68 -15q13 4 6 17z" />
    <glyph glyph-name="Otilde" unicode="&#xd5;" horiz-adv-x="715" 
d="M587 590q-99 -85 -195 -255q-98 -173 -99 -270q-1 -61 44 -65q30 -1 72 30.5t81.5 82t74.5 112.5t55 120t18.5 106t-30.5 69q0 2 -2 2q-22 12 -11 35q13 22 35 10l16 -10q40 -33 49 -92.5t-9 -125.5t-56 -135.5t-86 -125t-104 -91t-105 -35.5q-135 0 -157 122
q-21 117 63 288q81 166 204 267q3 2 5 4q-180 29 -293 -87q-80 -83 -93 -176q1 -3 -2 -8t-8 -1q-45 31 -51.5 73t19.5 84t78 81q165 127 404 72q78 48 149 45q40 -2 76 -21q42 -20 55 -58q17 -44 -26 -71t-108 -2zM233 790q33 21 63.5 24t52.5 -4t43.5 -13.5t46 -2
t50.5 26.5q12 12 13 -10q2 -24 -7 -29q-41 -32 -75 -42t-56 -4t-42 13t-41.5 4t-44.5 -25q-17 -17 -20 7q-5 29 11 49q3 4 6 6zM737 617q-26 30 -72 19q-13 -3 -27 -11l25 -10q48 -21 68 -15q13 4 6 17z" />
    <glyph glyph-name="Odieresis" unicode="&#xd6;" horiz-adv-x="715" 
d="M587 590q-99 -85 -195 -255q-98 -173 -99 -270q-1 -61 44 -65q30 -1 72 30.5t81.5 82t74.5 112.5t55 120t18.5 106t-30.5 69q0 2 -2 2q-22 12 -11 35q13 22 35 10l16 -10q40 -33 49 -92.5t-9 -125.5t-56 -135.5t-86 -125t-104 -91t-105 -35.5q-135 0 -157 122
q-21 117 63 288q81 166 204 267q3 2 5 4q-180 29 -293 -87q-80 -83 -93 -176q1 -3 -2 -8t-8 -1q-45 31 -51.5 73t19.5 84t78 81q165 127 404 72q78 48 149 45q40 -2 76 -21q42 -20 55 -58q17 -44 -26 -71t-108 -2zM802 804q-2 -11 -11.5 -23t-23.5 -25.5t-20 -21.5
q-15 -15 -39.5 -1.5t-30.5 29.5q-8 24 12.5 66t23.5 61q0 12 32 -6q46 -25 56 -59q3 -10 1 -20zM621 804q-2 -11 -11.5 -23t-23.5 -25.5t-20 -21.5q-15 -15 -39.5 -1.5t-30.5 29.5q-8 24 12.5 66t23.5 61q0 12 32 -6q46 -25 56 -59q3 -10 1 -20zM737 617q-26 30 -72 19
q-13 -3 -27 -11l25 -10q48 -21 68 -15q13 4 6 17z" />
    <glyph glyph-name="Oslash" unicode="&#xd8;" horiz-adv-x="558" 
d="M643 753q-3 -27 -36 -85q14 -14 20 -31q14 -36 -13.5 -62t-76.5 -22q-7 -10 -19 -30q27 -42 23 -100.5t-24.5 -122t-60 -126t-84 -112t-96.5 -80t-98 -30.5q-11 0 -31 2q-34 -66 -38 -97q1 -19 -14 -13q-19 7 -27 33q-3 7 -3 14q3 26 29 78q-63 30 -71.5 113t27 180.5
t101 199t142.5 171.5q98 89 203 83q27 -2 50 -10q36 70 39 94q0 19 22 10q25 -11 34 -37q3 -10 2 -20zM430 590q-106 -91 -205.5 -273.5t-88.5 -269.5q46 80 165.5 266t138.5 216q-10 12 -2 28q10 17 28 12l2 4zM480 466q-22 -33 -78.5 -116t-88 -129.5t-72.5 -110
t-68 -109.5q2 -1 7 -1q52 -2 128.5 83.5t129 199.5t42.5 183zM496 619l10 16q-10 -3 -25 -10zM580 617l-1 1h-1l-12 -19q6 0 8 1q13 4 6 17z" />
    <glyph glyph-name="Ugrave" unicode="&#xd9;" horiz-adv-x="773" 
d="M468 455q-25 -50 -94.5 -169t-96.5 -172q-13 -25 -19.5 -39t-14 -33t-6.5 -29.5t10 -13.5q7 2 14 6t14 11t10.5 11t11.5 14t10 13q110 133 312 429q4 6 38.5 56t51.5 77q12 17 47 73q3 9 3 17q1 19 42 -1q49 -22 65 -53q5 -10 4 -18q-6 -47 -81 -185.5t-152 -282.5
t-85 -204q1 -21 -40 -5q-43 18 -58 44q-3 5 -3 10q7 62 157 357q11 21 16 31q-85 -123 -159 -224q-117 -158 -156 -196q-22 -23 -53 -30.5t-61 5.5q-75 34 -38 152q15 55 41 105q18 35 60 114t64 122.5t43.5 94t24.5 75.5q0 3 2 5q3 32 -18.5 39t-57.5 -6q-95 -38 -168 -116
t-85 -168q1 -3 -2 -7.5t-8 -1.5q-66 51 -49.5 114t95.5 124t189 97q91 30 153.5 14.5t76.5 -77.5t-50 -179zM567 838q-9 10 7.5 33t39.5 38t29 5q3 -33 33 -85t31 -59q1 -14 -20 -35t-33 -9q-12 16 -43.5 57t-43.5 55z" />
    <glyph glyph-name="Uacute" unicode="&#xda;" horiz-adv-x="773" 
d="M468 455q-25 -50 -94.5 -169t-96.5 -172q-13 -25 -19.5 -39t-14 -33t-6.5 -29.5t10 -13.5q7 2 14 6t14 11t10.5 11t11.5 14t10 13q110 133 312 429q4 6 38.5 56t51.5 77q12 17 47 73q3 9 3 17q1 19 42 -1q49 -22 65 -53q5 -10 4 -18q-6 -47 -81 -185.5t-152 -282.5
t-85 -204q1 -21 -40 -5q-43 18 -58 44q-3 5 -3 10q7 62 157 357q11 21 16 31q-85 -123 -159 -224q-117 -158 -156 -196q-22 -23 -53 -30.5t-61 5.5q-75 34 -38 152q15 55 41 105q18 35 60 114t64 122.5t43.5 94t24.5 75.5q0 3 2 5q3 32 -18.5 39t-57.5 -6q-95 -38 -168 -116
t-85 -168q1 -3 -2 -7.5t-8 -1.5q-66 51 -49.5 114t95.5 124t189 97q91 30 153.5 14.5t76.5 -77.5t-50 -179zM724 838q-7 -8 -64.5 -47t-76.5 -64q-13 -11 -34 9.5t-19 34.5q0 10 23.5 34.5t57 57.5t48.5 53q6 10 26 -5t34 -38.5t5 -34.5z" />
    <glyph glyph-name="Ucircumflex" unicode="&#xdb;" horiz-adv-x="773" 
d="M468 455q-25 -50 -94.5 -169t-96.5 -172q-13 -25 -19.5 -39t-14 -33t-6.5 -29.5t10 -13.5q7 2 14 6t14 11t10.5 11t11.5 14t10 13q110 133 312 429q4 6 38.5 56t51.5 77q12 17 47 73q3 9 3 17q1 19 42 -1q49 -22 65 -53q5 -10 4 -18q-6 -47 -81 -185.5t-152 -282.5
t-85 -204q1 -21 -40 -5q-43 18 -58 44q-3 5 -3 10q7 62 157 357q11 21 16 31q-85 -123 -159 -224q-117 -158 -156 -196q-22 -23 -53 -30.5t-61 5.5q-75 34 -38 152q15 55 41 105q18 35 60 114t64 122.5t43.5 94t24.5 75.5q0 3 2 5q3 32 -18.5 39t-57.5 -6q-95 -38 -168 -116
t-85 -168q1 -3 -2 -7.5t-8 -1.5q-66 51 -49.5 114t95.5 124t189 97q91 30 153.5 14.5t76.5 -77.5t-50 -179zM488 813q7 8 64.5 47t76.5 64q14 12 35 -11q21 23 35 11q75 -100 86 -112q9 -10 -7.5 -33t-39 -38t-28.5 -5q-1 11 -4.5 23t-10 25.5t-10.5 21t-13 23t-11 18.5
q-6 -6 -49 -48.5t-59 -63.5q-6 -10 -26 5t-34 38.5t-5 34.5z" />
    <glyph glyph-name="Udieresis" unicode="&#xdc;" horiz-adv-x="773" 
d="M468 455q-25 -50 -94.5 -169t-96.5 -172q-13 -25 -19.5 -39t-14 -33t-6.5 -29.5t10 -13.5q7 2 14 6t14 11t10.5 11t11.5 14t10 13q110 133 312 429q4 6 38.5 56t51.5 77q12 17 47 73q3 9 3 17q1 19 42 -1q49 -22 65 -53q5 -10 4 -18q-6 -47 -81 -185.5t-152 -282.5
t-85 -204q1 -21 -40 -5q-43 18 -58 44q-3 5 -3 10q7 62 157 357q11 21 16 31q-85 -123 -159 -224q-117 -158 -156 -196q-22 -23 -53 -30.5t-61 5.5q-75 34 -38 152q15 55 41 105q18 35 60 114t64 122.5t43.5 94t24.5 75.5q0 3 2 5q3 32 -18.5 39t-57.5 -6q-95 -38 -168 -116
t-85 -168q1 -3 -2 -7.5t-8 -1.5q-66 51 -49.5 114t95.5 124t189 97q91 30 153.5 14.5t76.5 -77.5t-50 -179zM796 804q-2 -11 -11.5 -23t-23.5 -25.5t-20 -21.5q-15 -15 -39.5 -1.5t-30.5 29.5q-8 24 12.5 66t23.5 61q0 12 32 -6q46 -25 56 -59q3 -10 1 -20zM615 804
q-2 -11 -11.5 -23t-23.5 -25.5t-20 -21.5q-15 -15 -39.5 -1.5t-30.5 29.5q-8 24 12.5 66t23.5 61q0 12 32 -6q46 -25 56 -59q3 -10 1 -20z" />
    <glyph glyph-name="Yacute" unicode="&#xdd;" horiz-adv-x="775" 
d="M639 172l-31 -66q-35 -74 -45 -94q36 -4 75 -12q25 -6 19.5 -30.5t-30.5 -19.5q-42 14 -87 22q-11 -19 -33 -50h-1q-153 -233 -322 -170q-50 18 -54 71q-4 64 60 118q87 72 246 77q3 5 38 79t62 126q80 155 100 195q-68 -100 -147 -204q-96 -134 -149 -187
q-22 -22 -49.5 -29.5t-56.5 3.5q-8 3 -13 7q-16 7 -28 23.5t-19 41.5t-1.5 61.5t25.5 76.5q24 48 77.5 149t82 163t32.5 94q0 3 2 5q3 32 -18.5 39t-57.5 -6q-95 -38 -168 -116t-85 -168q1 -3 -2 -7.5t-8 -1.5q-66 51 -49.5 114t95.5 124t189 97q91 30 153.5 14.5
t76.5 -77.5t-50 -179q-25 -50 -94.5 -169t-96.5 -172q-38 -72 -4 -66q10 3 24 10q11 8 40 43q120 143 317 434q5 7 28.5 41t35.5 53q26 40 38 60q3 11 3 17q1 19 42 -1q49 -22 65 -53q5 -10 4 -18q-3 -26 -27 -79t-50.5 -102t-72 -131.5t-69.5 -127.5zM215 -205
q87 -15 201 187q-132 -7 -205 -76q-47 -45 -36 -81q8 -24 40 -30zM723 838q-7 -8 -64.5 -47t-76.5 -64q-13 -11 -34 9.5t-19 34.5q0 10 23.5 34.5t57 57.5t48.5 53q6 10 26 -5t34 -38.5t5 -34.5z" />
    <glyph glyph-name="Thorn" unicode="&#xde;" horiz-adv-x="682" 
d="M567 662q-9 -24 -110 -217l-38 -70q61 72 104 103q44 29 74 20q168 -51 -10 -317q-45 -66 -100 -114t-96 -61q-49 -15 -91 8t-45 44q-3 -7 -86 -163t-86 -164q-9 -19 -46 2q-42 25 -52 62q-5 18 1 33q2 7 47 92t101 189t66 124q4 9 14 27q36 68 140.5 270t115.5 229
q9 19 45 -2q42 -25 53 -62q4 -18 -1 -33zM272 94l-14 -29q4 3 12 1q70 4 177 149q80 108 108 186q14 38 -2 34t-59 -52q-73 -81 -213 -281q-3 -6 -9 -8z" />
    <glyph glyph-name="germandbls" unicode="&#xdf;" horiz-adv-x="428" 
d="M188 6q-42 -13 -73.5 5.5t-44.5 44.5q1 0 4 9t15 13q40 4 133 122q31 41 42.5 66t6.5 36.5t-14.5 18.5t-17 17.5t-3.5 27.5q6 28 54.5 62.5t55.5 42.5q26 28 33.5 51t-1 34.5t-28.5 12.5q-23 1 -64 -56t-91 -154.5t-93.5 -189t-92.5 -198t-67 -143.5q-9 -19 -47 3
q-41 24 -52 61q-5 17 2 33q18 42 127.5 256t160.5 319q40 84 98 122t124 21q76 -19 112 -83.5t-4 -126.5q-17 -24 -42.5 -33t-47.5 -7.5t-43 -6t-30 -28.5q-5 -11 8.5 -20t31.5 -20.5t30.5 -32t4 -65.5t-45.5 -109q-43 -74 -141 -105z" />
    <glyph glyph-name="agrave" unicode="&#xe0;" 
d="M362 436q-69 -4 -176 -148q-80 -108 -109 -187q-14 -38 2 -35q16 4 59 52q67 75 209 277q6 10 12 25q9 20 46 -2q41 -24 52 -61q5 -18 -1 -33q-9 -28 -72 -137q-64 -111 -47 -121q23 -11 148 156l4 4q16 11 33 -2q7 -7 8 -17t-5 -17q-80 -102 -122 -139q-70 -63 -115 -44
q-55 23 -67 62q-10 27 0 69q-64 -81 -112 -114q-44 -29 -74 -20q-169 51 10 317q45 66 100 114t96 61q62 19 113 -23q27 -21 23 -33q-1 -2 -3 -3q-4 -3 -12 -1zM257 638q-9 10 7.5 33t39.5 38t29 5q3 -33 33 -85t31 -59q1 -14 -20 -35t-33 -9q-12 16 -43.5 57t-43.5 55z" />
    <glyph glyph-name="aacute" unicode="&#xe1;" 
d="M362 436q-69 -4 -176 -148q-80 -108 -109 -187q-14 -38 2 -35q16 4 59 52q67 75 209 277q6 10 12 25q9 20 46 -2q41 -24 52 -61q5 -18 -1 -33q-9 -28 -72 -137q-64 -111 -47 -121q23 -11 148 156l4 4q16 11 33 -2q7 -7 8 -17t-5 -17q-80 -102 -122 -139q-70 -63 -115 -44
q-55 23 -67 62q-10 27 0 69q-64 -81 -112 -114q-44 -29 -74 -20q-169 51 10 317q45 66 100 114t96 61q62 19 113 -23q27 -21 23 -33q-1 -2 -3 -3q-4 -3 -12 -1zM433 638q-7 -8 -64.5 -47t-76.5 -64q-13 -11 -34 9.5t-19 34.5q0 10 23.5 34.5t57 57.5t48.5 53q6 10 26 -5
t34 -38.5t5 -34.5z" />
    <glyph glyph-name="acircumflex" unicode="&#xe2;" 
d="M362 436q-69 -4 -176 -148q-80 -108 -109 -187q-14 -38 2 -35q16 4 59 52q67 75 209 277q6 10 12 25q9 20 46 -2q41 -24 52 -61q5 -18 -1 -33q-9 -28 -72 -137q-64 -111 -47 -121q23 -11 148 156l4 4q16 11 33 -2q7 -7 8 -17t-5 -17q-80 -102 -122 -139q-70 -63 -115 -44
q-55 23 -67 62q-10 27 0 69q-64 -81 -112 -114q-44 -29 -74 -20q-169 51 10 317q45 66 100 114t96 61q62 19 113 -23q27 -21 23 -33q-1 -2 -3 -3q-4 -3 -12 -1zM158 613q7 8 64.5 47t76.5 64q14 12 35 -11q21 23 35 11q75 -100 86 -112q9 -10 -7.5 -33t-39 -38t-28.5 -5
q-1 11 -4.5 23t-10 25.5t-10.5 21t-13 23t-11 18.5q-6 -6 -49 -48.5t-59 -63.5q-6 -10 -26 5t-34 38.5t-5 34.5z" />
    <glyph glyph-name="atilde" unicode="&#xe3;" 
d="M362 436q-69 -4 -176 -148q-80 -108 -109 -187q-14 -38 2 -35q16 4 59 52q67 75 209 277q6 10 12 25q9 20 46 -2q41 -24 52 -61q5 -18 -1 -33q-9 -28 -72 -137q-64 -111 -47 -121q23 -11 148 156l4 4q16 11 33 -2q7 -7 8 -17t-5 -17q-80 -102 -122 -139q-70 -63 -115 -44
q-55 23 -67 62q-10 27 0 69q-64 -81 -112 -114q-44 -29 -74 -20q-169 51 10 317q45 66 100 114t96 61q62 19 113 -23q27 -21 23 -33q-1 -2 -3 -3q-4 -3 -12 -1zM195 590q33 21 63.5 24t52.5 -4t43.5 -13.5t46 -2t50.5 26.5q12 12 13 -10q2 -24 -7 -29q-41 -32 -75 -42
t-56 -4t-42 13t-41.5 4t-44.5 -25q-17 -17 -20 7q-5 29 11 49q3 4 6 6z" />
    <glyph glyph-name="adieresis" unicode="&#xe4;" 
d="M362 436q-69 -4 -176 -148q-80 -108 -109 -187q-14 -38 2 -35q16 4 59 52q67 75 209 277q6 10 12 25q9 20 46 -2q41 -24 52 -61q5 -18 -1 -33q-9 -28 -72 -137q-64 -111 -47 -121q23 -11 148 156l4 4q16 11 33 -2q7 -7 8 -17t-5 -17q-80 -102 -122 -139q-70 -63 -115 -44
q-55 23 -67 62q-10 27 0 69q-64 -81 -112 -114q-44 -29 -74 -20q-169 51 10 317q45 66 100 114t96 61q62 19 113 -23q27 -21 23 -33q-1 -2 -3 -3q-4 -3 -12 -1zM493 604q-2 -11 -11.5 -23t-23.5 -25.5t-20 -21.5q-15 -15 -39.5 -1.5t-30.5 29.5q-8 24 12.5 66t23.5 61
q0 12 32 -6q46 -25 56 -59q3 -10 1 -20zM312 604q-2 -11 -11.5 -23t-23.5 -25.5t-20 -21.5q-15 -15 -39.5 -1.5t-30.5 29.5q-8 24 12.5 66t23.5 61q0 12 32 -6q46 -25 56 -59q3 -10 1 -20z" />
    <glyph glyph-name="aring" unicode="&#xe5;" 
d="M356 722q12 3 31 -23q17 -24 3 -25q-6 0 -14 -4q30 -61 7.5 -110.5t-69.5 -64.5q41 -14 59 -42q7 -13 1 -16q-4 -3 -12 -1q-69 -4 -176 -148q-80 -108 -109 -187q-14 -38 2 -35q16 4 59 52q67 75 209 277q6 10 12 25q9 20 46 -2q41 -24 52 -61q5 -18 -1 -33
q-9 -28 -72 -137q-64 -111 -47 -121q23 -11 148 156l4 4q16 11 33 -2q7 -7 8 -17t-5 -17q-80 -102 -122 -139q-70 -63 -115 -44q-55 23 -67 62q-10 27 0 69q-64 -81 -112 -114q-44 -29 -74 -20q-169 51 10 317q45 66 100 114t96 61q6 2 18 4q-23 14 -33 50q-8 69 29 113
t101 59zM304 523q30 9 51 56t0 77q-23 -1 -53.5 -57t-8.5 -75q1 -1 2 -1t1.5 -0.5t1.5 -0.5h4z" />
    <glyph glyph-name="ae" unicode="&#xe6;" horiz-adv-x="618" 
d="M377 107q8 -44 48 -44q24 1 69 31.5t72 64.5q1 1 14 16t25.5 29.5t12.5 13.5q13 21 37 5q7 -6 8 -16t-5 -18q-4 -5 -11.5 -15.5t-10.5 -14.5q-84 -118 -182 -151t-156 18.5t-43 155.5q-9 -10 -34 -44q-64 -81 -112 -114q-44 -29 -74 -20q-169 51 10 317q45 66 100 114
t96 61q62 19 113 -23q27 -21 23 -33q-1 -2 -3 -3q-4 -3 -12 -1q-69 -4 -176 -148q-80 -108 -109 -187q-14 -38 2 -35q16 4 59 52q67 75 209 277q6 10 12 25q6 12 20 7q51 51 107 69q36 11 68.5 0t52.5 -31q21 38 24 48q2 16 24 -2q19 -15 24 -35q1 -14 -47 -90t-123 -163.5
t-132 -115.5zM590 434q-83 -14 -174 -184q-25 -46 -34 -84q91 69 208 268z" />
    <glyph glyph-name="ccedilla" unicode="&#xe7;" horiz-adv-x="356" 
d="M111 -80q58 -1 63 -38q4 -35 -39 -68q-65 -49 -159 -27q-15 2 -8 17q9 18 30 16q2 0 4 -1q22 -11 53 16q30 25 18 45q-4 5 -12 9q-37 2 -55 21q-10 9 1 15q14 6 26.5 16t17 15t18.5 24t16 22q-35 10 -58 37t-32 67t2 96t44 118q38 73 88.5 117.5t95.5 58.5q37 11 70 0
t53 -32q15 29 22 49q2 16 24 -2q19 -15 24 -35q1 -11 -23.5 -43.5t-59 -73t-45.5 -57.5q-10 -5 -16.5 15t-2.5 29q43 61 60 88q-42 -6 -88 -56t-88 -128q-32 -61 -38 -106t10 -64.5t47 -15.5q28 4 66 32.5t65 62.5q33 36 56 69q14 10 33 -5q16 -13 0 -34q-4 -4 -10.5 -14.5
t-10.5 -15.5q-103 -144 -221 -160q-10 -14 -17 -28t-14 -29.5t-10 -21.5z" />
    <glyph glyph-name="egrave" unicode="&#xe8;" horiz-adv-x="356" 
d="M115 107q8 -44 48 -44q24 1 69 31.5t72 64.5q1 1 14 16t25.5 29.5t12.5 13.5q13 21 37 5q7 -6 8 -16t-5 -18q-4 -5 -11.5 -15.5t-10.5 -14.5q-96 -134 -208 -158q-89 -20 -140 38q-59 66 -24 189q13 45 38 92q38 73 88.5 117.5t95.5 58.5q36 11 68.5 0t52.5 -31
q21 38 24 48q2 16 24 -2q19 -15 24 -35q1 -14 -47 -90t-123 -163.5t-132 -115.5zM299 638q-9 10 7.5 33t39.5 38t29 5q3 -33 33 -85t31 -59q1 -14 -20 -35t-33 -9q-12 16 -43.5 57t-43.5 55zM328 434q-83 -14 -174 -184q-25 -46 -34 -84q91 69 208 268z" />
    <glyph glyph-name="eacute" unicode="&#xe9;" horiz-adv-x="356" 
d="M115 107q8 -44 48 -44q24 1 69 31.5t72 64.5q1 1 14 16t25.5 29.5t12.5 13.5q13 21 37 5q7 -6 8 -16t-5 -18q-4 -5 -11.5 -15.5t-10.5 -14.5q-96 -134 -208 -158q-89 -20 -140 38q-59 66 -24 189q13 45 38 92q38 73 88.5 117.5t95.5 58.5q36 11 68.5 0t52.5 -31
q21 38 24 48q2 16 24 -2q19 -15 24 -35q1 -14 -47 -90t-123 -163.5t-132 -115.5zM436 638q-7 -8 -64.5 -47t-76.5 -64q-13 -11 -34 9.5t-19 34.5q0 10 23.5 34.5t57 57.5t48.5 53q6 10 26 -5t34 -38.5t5 -34.5zM328 434q-83 -14 -174 -184q-25 -46 -34 -84q91 69 208 268z
" />
    <glyph glyph-name="ecircumflex" unicode="&#xea;" horiz-adv-x="356" 
d="M115 107q8 -44 48 -44q24 1 69 31.5t72 64.5q1 1 14 16t25.5 29.5t12.5 13.5q13 21 37 5q7 -6 8 -16t-5 -18q-4 -5 -11.5 -15.5t-10.5 -14.5q-96 -134 -208 -158q-89 -20 -140 38q-59 66 -24 189q13 45 38 92q38 73 88.5 117.5t95.5 58.5q36 11 68.5 0t52.5 -31
q21 38 24 48q2 16 24 -2q19 -15 24 -35q1 -14 -47 -90t-123 -163.5t-132 -115.5zM171 613q7 8 64.5 47t76.5 64q14 12 35 -11q21 23 35 11q75 -100 86 -112q9 -10 -7.5 -33t-39 -38t-28.5 -5q-1 11 -4.5 23t-10 25.5t-10.5 21t-13 23t-11 18.5q-6 -6 -49 -48.5t-59 -63.5
q-6 -10 -26 5t-34 38.5t-5 34.5zM328 434q-83 -14 -174 -184q-25 -46 -34 -84q91 69 208 268z" />
    <glyph glyph-name="edieresis" unicode="&#xeb;" horiz-adv-x="356" 
d="M115 107q8 -44 48 -44q24 1 69 31.5t72 64.5q1 1 14 16t25.5 29.5t12.5 13.5q13 21 37 5q7 -6 8 -16t-5 -18q-4 -5 -11.5 -15.5t-10.5 -14.5q-96 -134 -208 -158q-89 -20 -140 38q-59 66 -24 189q13 45 38 92q38 73 88.5 117.5t95.5 58.5q36 11 68.5 0t52.5 -31
q21 38 24 48q2 16 24 -2q19 -15 24 -35q1 -14 -47 -90t-123 -163.5t-132 -115.5zM493 604q-2 -11 -11.5 -23t-23.5 -25.5t-20 -21.5q-15 -15 -39.5 -1.5t-30.5 29.5q-8 24 12.5 66t23.5 61q0 12 32 -6q46 -25 56 -59q3 -10 1 -20zM312 604q-2 -11 -11.5 -23t-23.5 -25.5
t-20 -21.5q-15 -15 -39.5 -1.5t-30.5 29.5q-8 24 12.5 66t23.5 61q0 12 32 -6q46 -25 56 -59q3 -10 1 -20zM328 434q-83 -14 -174 -184q-25 -46 -34 -84q91 69 208 268z" />
    <glyph glyph-name="igrave" unicode="&#xec;" horiz-adv-x="219" 
d="M226 395q-6 -18 -51.5 -101t-78.5 -152.5t-22 -75.5q8 -4 28.5 14.5t47 50t42.5 52t30 38.5q1 3 4 4q6 5 16 4t16 -6q8 -6 9 -16.5t-5 -17.5q-74 -93 -104 -122q-83 -82 -133 -61q-56 24 -68 62q-19 58 53 193l59 111q-11 3 -25.5 17t-20.5 24q-10 24 11.5 79.5
t23.5 71.5q0 19 51 -12q67 -40 102 -93q24 -38 15 -64zM168 638q-9 10 7.5 33t39.5 38t29 5q3 -33 33 -85t31 -59q1 -14 -20 -35t-33 -9q-12 16 -43.5 57t-43.5 55z" />
    <glyph glyph-name="iacute" unicode="&#xed;" horiz-adv-x="219" 
d="M226 395q-6 -18 -51.5 -101t-78.5 -152.5t-22 -75.5q8 -4 28.5 14.5t47 50t42.5 52t30 38.5q1 3 4 4q6 5 16 4t16 -6q8 -6 9 -16.5t-5 -17.5q-74 -93 -104 -122q-83 -82 -133 -61q-56 24 -68 62q-19 58 53 193l59 111q-11 3 -25.5 17t-20.5 24q-10 24 11.5 79.5
t23.5 71.5q0 19 51 -12q67 -40 102 -93q24 -38 15 -64zM135 638q-7 -8 -64.5 -47t-76.5 -64q-13 -11 -34 9.5t-19 34.5q0 10 23.5 34.5t57 57.5t48.5 53q6 10 26 -5t34 -38.5t5 -34.5z" />
    <glyph glyph-name="icircumflex" unicode="&#xee;" horiz-adv-x="219" 
d="M226 395q-6 -18 -51.5 -101t-78.5 -152.5t-22 -75.5q8 -4 28.5 14.5t47 50t42.5 52t30 38.5q1 3 4 4q6 5 16 4t16 -6q8 -6 9 -16.5t-5 -17.5q-74 -93 -104 -122q-83 -82 -133 -61q-56 24 -68 62q-19 58 53 193l59 111q-11 3 -25.5 17t-20.5 24q-10 24 11.5 79.5
t23.5 71.5q0 19 51 -12q67 -40 102 -93q24 -38 15 -64zM-63 613q7 8 64.5 47t76.5 64q14 12 35 -11q21 23 35 11q75 -100 86 -112q9 -10 -7.5 -33t-39 -38t-28.5 -5q-1 11 -4.5 23t-10 25.5t-10.5 21t-13 23t-11 18.5q-6 -6 -49 -48.5t-59 -63.5q-6 -10 -26 5t-34 38.5
t-5 34.5z" />
    <glyph glyph-name="idieresis" unicode="&#xef;" horiz-adv-x="219" 
d="M226 395q-6 -18 -51.5 -101t-78.5 -152.5t-22 -75.5q8 -4 28.5 14.5t47 50t42.5 52t30 38.5q1 3 4 4q6 5 16 4t16 -6q8 -6 9 -16.5t-5 -17.5q-74 -93 -104 -122q-83 -82 -133 -61q-56 24 -68 62q-19 58 53 193l59 111q-11 3 -25.5 17t-20.5 24q-10 24 11.5 79.5
t23.5 71.5q0 19 51 -12q67 -40 102 -93q24 -38 15 -64zM67 604q-2 -11 -11.5 -23t-23.5 -25.5t-20 -21.5q-15 -15 -39.5 -1.5t-30.5 29.5q-8 24 12.5 66t23.5 61q0 12 32 -6q46 -25 56 -59q3 -10 1 -20zM248 604q-2 -11 -11.5 -23t-23.5 -25.5t-20 -21.5q-15 -15 -39.5 -1.5
t-30.5 29.5q-8 24 12.5 66t23.5 61q0 12 32 -6q46 -25 56 -59q3 -10 1 -20z" />
    <glyph glyph-name="ntilde" unicode="&#xf1;" horiz-adv-x="478" 
d="M231 397l-15 -25q61 79 99 106q44 29 74 20q12 -3 30 -12q29 -14 50 -43t11 -57q-6 -18 -50.5 -99.5t-77 -148.5t-20.5 -73q23 -11 148 156l3 3q16 13 33 -2q8 -6 9 -16t-6 -18q-75 -94 -108 -126q-80 -78 -128 -57q-56 24 -68 62q-19 60 53 193q6 12 23.5 44.5t33 62
t27.5 53.5q5 27 -20 9q-17 -13 -46 -45q-33 -37 -80.5 -106t-100.5 -152.5t-73 -112.5l-2 -4q-6 -10 -23 -7q-2 0 -6 2q-30 10 -54.5 41t-13.5 61q4 13 64 127q4 9 14 27q112 210 122 234q9 19 48 -3q43 -25 53 -60q6 -19 -3 -34zM204 590q33 21 63.5 24t52.5 -4t43.5 -13.5
t46 -2t50.5 26.5q12 12 13 -10q2 -24 -7 -29q-41 -32 -75 -42t-56 -4t-42 13t-41.5 4t-44.5 -25q-17 -17 -20 7q-5 29 11 49q3 4 6 6z" />
    <glyph glyph-name="ograve" unicode="&#xf2;" horiz-adv-x="401" 
d="M354 434q-55 -3 -128.5 -94t-115.5 -181.5t-21 -93.5q32 -5 93 75t107 171q-13 42 11 82.5t56 29.5q38 -15 6 -81l-4 -7v-1l-9 -23l2 -2q36 -21 98 14q10 5 22 13q20 13 35 -7q13 -20 -7 -35q-92 -56 -149 -39q-16 6 -23 10q-35 -68 -80 -130t-101 -104t-98 -29
q-103 32 -75 160q23 107 116 219q79 94 144 114q63 19 114 -24q27 -22 21 -34q0 -1 -2 -2q-4 -1 -12 -1zM251 638q-9 10 7.5 33t39.5 38t29 5q3 -33 33 -85t31 -59q1 -14 -20 -35t-33 -9q-12 16 -43.5 57t-43.5 55z" />
    <glyph glyph-name="oacute" unicode="&#xf3;" horiz-adv-x="401" 
d="M354 434q-55 -3 -128.5 -94t-115.5 -181.5t-21 -93.5q32 -5 93 75t107 171q-13 42 11 82.5t56 29.5q38 -15 6 -81l-4 -7v-1l-9 -23l2 -2q36 -21 98 14q10 5 22 13q20 13 35 -7q13 -20 -7 -35q-92 -56 -149 -39q-16 6 -23 10q-35 -68 -80 -130t-101 -104t-98 -29
q-103 32 -75 160q23 107 116 219q79 94 144 114q63 19 114 -24q27 -22 21 -34q0 -1 -2 -2q-4 -1 -12 -1zM444 638q-7 -8 -64.5 -47t-76.5 -64q-13 -11 -34 9.5t-19 34.5q0 10 23.5 34.5t57 57.5t48.5 53q6 10 26 -5t34 -38.5t5 -34.5z" />
    <glyph glyph-name="ocircumflex" unicode="&#xf4;" horiz-adv-x="401" 
d="M354 434q-55 -3 -128.5 -94t-115.5 -181.5t-21 -93.5q32 -5 93 75t107 171q-13 42 11 82.5t56 29.5q38 -15 6 -81l-4 -7v-1l-9 -23l2 -2q36 -21 98 14q10 5 22 13q20 13 35 -7q13 -20 -7 -35q-92 -56 -149 -39q-16 6 -23 10q-35 -68 -80 -130t-101 -104t-98 -29
q-103 32 -75 160q23 107 116 219q79 94 144 114q63 19 114 -24q27 -22 21 -34q0 -1 -2 -2q-4 -1 -12 -1zM162 613q7 8 64.5 47t76.5 64q14 12 35 -11q21 23 35 11q75 -100 86 -112q9 -10 -7.5 -33t-39 -38t-28.5 -5q-1 11 -4.5 23t-10 25.5t-10.5 21t-13 23t-11 18.5
q-6 -6 -49 -48.5t-59 -63.5q-6 -10 -26 5t-34 38.5t-5 34.5z" />
    <glyph glyph-name="otilde" unicode="&#xf5;" horiz-adv-x="401" 
d="M354 434q-55 -3 -128.5 -94t-115.5 -181.5t-21 -93.5q32 -5 93 75t107 171q-13 42 11 82.5t56 29.5q38 -15 6 -81l-4 -7v-1l-9 -23l2 -2q36 -21 98 14q10 5 22 13q20 13 35 -7q13 -20 -7 -35q-92 -56 -149 -39q-16 6 -23 10q-35 -68 -80 -130t-101 -104t-98 -29
q-103 32 -75 160q23 107 116 219q79 94 144 114q63 19 114 -24q27 -22 21 -34q0 -1 -2 -2q-4 -1 -12 -1zM193 590q33 21 63.5 24t52.5 -4t43.5 -13.5t46 -2t50.5 26.5q12 12 13 -10q2 -24 -7 -29q-41 -32 -75 -42t-56 -4t-42 13t-41.5 4t-44.5 -25q-17 -17 -20 7
q-5 29 11 49q3 4 6 6z" />
    <glyph glyph-name="odieresis" unicode="&#xf6;" horiz-adv-x="401" 
d="M354 434q-55 -3 -128.5 -94t-115.5 -181.5t-21 -93.5q32 -5 93 75t107 171q-13 42 11 82.5t56 29.5q38 -15 6 -81l-4 -7v-1l-9 -23l2 -2q36 -21 98 14q10 5 22 13q20 13 35 -7q13 -20 -7 -35q-92 -56 -149 -39q-16 6 -23 10q-35 -68 -80 -130t-101 -104t-98 -29
q-103 32 -75 160q23 107 116 219q79 94 144 114q63 19 114 -24q27 -22 21 -34q0 -1 -2 -2q-4 -1 -12 -1zM487 604q-2 -11 -11.5 -23t-23.5 -25.5t-20 -21.5q-15 -15 -39.5 -1.5t-30.5 29.5q-8 24 12.5 66t23.5 61q0 12 32 -6q46 -25 56 -59q3 -10 1 -20zM306 604
q-2 -11 -11.5 -23t-23.5 -25.5t-20 -21.5q-15 -15 -39.5 -1.5t-30.5 29.5q-8 24 12.5 66t23.5 61q0 12 32 -6q46 -25 56 -59q3 -10 1 -20z" />
    <glyph glyph-name="divide" unicode="&#xf7;" horiz-adv-x="455" 
d="M97 270q43 6 108.5 -3t112.5 -14t127 14q16 8 15 -11q-2 -28 -24 -51q-6 -6 -12 -9q-59 -19 -177 -13t-171 -10q-13 -6 -16 15q-5 34 15 64q10 14 22 18zM273 83q-2 -11 -11.5 -23t-23.5 -25.5t-20 -20.5q-15 -16 -39.5 -2.5t-30.5 29.5q-8 24 12.5 66t23.5 61
q0 13 32 -5q45 -25 55 -59q4 -11 2 -21zM407 361q-3 -15 -27.5 -40.5t-26.5 -28.5q-15 -16 -39.5 -2.5t-30.5 29.5q-8 24 12 66t23 61q0 13 32 -5q45 -25 55 -59q4 -11 2 -21z" />
    <glyph glyph-name="oslash" unicode="&#xf8;" horiz-adv-x="437" 
d="M510 570q-5 -30 -74 -126q2 -6 4 -20q6 -54 -21.5 -129.5t-75.5 -147.5q0 -1 -1 -1q-62 -98 -129.5 -139.5t-123.5 -29.5q-25 -46 -28 -66q1 -14 -11 -14q-16 0 -24 19q-3 5 -3 11q3 21 29 66q-44 30 -52 100q-8 72 26 156t90.5 153t126 120.5t130.5 66.5
q11 3 32.5 -14.5t36.5 -39.5q33 52 36 74q0 16 13 7q19 -13 19 -40v-6zM324 217q52 86 64 162q-11 -15 -112.5 -145.5t-142.5 -189.5q2 -3 5 -5t11 -4q8 0 12 2q24 7 47.5 25.5t47 50.5t35 50t33.5 54zM123 116q-1 -7 -1 -19q39 56 130.5 176t127.5 171l-9 9
q-81 -60 -157 -154t-91 -183z" />
    <glyph glyph-name="ugrave" unicode="&#xf9;" horiz-adv-x="456" 
d="M462 395q-6 -18 -51.5 -101.5t-79 -152.5t-21.5 -75q9 -5 39.5 26t57 63.5t46.5 58.5q4 5 5 7l3 4q15 12 33 -2q8 -6 9 -16t-6 -18q-75 -94 -108 -126q-80 -78 -128 -57q-56 24 -68 62q-6 18 -3 46q-116 -129 -165 -108q-56 24 -68 62q-19 60 53 193q104 195 118 231
q10 19 47 -3q42 -25 52 -63q4 -16 -1 -31q-6 -18 -51.5 -101t-78.5 -152.5t-22 -75.5q21 -10 178 206q100 191 112 220q10 19 47 -3q42 -25 52 -63q4 -16 -1 -31zM277 638q-9 10 7.5 33t39.5 38t29 5q3 -33 33 -85t31 -59q1 -14 -20 -35t-33 -9q-12 16 -43.5 57t-43.5 55z
" />
    <glyph glyph-name="uacute" unicode="&#xfa;" horiz-adv-x="456" 
d="M462 395q-6 -18 -51.5 -101.5t-79 -152.5t-21.5 -75q9 -5 39.5 26t57 63.5t46.5 58.5q4 5 5 7l3 4q15 12 33 -2q8 -6 9 -16t-6 -18q-75 -94 -108 -126q-80 -78 -128 -57q-56 24 -68 62q-6 18 -3 46q-116 -129 -165 -108q-56 24 -68 62q-19 60 53 193q104 195 118 231
q10 19 47 -3q42 -25 52 -63q4 -16 -1 -31q-6 -18 -51.5 -101t-78.5 -152.5t-22 -75.5q21 -10 178 206q100 191 112 220q10 19 47 -3q42 -25 52 -63q4 -16 -1 -31zM428 638q-7 -8 -64.5 -47t-76.5 -64q-13 -11 -34 9.5t-19 34.5q0 10 23.5 34.5t57 57.5t48.5 53q6 10 26 -5
t34 -38.5t5 -34.5z" />
    <glyph glyph-name="ucircumflex" unicode="&#xfb;" horiz-adv-x="456" 
d="M462 395q-6 -18 -51.5 -101.5t-79 -152.5t-21.5 -75q9 -5 39.5 26t57 63.5t46.5 58.5q4 5 5 7l3 4q15 12 33 -2q8 -6 9 -16t-6 -18q-75 -94 -108 -126q-80 -78 -128 -57q-56 24 -68 62q-6 18 -3 46q-116 -129 -165 -108q-56 24 -68 62q-19 60 53 193q104 195 118 231
q10 19 47 -3q42 -25 52 -63q4 -16 -1 -31q-6 -18 -51.5 -101t-78.5 -152.5t-22 -75.5q21 -10 178 206q100 191 112 220q10 19 47 -3q42 -25 52 -63q4 -16 -1 -31zM177 613q7 8 64.5 47t76.5 64q14 12 35 -11q21 23 35 11q75 -100 86 -112q9 -10 -7.5 -33t-39 -38t-28.5 -5
q-1 11 -4.5 23t-10 25.5t-10.5 21t-13 23t-11 18.5q-6 -6 -49 -48.5t-59 -63.5q-6 -10 -26 5t-34 38.5t-5 34.5z" />
    <glyph glyph-name="udieresis" unicode="&#xfc;" horiz-adv-x="456" 
d="M462 395q-6 -18 -51.5 -101.5t-79 -152.5t-21.5 -75q9 -5 39.5 26t57 63.5t46.5 58.5q4 5 5 7l3 4q15 12 33 -2q8 -6 9 -16t-6 -18q-75 -94 -108 -126q-80 -78 -128 -57q-56 24 -68 62q-6 18 -3 46q-116 -129 -165 -108q-56 24 -68 62q-19 60 53 193q104 195 118 231
q10 19 47 -3q42 -25 52 -63q4 -16 -1 -31q-6 -18 -51.5 -101t-78.5 -152.5t-22 -75.5q21 -10 178 206q100 191 112 220q10 19 47 -3q42 -25 52 -63q4 -16 -1 -31zM477 604q-2 -11 -11.5 -23t-23.5 -25.5t-20 -21.5q-15 -15 -39.5 -1.5t-30.5 29.5q-8 24 12.5 66t23.5 61
q0 12 32 -6q46 -25 56 -59q3 -10 1 -20zM296 604q-2 -11 -11.5 -23t-23.5 -25.5t-20 -21.5q-15 -15 -39.5 -1.5t-30.5 29.5q-8 24 12.5 66t23.5 61q0 12 32 -6q46 -25 56 -59q3 -10 1 -20z" />
    <glyph glyph-name="yacute" unicode="&#xfd;" horiz-adv-x="456" 
d="M226 395q-6 -18 -51.5 -101.5t-79 -152.5t-21.5 -75q19 -10 175 203q110 197 120 222q10 20 48 -3q42 -24 52 -59q5 -19 -3 -34q-68 -133 -157 -298q80 42 119 87q7 8 24 32q13 21 35 11q20 -10 14 -28q-1 -5 -5 -10l-27 -35q-7 -9 -15 -17t-19 -16.5t-18.5 -14
t-23 -14.5t-21.5 -13t-25.5 -14t-24 -12t-27 -13t-25.5 -13q-1 -2 -5 -9.5t-6 -10.5q-50 -92 -74 -139q-73 -136 -131 -152q-53 -15 -89 21q-32 33 -35 66.5t22.5 66t61 60t89.5 59.5q22 40 39 76q-77 -75 -117 -59q-56 24 -68 62q-19 60 53 193q104 195 118 231
q10 19 47 -3q42 -25 52 -63q4 -16 -1 -31zM435 638q-7 -8 -64.5 -47t-76.5 -64q-13 -11 -34 9.5t-19 34.5q0 10 23.5 34.5t57 57.5t48.5 53q6 10 26 -5t34 -38.5t5 -34.5zM41 -117l6 9q-82 -62 -63 -80q7 -7 33 31l7 11z" />
    <glyph glyph-name="thorn" unicode="&#xfe;" horiz-adv-x="489" 
d="M363 662q-9 -24 -110 -217l-38 -70q61 72 104 103q44 29 74 20q168 -51 -10 -317q-45 -66 -100 -114t-96 -61q-49 -15 -91 8t-45 44q-3 -7 -53 -100t-53 -101q-9 -19 -46 2q-42 25 -52 62q-5 18 1 33q2 7 31 61t67 125t50 93q4 9 14 27q36 68 140.5 270t115.5 229
q9 19 45 -2q42 -25 53 -62q4 -18 -1 -33zM68 94l-14 -29q4 3 12 1q70 4 177 149q80 108 108 186q14 38 -2 34t-59 -52q-73 -81 -213 -281q-3 -6 -9 -8z" />
    <glyph glyph-name="ydieresis" unicode="&#xff;" horiz-adv-x="456" 
d="M226 395q-6 -18 -51.5 -101.5t-79 -152.5t-21.5 -75q19 -10 175 203q110 197 120 222q10 20 48 -3q42 -24 52 -59q5 -19 -3 -34q-68 -133 -157 -298q80 42 119 87q7 8 24 32q13 21 35 11q20 -10 14 -28q-1 -5 -5 -10l-27 -35q-7 -9 -15 -17t-19 -16.5t-18.5 -14
t-23 -14.5t-21.5 -13t-25.5 -14t-24 -12t-27 -13t-25.5 -13q-1 -2 -5 -9.5t-6 -10.5q-50 -92 -74 -139q-73 -136 -131 -152q-53 -15 -89 21q-32 33 -35 66.5t22.5 66t61 60t89.5 59.5q22 40 39 76q-77 -75 -117 -59q-56 24 -68 62q-19 60 53 193q104 195 118 231
q10 19 47 -3q42 -25 52 -63q4 -16 -1 -31zM41 -117l6 9q-82 -62 -63 -80q7 -7 33 31l7 11zM292 604q-2 -11 -11.5 -23t-23.5 -25.5t-20 -21.5q-15 -15 -39.5 -1.5t-30.5 29.5q-8 24 12.5 66t23.5 61q0 12 32 -6q46 -25 56 -59q3 -10 1 -20zM473 604q-2 -11 -11.5 -23
t-23.5 -25.5t-20 -21.5q-15 -15 -39.5 -1.5t-30.5 29.5q-8 24 12.5 66t23.5 61q0 12 32 -6q46 -25 56 -59q3 -10 1 -20z" />
    <glyph glyph-name="dotlessi" unicode="&#x131;" horiz-adv-x="219" 
d="M226 395q-6 -18 -51.5 -101t-78.5 -152.5t-22 -75.5q8 -4 28.5 14.5t47 50t42.5 52t30 38.5q1 3 4 4q6 5 16 4t16 -6q8 -6 9 -16.5t-5 -17.5q-74 -93 -104 -122q-83 -82 -133 -61q-56 24 -68 62q-19 58 53 193l59 111q-11 3 -25.5 17t-20.5 24q-10 24 11.5 79.5
t23.5 71.5q0 19 51 -12q67 -40 102 -93q24 -38 15 -64z" />
    <glyph glyph-name="oe" unicode="&#x153;" horiz-adv-x="568" 
d="M327 107q8 -44 48 -44q24 1 69 31.5t72 64.5q1 1 14 16t25.5 29.5t12.5 13.5q13 21 37 5q7 -6 8 -16t-5 -18q-4 -5 -11.5 -15.5t-10.5 -14.5q-54 -75 -117 -117t-114.5 -45.5t-91.5 22.5t-54 77q-96 -114 -162 -94q-103 32 -75 160q23 107 116 219q79 94 144 114
q41 12 77 -2.5t52 -37.5q37 29 75 41q36 11 68.5 0t52.5 -31q21 38 24 48q2 16 24 -2q19 -15 24 -35q1 -14 -47 -90t-123 -163.5t-132 -115.5zM88 65q37 -5 115 105q6 70 49 150q18 37 46 73q11 17 21 23l12 13q-55 -19 -122.5 -108.5t-104 -171t-16.5 -84.5zM540 434
q-83 -14 -174 -184q-25 -46 -34 -84q91 69 208 268z" />
    <glyph glyph-name="Scaron" unicode="&#x160;" horiz-adv-x="670" 
d="M555 579q-56 -55 -102 -120q-45 -65 -64.5 -112t-12 -81t47.5 -50q14 -5 36.5 -9.5t38 -7t35 -9.5t26.5 -18t12 -32t-7 -52q-22 -73 -93 -116.5t-140 -24.5q-52 14 -73.5 49.5t1.5 93.5q15 42 37 68q6 6 15.5 -3.5t15.5 -23t3 -17.5q-24 -27 -33.5 -62t12.5 -45
q12 -4 43 20.5t56 56.5q13 16 19.5 29t7.5 26.5t-11 24t-37 16.5q-76 19 -105.5 72t-14.5 122t66 145q35 53 79 94l-5 2q-152 10 -251 -93q-80 -82 -93 -175q1 -3 -2 -8t-8 -1q-45 31 -51.5 73t19.5 84t78 81q151 116 362 80q63 49 148 58q34 5 61 -1q62 -8 96 -40t21 -77
q-5 -18 -13.5 -30.5t-21 -19t-24 -10t-28.5 -1.5t-29.5 4t-31.5 8.5t-29.5 10t-29.5 11.5t-25 10h-1zM672 834q-7 -8 -64.5 -47t-76.5 -64q-14 -11 -35 11q-21 -22 -35 -11q-75 100 -86 112q-9 10 7.5 33t39 38t28.5 5q1 -11 4.5 -23t10 -25.5t10.5 -21t13 -23t11 -18.5
q6 6 49 48.5t59 63.5q6 10 26 -5t34 -38.5t5 -34.5zM604 616q123 -45 133 -25q7 15 -9 31.5t-47.5 18.5t-76.5 -25z" />
    <glyph glyph-name="scaron" unicode="&#x161;" horiz-adv-x="365" 
d="M311 434q-67 -10 -139 -127q-46 -73 -37 -102t78 -25q45 2 65.5 -27t-1.5 -63q-25 -38 -85 -65.5t-138 -16.5h-1q-24 3 -43 21q-17 17 -21 34t5.5 33.5t18.5 26.5t24 24q11 10 22 2.5t13.5 -20.5t-0.5 -19q-7 -3 -19 -16t-12 -18q-1 -8 5 -12t17 -6q34 1 71 34t13 47
q-9 5 -26 6q-26 2 -45.5 6.5t-40.5 20t-26.5 39.5t6.5 69t48 105q49 81 142 111q38 11 71 0t52 -32q13 22 22 49q2 15 24 -1q20 -16 25 -36q1 -11 -23.5 -43.5t-59 -73t-45.5 -57.5q-11 -5 -17 15t-3 29q38 51 60 88zM457 634q-7 -8 -64.5 -47t-76.5 -64q-14 -11 -35 11
q-21 -22 -35 -11q-75 100 -86 112q-9 10 7.5 33t39 38t28.5 5q1 -11 4.5 -23t10 -25.5t10.5 -21t13 -23t11 -18.5q6 6 49 48.5t59 63.5q6 10 26 -5t34 -38.5t5 -34.5z" />
    <glyph glyph-name="Ydieresis" unicode="&#x178;" horiz-adv-x="775" 
d="M639 172l-31 -66q-35 -74 -45 -94q36 -4 75 -12q25 -6 19.5 -30.5t-30.5 -19.5q-42 14 -87 22q-11 -19 -33 -50h-1q-153 -233 -322 -170q-50 18 -54 71q-4 64 60 118q87 72 246 77q3 5 38 79t62 126q80 155 100 195q-68 -100 -147 -204q-96 -134 -149 -187
q-22 -22 -49.5 -29.5t-56.5 3.5q-8 3 -13 7q-16 7 -28 23.5t-19 41.5t-1.5 61.5t25.5 76.5q24 48 77.5 149t82 163t32.5 94q0 3 2 5q3 32 -18.5 39t-57.5 -6q-95 -38 -168 -116t-85 -168q1 -3 -2 -7.5t-8 -1.5q-66 51 -49.5 114t95.5 124t189 97q91 30 153.5 14.5
t76.5 -77.5t-50 -179q-25 -50 -94.5 -169t-96.5 -172q-38 -72 -4 -66q10 3 24 10q11 8 40 43q120 143 317 434q5 7 28.5 41t35.5 53q26 40 38 60q3 11 3 17q1 19 42 -1q49 -22 65 -53q5 -10 4 -18q-3 -26 -27 -79t-50.5 -102t-72 -131.5t-69.5 -127.5zM215 -205
q87 -15 201 187q-132 -7 -205 -76q-47 -45 -36 -81q8 -24 40 -30zM589 804q-2 -11 -11.5 -23t-23.5 -25.5t-20 -21.5q-15 -15 -39.5 -1.5t-30.5 29.5q-8 24 12.5 66t23.5 61q0 12 32 -6q46 -25 56 -59q3 -10 1 -20zM770 804q-2 -11 -11.5 -23t-23.5 -25.5t-20 -21.5
q-15 -15 -39.5 -1.5t-30.5 29.5q-8 24 12.5 66t23.5 61q0 12 32 -6q46 -25 56 -59q3 -10 1 -20z" />
    <glyph glyph-name="Zcaron" unicode="&#x17d;" horiz-adv-x="504" 
d="M123 -51q-10 -14 -54 9.5t-45 45.5q4 37 70 122t145.5 170t161.5 180t110 144q-31 12 -52.5 19t-53 12.5t-67 3.5t-76.5 -11q-76 -17 -129 -87.5t-67 -188.5q1 -3 -2.5 -7.5t-8.5 -1.5q-32 20 -46 57t-4.5 80.5t36.5 86t81 77t125 49.5q60 12 133.5 3.5t124 -22.5
t111.5 -15t96 26q3 2 6.5 5t5 4t3 -0.5t4.5 -5.5q31 -48 -3.5 -93t-91.5 -33q-13 -38 -81 -115.5t-146 -154t-157.5 -164.5t-108.5 -141q72 32 157 38t130 -18q33 -18 40.5 -47t-13.5 -51q-3 -4 -5 -5t-3.5 0t-4.5 4.5t-6 5.5q-38 40 -151 45.5t-164 -26.5zM735 840
q-7 -8 -64.5 -47t-76.5 -64q-14 -11 -35 11q-21 -22 -35 -11q-75 100 -86 112q-9 10 7.5 33t39 38t28.5 5q1 -11 4.5 -23t10 -25.5t10.5 -21t13 -23t11 -18.5q6 6 49 48.5t59 63.5q6 10 26 -5t34 -38.5t5 -34.5z" />
    <glyph glyph-name="zcaron" unicode="&#x17e;" horiz-adv-x="499" 
d="M429 494l-1 -1q10 2 16 2q43 8 64 33q5 9 15.5 11t19.5 -4t11 -16.5t-4 -18.5l-9 -12q-9 -9 -15 -13v-1q-27 -26 -51.5 -47t-47 -39t-88 -71.5t-136.5 -111.5q63 30 101.5 -13.5t26.5 -104.5q99 52 138 97q23 25 27 31q13 22 34 11q19 -10 12 -29l-5 -8q-4 -5 -10.5 -14
t-16.5 -21q-20 -25 -51.5 -47.5t-54.5 -34.5t-76 -37q-7 -51 -44 -121.5t-90.5 -129t-98.5 -68.5q-54 -14 -89 21q-32 33 -33.5 66.5t27 66t64.5 59.5t92 60q29 57 24 109q-5 46 -40 30q-6 -3 -14 -8q-7 -3 -24.5 -1.5t-34 8.5t-12.5 14q16 29 117 142q117 133 143 168
l-23 4q-9 2 -46 9t-51 9q-90 -202 -177 -312q-6 -8 -17 -9.5t-19 5.5t-9.5 17.5t5.5 18.5q42 54 91.5 143t80.5 162q10 23 22.5 27t38.5 -4q160 -32 214 -28h3zM574 647q-7 -8 -64.5 -47t-76.5 -64q-14 -12 -35 11q-21 -23 -35 -11q-75 100 -86 112q-9 10 7.5 33t39 38
t28.5 5q1 -11 4.5 -23t10 -25.5t10.5 -21t13 -23t11 -18.5q6 6 49 48.5t59 63.5q6 10 26 -5t34 -38.5t5 -34.5zM94 -117l5 9q-81 -62 -63 -80q8 -7 33 31l7 11q12 18 18 29z" />
    <glyph glyph-name="circumflex" unicode="&#x2c6;" horiz-adv-x="833" 
d="M176 613q7 8 64.5 47t76.5 64q14 12 35 -11q21 23 35 11q75 -100 86 -112q9 -10 -7.5 -33t-39 -38t-28.5 -5q-1 11 -4.5 23t-10 25.5t-10.5 21t-13 23t-11 18.5q-6 -6 -49 -48.5t-59 -63.5q-6 -10 -26 5t-34 38.5t-5 34.5z" />
    <glyph glyph-name="caron" unicode="&#x2c7;" horiz-adv-x="375" 
d="M348 634q-7 -8 -64.5 -47t-76.5 -64q-14 -11 -35 11q-21 -22 -35 -11q-75 100 -86 112q-9 10 7.5 33t39 38t28.5 5q1 -11 4.5 -23t10 -25.5t10.5 -21t13 -23t11 -18.5q6 6 49 48.5t59 63.5q6 10 26 -5t34 -38.5t5 -34.5z" />
    <glyph glyph-name="ring" unicode="&#x2da;" horiz-adv-x="466" 
d="M371 726q12 3 31 -23q17 -24 3 -25q-6 0 -14 -4q38 -65 -1 -127q-30 -46 -76 -51q-52 -7 -71 51l-2 7q-8 69 29 113t101 59zM319 527q30 9 51 56t0 77q-23 -1 -53.5 -57t-8.5 -75q1 -1 2 -1t1.5 -0.5t1.5 -0.5h3z" />
    <glyph glyph-name="tilde" unicode="&#x2dc;" horiz-adv-x="454" 
d="M172 590q33 21 63.5 24t52.5 -4t43.5 -13.5t46 -2t50.5 26.5q12 12 13 -10q2 -24 -7 -29q-41 -32 -75 -42t-56 -4t-42 13t-41.5 4t-44.5 -25q-17 -17 -20 7q-5 29 11 49q3 4 6 6z" />
    <glyph glyph-name="hungarumlaut" unicode="&#x2dd;" horiz-adv-x="455" 
d="M249 638q-7 -8 -64.5 -47t-76.5 -64q-13 -11 -34 9.5t-19 34.5q0 10 23.5 34.5t57 57.5t48.5 53q6 10 26 -5t34 -38.5t5 -34.5zM426 626q-7 -8 -64.5 -47t-76.5 -64q-13 -11 -34 9.5t-19 34.5q0 10 23.5 34.5t57 57.5t48.5 53q6 10 26 -5t34 -38.5t5 -34.5z" />
    <glyph glyph-name="endash" unicode="&#x2013;" horiz-adv-x="561" 
d="M74 280q43 6 131.5 -4t155 -16.5t150.5 12.5q15 8 15 -11q-2 -29 -24 -52q-6 -6 -12 -9q-59 -19 -221.5 -9.5t-215.5 -7.5q-13 -6 -16 16q-5 35 16 64q9 13 21 17z" />
    <glyph glyph-name="emdash" unicode="&#x2014;" horiz-adv-x="557" 
d="M74 280q43 6 131.5 -4t155 -16.5t150.5 12.5q15 8 15 -11q-2 -29 -24 -52q-6 -6 -12 -9q-59 -19 -221.5 -9.5t-215.5 -7.5q-13 -6 -16 16q-5 35 16 64q9 13 21 17z" />
    <glyph glyph-name="quoteleft" unicode="&#x2018;" horiz-adv-x="159" 
d="M61 504q1 6 5 13t11.5 15.5t12.5 14t16 16t14 13.5l4.5 4.5t4.5 5.5q4 4 6 5q41 39 48 56q6 4 15 -3t14 -15q3 -8 -1.5 -19t-15 -27.5t-14.5 -25.5l5 -11q8 -24 -12.5 -66.5t-23.5 -60.5q1 -13 -31 5q-46 26 -56 60q-4 10 -2 20z" />
    <glyph glyph-name="quoteright" unicode="&#x2019;" horiz-adv-x="273" 
d="M244 548q-1 -6 -5 -13t-11.5 -15.5t-12.5 -14t-16 -16t-14 -13.5q-1 -2 -4 -5l-5 -5q-4 -4 -6 -5q-41 -39 -48 -56q-6 -4 -15 3t-14 15q-3 8 1.5 19t15 27.5t14.5 25.5l-5 11q-8 24 12.5 66.5t23.5 60.5q-1 13 31 -5q46 -26 56 -60q3 -11 2 -20z" />
    <glyph glyph-name="quotesinglbase" unicode="&#x201a;" horiz-adv-x="194" 
d="M167 78q-1 -6 -5 -13t-11.5 -15.5t-12.5 -14t-16 -16t-14 -13.5q-1 -2 -4 -5l-5 -5q-4 -4 -6 -5q-41 -39 -48 -56q-6 -4 -15 3t-14 15q-3 8 1.5 19t15 27.5t14.5 25.5l-5 11q-8 24 12.5 66.5t23.5 60.5q-1 13 31 -5q46 -26 56 -60q4 -10 2 -20z" />
    <glyph glyph-name="quotedblleft" unicode="&#x201c;" horiz-adv-x="261" 
d="M193 504q1 6 5 13t11.5 15.5t12.5 14t16 16t14 13.5l4.5 4.5t4.5 5.5q4 4 6 5q41 39 48 56q6 4 15 -3t14 -15q3 -8 -1.5 -19t-15 -27.5t-14.5 -25.5l5 -11q8 -24 -12.5 -66.5t-23.5 -60.5q1 -13 -31 5q-46 26 -56 60q-4 10 -2 20zM38 504q1 6 5 13t11.5 15.5t12.5 14
t16 16t14 13.5q1 1 4 4.5t5 5.5q4 4 6 5q41 39 48 56q6 4 15 -3t14 -15q3 -8 -1.5 -19t-15 -27.5t-14.5 -25.5l5 -11q8 -24 -12.5 -66.5t-23.5 -60.5q1 -13 -31 5q-46 26 -56 60q-4 10 -2 20z" />
    <glyph glyph-name="quotedblright" unicode="&#x201d;" horiz-adv-x="366" 
d="M187 548q-1 -6 -5 -13t-11.5 -15.5t-12.5 -14t-16 -16t-14 -13.5q-1 -2 -4.5 -5t-4.5 -5q-4 -4 -6 -5q-41 -39 -48 -56q-6 -4 -15 3t-14 15q-3 8 1.5 19t15 27.5t14.5 25.5l-5 11q-8 24 12.5 66.5t23.5 60.5q-1 13 31 -5q46 -26 56 -60q3 -11 2 -20zM342 548
q-1 -6 -5 -13t-11.5 -15.5t-12.5 -14t-16 -16t-14 -13.5q-1 -2 -4 -5l-5 -5q-4 -4 -6 -5q-41 -39 -48 -56q-6 -4 -15 3t-14 15q-3 8 1.5 19t15 27.5t14.5 25.5l-5 11q-8 24 12.5 66.5t23.5 60.5q-1 13 31 -5q46 -26 56 -60q3 -11 2 -20z" />
    <glyph glyph-name="quotedblbase" unicode="&#x201e;" horiz-adv-x="364" 
d="M167 78q-1 -6 -5 -13t-11.5 -15.5t-12.5 -14t-16 -16t-14 -13.5q-1 -2 -4 -5l-5 -5q-4 -4 -6 -5q-41 -39 -48 -56q-6 -4 -15 3t-14 15q-3 8 1.5 19t15 27.5t14.5 25.5l-5 11q-8 24 12.5 66.5t23.5 60.5q-1 13 31 -5q46 -26 56 -60q4 -10 2 -20zM322 78q-1 -6 -5 -13
t-11.5 -15.5t-12.5 -14t-16 -16t-14 -13.5q-1 -2 -4.5 -5t-4.5 -5q-4 -4 -6 -5q-41 -39 -48 -56q-6 -4 -15 3t-14 15q-3 8 1.5 19t15 27.5t14.5 25.5l-5 11q-8 24 12.5 66.5t23.5 60.5q-1 13 31 -5q46 -26 56 -60q4 -10 2 -20z" />
    <glyph glyph-name="bullet" unicode="&#x2022;" horiz-adv-x="298" 
d="M259 299q-5 -25 -46 -67.5t-45 -48.5q-16 -19 -40.5 -12.5t-47 25t-27.5 33.5q-10 31 1.5 64t32 73t25.5 73q0 16 42 -4q59 -29 90 -76q20 -32 15 -60z" />
    <glyph glyph-name="ellipsis" unicode="&#x2026;" horiz-adv-x="543" 
d="M151 78q-2 -11 -11.5 -23t-23.5 -25.5t-20 -21.5q-15 -15 -39.5 -1.5t-30.5 29.5q-8 24 12.5 66t23.5 61q0 12 32 -6q46 -25 56 -59q3 -10 1 -20zM513 78q-2 -11 -11.5 -23t-23.5 -25.5t-20 -21.5q-15 -15 -39.5 -1.5t-30.5 29.5q-8 24 12.5 66t23.5 61q0 12 32 -6
q46 -25 56 -59q3 -10 1 -20zM332 78q-2 -11 -11.5 -23t-23.5 -25.5t-20 -21.5q-15 -15 -39.5 -1.5t-30.5 29.5q-8 24 12.5 66t23.5 61q0 12 32 -6q46 -25 56 -59q3 -10 1 -20z" />
    <glyph glyph-name="fraction" unicode="&#x2044;" horiz-adv-x="205" 
d="M390 634q-5 -38 -80 -152t-163 -232.5t-164 -238t-83 -167.5q1 -20 -29 -5q-34 17 -45 43q-3 6 -3 11q5 40 82 162t166.5 247.5t166.5 245.5t82 158q0 19 26 0q34 -25 43 -57z" />
    <glyph glyph-name="a_0.001" unicode="&#xe000;" 
d="M362 436q-69 -4 -176 -148q-80 -108 -109 -187q-14 -38 2 -35q16 4 59 52q67 75 209 277q6 10 12 25q9 20 46 -2q41 -24 52 -61q5 -18 -1 -33q-12 -37 -38 -77q-98 -153 -98 -244q0 -69 49 -102.5t112 -25t107 49.5q9 3 12 -11q1 -16 -8 -25q-45 -39 -93.5 -59t-91 -20.5
t-82 13.5t-66.5 43t-45 67t-17.5 87t16.5 103l2 8q-60 -74 -106 -107q-44 -29 -74 -20q-169 51 10 317q45 66 100 114t96 61q62 19 113 -23q27 -21 23 -33q-1 -2 -3 -3q-4 -3 -12 -1z" />
    <glyph glyph-name="b_0.001" unicode="&#xe001;" horiz-adv-x="476" 
d="M351 634l-135 -259q61 72 104 103q44 29 74 20q168 -51 -10 -317q-45 -66 -100 -114t-96 -61q-49 -15 -91 8t-45 44q-16 -34 -22 -49q-9 -19 -46 2q-42 25 -52 62q-5 18 1 33q4 13 64 127q8 19 124.5 241.5t130.5 238.5q76 115 195 142q100 23 169 -26q74 -53 57 -154
q-5 -28 -17 -57q-3 -8 -12 -15t-17.5 -8t-11.5 5q34 79 -5 134q-33 50 -96 40q-89 -15 -163 -140zM69 94l-14 -29q4 3 12 1q70 4 177 149q80 108 108 186q14 38 -2 34t-59 -52q-73 -81 -213 -281q-3 -6 -9 -8z" />
    <glyph glyph-name="c_0.001" unicode="&#xe002;" horiz-adv-x="356" 
d="M331 434q-42 -6 -88 -56t-88 -128q-50 -95 -55.5 -187t39.5 -100q31 -5 64 25.5t45 77.5q3 12 23 -7q26 -23 18 -41q-17 -40 -60 -79t-99 -40q-52 -1 -89.5 31.5t-53.5 87t-3 135t57 167.5q37 74 87.5 118t96.5 58q37 11 70 0t53 -32q15 29 22 49q2 16 24 -2
q19 -15 24 -35q1 -11 -23.5 -43.5t-59 -73t-45.5 -57.5q-10 -5 -16.5 15t-2.5 29q43 61 60 88z" />
    <glyph glyph-name="d_0.001" unicode="&#xe003;" horiz-adv-x="483" 
d="M455 348q-125 -219 -135 -346q-1 -69 48 -102t112.5 -24t107.5 49q9 3 12 -11q1 -16 -8 -25q-45 -39 -93.5 -59t-91 -20.5t-82 13.5t-66.5 43t-45 67t-17.5 87t16.5 103l1 2v3q-63 -76 -105 -105q-45 -30 -74 -20q-169 51 10 317q45 66 100 114t96 61q43 13 81 -3.5
t51 -39.5q145 279 156 307q9 19 45 -2q42 -25 53 -62q4 -18 -1 -33q-11 -32 -171 -314zM362 435q-69 -4 -176 -148q-80 -108 -109 -187q-14 -38 2 -35q16 4 59 52q73 82 194 255l32 62q-1 0 -2 1z" />
    <glyph glyph-name="e_0.001" unicode="&#xe004;" horiz-adv-x="356" 
d="M139 -37q31 -5 64 25.5t45 77.5q3 12 23 -7q26 -23 18 -41q-17 -40 -60 -79t-99 -40q-52 -1 -90 33.5t-54.5 90.5t-3.5 135.5t59 161.5q41 73 90.5 118t93.5 58q37 11 70 0t53 -32q15 29 22 49q2 16 24 -2q19 -15 24 -35q1 -15 -45.5 -88.5t-124.5 -163t-145 -128.5
q-9 -55 0.5 -91.5t35.5 -41.5zM331 434q-42 -6 -88 -56t-88 -128q-22 -43 -35 -81q96 85 211 265z" />
    <glyph glyph-name="f_0.001" unicode="&#xe005;" horiz-adv-x="288" 
d="M65 366q13 25 38 74q33 66 50.5 98.5t48 87t51 81.5t52 62.5t59 52t63 28.5t73.5 12q99 -1 150 -68t6 -176q-3 -8 -12 -15t-17.5 -8t-11.5 5q32 75 -1.5 129.5t-98.5 44.5q-33 -5 -73.5 -45t-85.5 -111.5t-77 -128.5t-75 -140l-66 -128q90 -2 157 7h6q8 -1 14 -8.5
t7 -16.5q1 -10 -5.5 -17.5t-16.5 -8.5q-11 -1 -40 -4.5t-58.5 -6.5t-56.5 -3q3 -56 -17 -135t-55 -151t-88.5 -119.5t-108.5 -39.5q-51 8 -68 62q-19 60 53 193l106 202h-7q-17 1 -3 28q14 28 32 29q2 0 4 -1l2 -1zM54 -53q52 126 50 209l-84 -164q-11 -22 -19 -36.5
t-19 -36t-18.5 -36.5t-16 -32.5t-13 -29.5t-8 -23t-3 -16.5t3.5 -6.5q21 -4 59 48t68 124zM104 164v-8l5 8h-5z" />
    <glyph glyph-name="g_0.001" unicode="&#xe006;" 
d="M362 436q-69 -4 -176 -148q-80 -108 -109 -187q-14 -38 2 -35q16 4 59 52q69 77 210 278l11 24q9 19 46 -1q41 -23 53 -58q7 -20 -2 -37q-98 -197 -309 -572q-76 -115 -195 -142q-100 -23 -169 26q-74 53 -57 154q5 28 17 57q3 8 12 15t17.5 8t11.5 -5q-34 -79 4 -135
q34 -49 97 -39q88 14 162 139q19 32 36 70q21 50 96 189q-41 -44 -70 -65q-44 -29 -74 -20q-169 51 10 317q45 66 100 114t96 61q62 19 113 -23q27 -21 23 -33q-1 -2 -3 -3q-4 -3 -12 -1z" />
    <glyph glyph-name="h_0.001" unicode="&#xe007;" horiz-adv-x="478" 
d="M446 317q-131 -189 -131 -315q0 -69 50 -102t114.5 -24t108.5 49q9 3 12 -11q1 -16 -8 -25q-40 -34 -82.5 -53.5t-81 -24t-75.5 3t-66.5 26t-51.5 47.5t-33.5 65t-10.5 80t16 90q9 33 26.5 72.5t32.5 68t43 78.5t43 78q4 20 -9 15q-17 -6 -57 -51q-33 -37 -80 -105.5
t-101 -152.5t-73 -112l-2 -4q-6 -11 -23 -8l-6 2q-30 10 -54.5 41t-13.5 61q5 16 64 128q42 79 149.5 288t119.5 237q9 19 45 -2q42 -25 53 -62q4 -18 -1 -33q-11 -30 -149 -293q57 77 90 102q61 45 115 15q29 -13 50 -42t11 -57q-5 -12 -34 -69v-1z" />
    <glyph glyph-name="i_0.001" unicode="&#xe008;" horiz-adv-x="219" 
d="M226 395q-15 -34 -60 -120.5t-77 -158t-37 -114.5q-1 -69 48 -102t112.5 -24t107.5 49q9 3 12 -11q1 -16 -8 -25q-45 -39 -93.5 -59t-91 -20.5t-82 13.5t-66.5 43t-45 67t-17.5 87t16.5 103q14 45 41 103.5t44.5 91.5t55.5 100t42 74q10 19 47 -3q42 -25 52 -63
q4 -16 -1 -31zM327 595q-2 -12 -30 -46t-40 -61q-9 -7 -28 10t-27 30q-10 24 11.5 79.5t23.5 71.5q0 13 33 -6q46 -26 56 -59q2 -10 1 -19z" />
    <glyph glyph-name="j_0.001" unicode="&#xe009;" horiz-adv-x="222" 
d="M230 394q-30 -55 -98.5 -191t-132 -254.5t-113.5 -196.5q-74 -115 -192 -143q-100 -23 -170 25q-75 52 -59 152q4 29 17 61q3 8 12 15t17.5 8t11.5 -5q-35 -82 0 -135q32 -47 98 -30q95 25 186 175l15 25q183 325 311 591q10 19 48 -3q43 -25 52 -61q5 -18 -3 -33z
M308 594q-2 -11 -29.5 -44.5t-39.5 -61.5q-9 -7 -29 10.5t-26 29.5q-10 24 11.5 80.5t23.5 70.5q0 13 32 -5q45 -25 55 -59q4 -11 2 -21z" />
    <glyph glyph-name="k_0.001" unicode="&#xe00a;" horiz-adv-x="478" 
d="M234 405q-2 -2 -3 -2l-17 -34q64 84 101 109q31 21 55 22t56 -17l1 -1q27 -15 44.5 -42t8.5 -53q-4 -10 -55 -25t-108.5 -39t-74.5 -56q-13 -25 5.5 -79.5t50 -92.5t52.5 -23q44 32 130 149l3 4q15 12 33 -2q8 -7 9 -16.5t-6 -17.5q-80 -102 -122 -139q-70 -63 -114 -44
q-58 25 -87 101.5t-10 141.5q-30 -44 -83 -126t-71 -109l-2 -4q-6 -12 -23 -7q-4 0 -6 1q-30 10 -54.5 41t-13.5 61q5 16 64 128q4 9 14 27q4 7 151 292q46 88 72 130.5t59 81.5q34 40 76.5 65t83.5 31.5t82 1.5t70.5 -26t49.5 -51.5t20 -74t-19 -93.5q-3 -8 -12 -15
t-17.5 -8t-11.5 5q34 79 -5 135q-34 49 -97 39q-89 -15 -164 -143l-3 -5q-11 -24 -31 -63q-32 -72 -81 -158zM348 420q8 13 -1 12q-19 0 -61 -48q-23 -26 -53 -67q10 9 48.5 40.5t55.5 49.5q8 8 11 13z" />
    <glyph glyph-name="l_0.001" unicode="&#xe00b;" horiz-adv-x="222" 
d="M363 662q-10 -27 -89 -172t-149 -290t-72 -198q-2 -69 47 -102t113 -24t108 49q9 3 12 -11q1 -16 -8 -25q-45 -39 -93.5 -59t-91 -20.5t-82 13.5t-66.5 43t-45 67t-17.5 87t16.5 103q18 57 66.5 158t90.5 179.5t99.5 182.5t63.5 116q9 19 45 -2q42 -25 53 -62
q4 -18 -1 -33z" />
    <glyph glyph-name="m_0.001" unicode="&#xe00c;" horiz-adv-x="739" 
d="M740 387q-21 -53 -62 -129t-69.5 -139t-35.5 -117q-1 -69 48 -102t112.5 -24t107.5 49q9 3 12 -11q1 -16 -8 -25q-45 -39 -93.5 -59t-91 -20.5t-82 13.5t-66.5 43t-45 67t-17.5 87t16.5 103q12 38 45 106q3 6 9 17t8 15q40 70 84 159q5 27 -20 9q-17 -13 -46 -45
q-45 -50 -148 -208t-106 -163l-2 -3q-4 -11 -23 -8l-6 2q-29 10 -53.5 41t-14.5 61q3 9 29 61q18 40 46 94l84 159q5 27 -20 9q-17 -13 -46 -45q-33 -37 -80.5 -106t-100.5 -152.5t-73 -112.5l-2 -3q-6 -11 -23 -8l-6 2q-30 10 -54.5 41t-13.5 61q5 16 64 128l14 27
q108 199 122 233q9 19 48 -3q44 -24 53 -60q6 -19 -3 -34q-5 -8 -15 -25q61 79 99 106q44 30 74 20q18 -4 30 -12q29 -13 50 -42t11 -57q-2 -6 -11 -24q69 89 106 115q44 30 74 20q18 -4 30 -12q29 -13 50 -42t11 -57z" />
    <glyph glyph-name="n_0.001" unicode="&#xe00d;" horiz-adv-x="478" 
d="M231 397l-15 -25q61 79 99 106q44 29 74 20q12 -3 30 -12q29 -14 50 -43t11 -57q-15 -43 -60 -125.5t-78 -152t-32 -107.5q2 -68 51 -101t111 -24t106 49q9 3 12 -11q1 -16 -8 -25q-45 -39 -93.5 -59t-91 -20.5t-82 13.5t-66.5 43t-45 67t-17.5 87t16.5 103
q12 38 32 79.5t48 91t35 62.5q0 5 5 8l29 56q5 27 -20 9q-17 -13 -46 -45q-33 -37 -80.5 -106t-100.5 -152.5t-73 -112.5l-2 -4q-6 -10 -23 -7q-2 0 -6 2q-30 10 -54.5 41t-13.5 61q4 13 64 127q4 9 14 27q112 210 122 234q9 19 48 -3q43 -25 53 -60q6 -19 -3 -34z" />
    <glyph glyph-name="o_0.001" unicode="&#xe00e;" horiz-adv-x="401" 
d="M89 65q31 -5 94.5 66t109.5 154q36 69 35 119.5t-32.5 80.5t-74.5 41t-92 0.5t-84 -40.5q-9 -3 -12 11q-2 16 8 25q52 45 107 65.5t99.5 16t79.5 -28t52.5 -61.5t14 -91.5t-32.5 -111.5q-30 -61 -65.5 -116t-77 -103t-86.5 -73t-84 -17q-74 23 -87.5 98t19.5 157
t89.5 153t109.5 89q64 22 108 -30q21 -24 17 -34q-1 -2 -4 -1q-48 17 -114 -73.5t-98 -190.5t1 -105z" />
    <glyph glyph-name="p_0.001" unicode="&#xe00f;" horiz-adv-x="482" 
d="M224 394l-4 -9q59 67 96 93q42 29 74 20q168 -51 -10 -317q-45 -67 -100 -114.5t-97 -60.5q-46 -15 -86.5 5.5t-48.5 43.5q-15 -24 -72 -143t-103 -179q-80 -106 -197 -126q-99 -17 -163 36q-71 59 -43 167l12 37q3 8 12 15t17.5 8t11.5 -5q-33 -79 4 -134q34 -50 97 -40
q88 13 162 138q7 10 13 22q34 71 74.5 148.5t92 175t81.5 155.5q65 127 80 161q9 19 45 -2q42 -25 53 -62q4 -18 -1 -33zM73 101l-19 -35q5 2 8 0q70 4 177 148q80 108 108 187q14 38 -2 34.5t-59 -51.5q-82 -93 -212 -282z" />
    <glyph glyph-name="q_0.001" unicode="&#xe010;" 
d="M91 -33q19 4 34 5q20 42 73 137q-52 -60 -89 -86q-43 -30 -74 -21q-169 51 10 317q45 67 100 115t96 61q62 19 113 -23q28 -22 23 -34q-1 -2 -3 -3q-3 -1 -12 -1q-70 -3 -177 -148q-79 -107 -108 -185q-14 -39 1 -36q16 3 60 52q71 79 209 277q8 15 12 25q9 19 46 -2
q42 -25 52 -62q4 -18 -1 -33l-173 -331q78 17 117 56q8 6 8 -5q-2 -25 -22 -54q-6 -9 -11 -12q-36 -19 -119 -37q-33 -59 -44.5 -108.5t-2 -81t30 -54t51.5 -30.5t63 -6.5t64.5 14.5t55.5 35q9 3 12 -11q2 -16 -8 -25q-45 -38 -93 -58.5t-90.5 -21t-82 13t-66.5 42t-45.5 66
t-18.5 86t15 101.5q-40 -13 -62 -25q-6 -3 -7 7q-4 25 18 55q18 24 45 29z" />
    <glyph glyph-name="r_0.001" unicode="&#xe011;" horiz-adv-x="353" 
d="M266 604q-2 -9 -9 -23.5t-22 -41t-21 -38.5q-2 -4 -2 -5q11 -5 16.5 -8t18.5 -9.5t20.5 -11l20 -12t20 -14t16.5 -15t13.5 -16t8 -16t2.5 -17.5t-6 -18q-14 -25 -50.5 -90t-53 -97.5t-32 -81t-14.5 -87.5q4 -63 53 -92.5t110.5 -20t103.5 48.5q9 3 12 -11q1 -16 -8 -25
q-45 -39 -93.5 -59t-91 -20.5t-82 13.5t-66.5 43t-45 67t-17.5 87t16.5 103q12 38 32 79.5t48 91t35 62.5q0 7 8 10q17 30 26 50q-23 14 -40 22q-67 -154 -174 -290q-6 -8 -16.5 -9.5t-18.5 4.5q-20 15 -5 36q105 135 171 287l-1 1q-37 23 -46 36q-10 24 20.5 90.5
t33.5 85.5q0 12 39 -7q55 -28 68 -62q4 -11 2 -20z" />
    <glyph glyph-name="s_0.001" unicode="&#xe012;" horiz-adv-x="365" 
d="M311 434q-28 13 -88 -56q-63 -72 -80 -136q-15 -54 23 -60q65 -10 95 -24.5t40 -43.5q14 -39 9.5 -74t-19.5 -68t-43 -57t-60.5 -41.5t-72 -21.5t-78 3t-78 31.5t-72.5 64.5q-11 14 -1 30q5 8 11 5q70 -95 159 -61q59 23 95 87q35 65 10 106q-12 20 -40 27q-62 15 -80 27
q-76 49 22 213q26 43 71.5 75.5t98 40t95.5 -36.5q13 22 22 49q2 15 24 -1q20 -16 25 -36q1 -11 -23.5 -43.5t-59 -73t-45.5 -57.5q-11 -5 -17 15t-3 29q38 51 60 88z" />
    <glyph glyph-name="t_0.001" unicode="&#xe013;" horiz-adv-x="222" 
d="M332 601q-2 -7 -9 -20q50 -4 58 -4q10 -6 -3.5 -22.5t-22.5 -18.5q-28 2 -53 2q-19 -34 -52.5 -94t-51.5 -93.5t-44 -82.5t-40.5 -80.5t-29.5 -68t-21.5 -65t-7.5 -51.5q-1 -69 48 -102.5t112.5 -24.5t107.5 49q9 3 12 -11q1 -16 -8 -25q-40 -34 -82.5 -53.5t-81 -24
t-75 3.5t-65.5 26.5t-51 47.5t-32.5 64.5t-9 79.5t17.5 90q71 203 206 413q-36 -4 -49 -8q-10 -5 -12 12q-2 29 15 49q10 8 75 4q41 77 52 104q10 20 46 -2q42 -24 52 -61q5 -18 -1 -33z" />
    <glyph glyph-name="u_0.001" unicode="&#xe014;" horiz-adv-x="456" 
d="M462 395q-11 -22 -63.5 -119t-81.5 -165.5t-26 -108.5q-1 -69 48 -102t112.5 -24t107.5 49q9 3 12 -11q1 -16 -8 -25q-44 -37 -91 -57.5t-88.5 -21.5t-80.5 10.5t-66.5 38.5t-46.5 62.5t-21.5 81.5t8.5 97q-105 -114 -152 -94q-48 21 -68 62q-13 29 7.5 94.5t51.5 125
t69 126t43 78.5q10 19 47 -3q42 -25 52 -63q4 -16 -1 -31q-6 -18 -51.5 -101t-78.5 -152.5t-22 -75.5q21 -10 178 206q100 191 112 220q10 19 47 -3q42 -25 52 -63q4 -16 -1 -31z" />
    <glyph glyph-name="v_0.001" unicode="&#xe015;" horiz-adv-x="382" 
d="M208 396q-3 -18 -32.5 -101t-50 -152.5t-8.5 -75.5q9 -4 27.5 16.5t40.5 54.5q19 28 155 280q26 71 21 123.5t-35.5 84.5t-70 44.5t-82.5 4t-73 -36.5q-6 -2 -10 5t-2.5 17t8.5 14q64 41 125 56t106 3t74.5 -47t31 -95.5t-23.5 -141.5q-19 -56 -76.5 -166t-100.5 -172
q-88 -129 -153 -103q-58 23 -79 61q-29 58 17 194q63 178 76 230q5 19 46 -2q46 -25 64 -62q8 -18 5 -33z" />
    <glyph glyph-name="w_0.001" unicode="&#xe016;" horiz-adv-x="635" 
d="M220 396q-3 -20 -37.5 -102t-60.5 -151.5t-14 -75.5q9 -4 27.5 16.5t40.5 54.5q10 15 50.5 101.5t79 170t40.5 86.5q5 6 14 5q29 -1 68 -36t33 -69q-3 -18 -33 -101t-50.5 -152.5t-7.5 -75.5q9 -4 27.5 16.5t40.5 54.5q14 23 71 125q30 60 49 93q87 155 29 251
q-38 62 -116 70q-74 8 -124 -39q-6 -2 -10 5t-2.5 17t8.5 14q58 37 113 52t99 9.5t74.5 -33t43 -72t1 -111.5t-48.5 -147q-28 -66 -75.5 -152t-64.5 -109q-88 -129 -153 -103q-59 22 -79 61q-15 30 -12 75q-14 -28 -18 -33q-88 -129 -153 -103q-57 22 -79 61q-20 40 3 122
t63.5 176.5t47.5 125.5q6 19 46 -2q47 -25 64 -62q8 -18 5 -33z" />
    <glyph glyph-name="x_0.001" unicode="&#xe017;" horiz-adv-x="421" 
d="M301 412q-2 -11 -12 -69q122 142 122 156q10 8 38 -11t13 -36q-102 -106 -191 -203q-12 -91 -6 -157.5t25.5 -111t48 -70t62 -34.5t67.5 -5t65.5 18t54.5 36q9 3 12 -11q1 -16 -8 -25q-76 -65 -154.5 -80t-140.5 15.5t-104.5 101.5t-50.5 169q-64 -82 -67 -93
q-5 -5 -20 2.5t-27 19t-8 16.5q52 57 118 131q0 7 0.5 21t0.5 22l11 155q-72 -118 -131 -192q-15 -19 -36 -4q-19 15 -4 36q65 79 158 236q10 16 14 28q0 9 7 14q8 12 32.5 9t50.5 -12.5t45 -30t15 -41.5z" />
    <glyph glyph-name="y_0.001" unicode="&#xe018;" horiz-adv-x="456" 
d="M226 395q-6 -18 -51.5 -101.5t-79 -152.5t-21.5 -75q19 -10 175 203q110 197 120 222q10 20 48 -3q42 -24 52 -59q5 -19 -3 -34q-41 -80 -95.5 -187.5t-77.5 -152t-56 -106.5t-59 -105t-57 -92q-74 -115 -192 -143q-100 -23 -170 25q-75 52 -59 152q4 29 17 61q3 8 12 15
t17.5 8t11.5 -5q-35 -81 2 -135q32 -48 96 -33q93 21 178 162q12 19 23 41q21 39 47.5 91.5t35.5 69.5l2 4q-77 -75 -117 -59q-56 24 -68 62q-19 60 53 193q104 195 118 231q10 19 47 -3q42 -25 52 -63q4 -16 -1 -31z" />
    <glyph glyph-name="z_0.001" unicode="&#xe019;" horiz-adv-x="454" 
d="M541 488q-9 -9 -15 -13v-1q-27 -26 -51.5 -47t-47 -39t-88 -71.5t-136.5 -111.5q122 14 140 -81q21 -109 -95 -301q-21 -35 -46 -71q-76 -115 -195 -142q-100 -23 -169 26q-74 53 -57 154q5 28 17 57q3 8 12 15t17.5 8t11.5 -5q-15 -39 -14.5 -74t18.5 -59.5t43.5 -36.5
t60.5 -4t70 37q51 42 120 172q77 149 70 212q-6 52 -81 8q-8 -2 -25.5 -0.5t-33.5 8t-12 13.5q16 29 117 142q117 133 143 168l-23 4q-9 2 -46 9t-51 9q-90 -202 -177 -312q-6 -8 -17 -9.5t-19 5.5t-9.5 17.5t5.5 18.5q42 54 91.5 143t80.5 162q10 23 22.5 27t38.5 -4
q160 -32 214 -28h3q10 2 16 2q43 8 64 33q5 9 15.5 11t19.5 -4t11 -16.5t-4 -18.5z" />
    <glyph glyph-name="d_0.003" unicode="&#xe01a;" horiz-adv-x="483" 
d="M221 136q-65 -81 -112 -113q-45 -30 -74 -20q-169 51 10 317q45 66 100 114t96 61q43 13 81 -3.5t51 -39.5l31 60q-62 12 -106 40t-63 64t-22 77.5t18 81.5q18 32 71 41q39 8 39 -7q0 -4 -3 -8q-20 -29 -30.5 -63.5t-8 -71t35.5 -66t95 -39.5q22 41 46 89.5t38 76.5
t20 37q45 69 120 74.5t115 -50t-1 -134.5q-26 -50 -84 -94.5t-137 -54.5q-194 -369 -210 -424q-3 -14 0 -16q23 -11 148 156l4 4q16 11 33 -2q7 -7 8 -17t-5 -17q-78 -99 -117 -135q-74 -68 -120 -48q-55 23 -67 62q-10 27 0 68zM362 435q-69 -4 -176 -148
q-80 -108 -109 -187q-14 -38 2 -35q16 4 59 52q73 82 194 255l32 62q-1 0 -2 1zM622 653q-7 -14 -45 -89q80 20 107 82q16 39 1 58t-44 -19q-9 -13 -19 -32z" />
    <glyph glyph-name="f_0.003" unicode="&#xe01b;" horiz-adv-x="288" 
d="M259 738q41 82 122 95q68 12 113 -30q53 -50 19 -131q-3 -9 -8 -18q-26 -50 -84 -94.5t-136 -54.5l-147 -284q90 -2 157 7h6q8 -1 14 -8.5t7 -16.5q1 -10 -5.5 -17.5t-16.5 -8.5q-11 -1 -40 -4.5t-58.5 -6.5t-56.5 -3q3 -56 -17 -135t-55 -151t-88.5 -119.5t-108.5 -39.5
q-51 8 -68 62q-19 60 53 193l106 202h-7q-17 1 -3 28q14 28 32 29q2 0 4 -1l2 -1l144 282q-121 25 -165.5 102t-5.5 161q18 32 71 41q39 8 39 -7q0 -4 -3 -8q-20 -28 -30.5 -62.5t-8 -71t35 -66t93.5 -39.5q23 45 56 105.5t38 70.5zM54 -53q52 126 50 209l-84 -164
q-11 -22 -19 -36.5t-19 -36t-18.5 -36.5t-16 -32.5t-13 -29.5t-8 -23t-3 -16.5t3.5 -6.5q21 -4 59 48t68 124zM315 564q77 19 102 82q16 40 1 60q-14 19 -37 -15q-5 -7 -9 -15zM104 164v-8l5 8h-5z" />
    <glyph glyph-name="g_0.003" unicode="&#xe01c;" 
d="M362 436q-69 -4 -176 -148q-80 -108 -109 -187q-14 -38 2 -35q16 4 59 52q69 77 210 278l11 24q9 19 46 -1q41 -23 53 -58q7 -20 -2 -37q-2 -6 -6 -13.5t-15.5 -29t-27 -50t-48 -89.5t-71.5 -135l-4 -7q118 -27 160.5 -102.5t3.5 -158.5q-18 -32 -71 -41q-39 -8 -39 7
q0 4 3 8q20 28 30 61.5t8 70t-32.5 66t-89.5 40.5q-26 -50 -99 -178q-46 -81 -129 -92q-69 -10 -111 34q-51 52 -11 136q2 4 4 9q27 52 86.5 96.5t140.5 52.5l41 80q-41 -44 -70 -65q-44 -29 -74 -20q-169 51 10 317q45 66 100 114t96 61q62 19 113 -23q27 -21 23 -33
q-1 -2 -3 -3q-4 -3 -12 -1zM103 -49q-80 -19 -105 -83q-16 -40 -1 -59q14 -19 38 15q7 10 14 24q2 5 21 39t33 64z" />
    <glyph glyph-name="h_0.003" unicode="&#xe01d;" horiz-adv-x="478" 
d="M75 801q-20 -29 -30.5 -63.5t-8 -71t35.5 -66t95 -39.5q80 154 99 198q2 3 5 5q45 69 120 74.5t115 -50t-1 -134.5q-26 -49 -84 -93.5t-136 -54.5l-31 -61l-40 -76q64 84 101 109q44 30 74 20q18 -4 30 -12q29 -13 50 -42t11 -57q-6 -18 -51 -99.5t-77 -149t-20 -73.5
q23 -11 148 156l3 4q16 11 33 -2q8 -7 9 -16.5t-6 -17.5q-78 -100 -118 -136q-73 -67 -118 -47q-56 24 -68 62q-19 58 53 193l84 159q4 20 -9 15q-17 -6 -57 -51q-33 -37 -80 -105.5t-101 -152.5t-73 -112l-2 -4q-6 -11 -23 -8l-6 2q-30 10 -54.5 41t-13.5 61q5 16 64 128
l14 27q30 55 131 251q-123 24 -168.5 101t-5.5 162q18 32 71 41q39 8 39 -7q0 -4 -3 -8zM315 564q79 20 106 83q16 39 1 57q-16 19 -44 -19q-9 -13 -19 -32q-24 -51 -44 -89z" />
    <glyph glyph-name="j_0.003" unicode="&#xe01e;" horiz-adv-x="222" 
d="M-106 -227q-52 -77 -136 -87q-71 -8 -109 35q-47 53 -2 139q27 52 87.5 97t142.5 52q246 446 255 483q24 21 66 -15.5t35 -71.5q-6 -29 -213 -405q118 -27 160.5 -102.5t3.5 -158.5q-18 -32 -71 -41q-39 -8 -39 7q0 4 3 8q15 22 25.5 47.5t13 56t-7 56.5t-38.5 47.5
t-76 30.5zM308 594q-2 -11 -29.5 -44.5t-39.5 -61.5q-9 -7 -29 10.5t-26 29.5q-10 24 11.5 80.5t23.5 70.5q0 13 32 -5q45 -25 55 -59q4 -11 2 -21zM-207 -139l52 91q-85 -17 -116 -80q-19 -38 -5 -58q15 -20 46 15q11 13 23 32z" />
    <glyph glyph-name="k_0.003" unicode="&#xe01f;" horiz-adv-x="478" 
d="M75 801q-20 -29 -30.5 -63.5t-8 -71t35.5 -66t95 -39.5q80 154 99 198q2 3 5 5q45 69 120 74.5t115 -50t-1 -134.5q-26 -49 -84 -93.5t-136 -54.5l-31 -61v1l-40 -77q64 84 101 109q31 21 55 22t56 -17l1 -1q27 -15 44.5 -42t8.5 -53q-4 -10 -55 -25t-108.5 -39
t-74.5 -56q-13 -25 5.5 -79.5t50 -92.5t52.5 -23q44 32 130 149l3 4q15 12 33 -2q8 -7 9 -16.5t-6 -17.5q-80 -102 -122 -139q-70 -63 -114 -44q-58 25 -87 101.5t-10 141.5q-30 -44 -83 -126t-71 -109l-2 -4q-6 -12 -23 -7q-4 0 -6 1q-30 10 -54.5 41t-13.5 61q5 16 64 128
q4 9 14 27q7 13 26 49t51 99t53 103q-62 12 -106 40t-63 64t-22 77.5t18 81.5q18 32 71 41q39 8 39 -7q0 -4 -3 -8zM315 564q79 20 106 83q16 39 1 57q-16 19 -44 -19q-9 -13 -19 -32q-24 -51 -44 -89zM348 420q8 13 -1 12q-19 0 -61 -48q-23 -26 -53 -67q10 9 48.5 40.5
t55.5 49.5q8 8 11 13z" />
    <glyph glyph-name="l_0.003" unicode="&#xe020;" horiz-adv-x="222" 
d="M75 801q-20 -29 -30.5 -63.5t-8 -71t35.5 -66t95 -39.5q80 154 99 198q2 3 5 5q45 69 120 74.5t115 -50t-1 -134.5q-26 -50 -84 -94.5t-137 -54.5q-194 -369 -210 -424q-3 -14 0 -16q23 -11 148 156l4 3q6 5 16 4.5t16 -6.5q19 -14 4 -33q-73 -92 -101 -119
q-85 -86 -136 -64q-56 22 -68 61q-19 59 53 194q30 55 131 251q-62 12 -106 40t-63 64t-22 77.5t18 81.5q18 32 71 41q39 8 39 -7q0 -4 -3 -8zM314 564q80 20 107 82q16 39 1 58t-44 -19q-9 -13 -19 -32q-7 -14 -45 -89z" />
    <glyph glyph-name="q_0.003" unicode="&#xe021;" 
d="M362 434q-70 -3 -177 -148q-79 -107 -108 -185q-14 -39 1 -36q16 3 60 52q71 79 209 277q8 15 12 25q9 19 46 -2q42 -25 52 -62q4 -18 -1 -33q-9 -27 -72 -137q-10 -18 -29.5 -51t-28 -48t-22 -42t-27.5 -57q45 -15 60 -46t2.5 -66t-38.5 -68.5t-60.5 -58t-63.5 -29.5
q-9 0 -22.5 -1.5t-26 3.5t-25 12t-19.5 24.5t-9 40t6.5 59t26.5 81.5q-50 -12 -84.5 -40t-48 -60.5t-11.5 -66t20 -58.5q11 -16 -15 -17q-39 -2 -73 23q-13 9 -19 20q-27 57 2.5 114.5t99.5 97t157 47.5q22 46 57 105q-47 -54 -84 -80q-43 -30 -74 -21q-169 51 10 317
q45 67 100 115t96 61q62 19 113 -23q28 -22 23 -34q-1 -2 -3 -3q-3 -1 -12 -1zM200 -230q17 5 43 38t34 69t-26 58q-80 -165 -54 -165h3z" />
    <glyph glyph-name="t_0.003" unicode="&#xe022;" horiz-adv-x="222" 
d="M332 601q-1 -2 -6 -11.5t-6 -10.5q61 -2 126 -3.5t129 12.5t90 44q9 7 7 -6q-4 -29 -26 -64q-3 -4 -5 -7q-20 -22 -80 -32t-124.5 -8.5t-126.5 1.5q-3 1 -5 1h-5h-6h-5q-12 -24 -52 -99.5t-64 -122.5t-53 -105.5t-40 -89.5t-5 -34q23 -11 148 156l4 3q6 5 16 4.5t16 -6.5
q19 -14 4 -33q-73 -92 -101 -119q-85 -86 -136 -64q-56 24 -68 61q-19 59 53 194q133 251 139 263l-116 8t-138 9t-135 7.5t-140.5 4.5t-118.5 -2t-104 -9.5t-65 -19.5q-4 -2 -5 5q-4 26 21 65q29 42 71 53q46 7 94.5 6.5t140 -8.5t169 -17t181.5 -20.5t177 -16.5
q40 78 53 107q10 20 46 -2q42 -24 52 -61q5 -18 -1 -33z" />
    <glyph glyph-name="y_0.003" unicode="&#xe023;" horiz-adv-x="456" 
d="M226 395q-6 -18 -51.5 -101.5t-79 -152.5t-21.5 -75q19 -10 175 203q110 197 120 222q10 20 48 -3q42 -24 52 -59q5 -19 -3 -34q-145 -288 -207 -397q113 -28 153 -103t2 -156q-18 -32 -71 -41q-39 -8 -39 7q0 4 3 8q19 27 29.5 60.5t9 69t-30.5 65.5t-84 42
q-12 -25 -30 -55t-45 -72t-34 -53q-50 -79 -133 -88q-70 -8 -109 37q-48 55 -3 141q28 53 90.5 98.5t146.5 51.5q3 6 13 25t15 30q-77 -75 -117 -59q-56 24 -68 62q-19 60 53 193q104 195 118 231q10 19 47 -3q42 -25 52 -63q4 -16 -1 -31zM83 -46q-90 -18 -120 -83
q-19 -39 -4 -59.5t45 13.5q11 14 23 35z" />
    <glyph glyph-name="z_0.003" unicode="&#xe024;" horiz-adv-x="499" 
d="M541 488q-9 -9 -15 -13v-1q-27 -26 -51.5 -47t-47 -39t-88 -71.5t-136.5 -111.5q0 -2 2 -4q55 30 88 5.5t35.5 -82.5t-13.5 -132q51 -16 85.5 -44t50 -62t15 -72t-17.5 -75q-18 -32 -71 -41q-39 -8 -39 7q0 4 3 8q18 25 28 55.5t11 63.5t-19.5 62.5t-62.5 45.5
q-39 -108 -115 -183.5t-177 -80.5q-66 -3 -99 51t4 133q30 56 98 103t159 48h5q16 47 7.5 83t-44.5 40q-6 -6 -10 -14q-5 -4 -23 -3t-35 9t-13 15q16 29 117 142q117 133 143 168l-23 4q-9 2 -46 9t-51 9q-90 -202 -177 -312q-6 -8 -17 -9.5t-19 5.5t-9.5 17.5t5.5 18.5
q42 54 91.5 143t80.5 162q10 23 22.5 27t38.5 -4q160 -32 214 -28h3q10 2 16 2q43 8 64 33q5 9 15.5 11t19.5 -4t11 -16.5t-4 -18.5zM6 -195q29 -10 73 37.5t74 114.5h-2q-113 -5 -151 -74q-22 -39 -6 -67q4 -8 12 -11z" />
    <glyph glyph-name="a_0.004" unicode="&#xe025;" 
d="M362 436q-69 -4 -176 -148q-80 -108 -109 -187q-14 -38 2 -35q16 4 59 52q67 75 209 277q6 10 12 25q9 20 46 -2q41 -24 52 -61q5 -18 -1 -33q-9 -28 -72 -137q-64 -111 -47 -121q6 -3 26 12q41 31 62.5 40.5t46.5 5.5q42 -5 56.5 -48t-13.5 -100q-30 -56 -98 -103
t-159 -48q-62 0 -217.5 13.5t-313 26.5t-319 19t-278.5 -12.5t-149 -64.5q-12 -10 -16 16q-8 47 17 96q14 28 36 42q47 30 166 31.5t269.5 -17.5t302.5 -42t297.5 -40t221.5 -14q109 5 163 78q34 46 23 81q-10 32 -50 14q-12 -5 -25 -15q-3 -3 -9 -7l-2 -2h-1
q-51 -36 -86 -21q-55 23 -67 62q-10 27 0 69q-64 -81 -112 -114q-44 -29 -74 -20q-169 51 10 317q45 66 100 114t96 61q62 19 113 -23q27 -21 23 -33q-1 -2 -3 -3q-4 -3 -12 -1z" />
    <glyph glyph-name="b_0.004" unicode="&#xe026;" horiz-adv-x="476" 
d="M166 559l91 178q44 85 125 100q68 12 112 -31q52 -51 18 -133q-4 -9 -9 -19q-26 -49 -83 -93t-134 -55l-32 -61l-38 -70q61 72 104 103q44 29 74 20q168 -51 -10 -317q-45 -66 -100 -114t-96 -61q-49 -15 -91 8t-45 44q-16 -34 -22 -49q-9 -19 -46 2q-42 25 -52 62
q-5 18 1 33q4 13 64 127q4 9 14 27l129 247q-64 4 -236.5 20t-298.5 24t-272.5 11t-240.5 -16t-123 -61q-12 -10 -16 16q-8 47 17 96q14 28 36 42q43 27 144 30.5t235.5 -11.5t268 -34t280 -39.5t232.5 -25.5zM69 94l-14 -29q4 3 12 1q70 4 177 149q80 108 108 186
q14 38 -2 34t-59 -52q-73 -81 -213 -281q-3 -6 -9 -8zM364 662q-3 -9 -48 -97q78 21 102 81q16 39 1 58q-15 18 -40 -17q-8 -10 -15 -25z" />
    <glyph glyph-name="c_0.004" unicode="&#xe027;" horiz-adv-x="356" 
d="M331 434q-42 -6 -88 -56t-88 -128q-32 -61 -38 -106t10 -64.5t47 -15.5q26 4 55 23t56 31t58 3q37 -10 48 -50.5t-16 -94.5q-30 -56 -98 -103t-159 -48q-62 0 -217.5 13.5t-313 26.5t-319 19t-278.5 -12.5t-149 -64.5q-12 -10 -16 16q-8 47 17 96q14 28 36 42
q47 30 166 31.5t269.5 -17.5t302.5 -42t297.5 -40t221.5 -14q109 5 162 81q32 48 22 82q-9 31 -44 12q-1 -1 -3 -2q-6 -3 -17.5 -11t-18.5 -12l-1 -1h-1q-51 -29 -99.5 -32t-82 20.5t-51 64t-8 104t47.5 135.5q38 73 88.5 117.5t95.5 58.5q37 11 70 0t53 -32q15 29 22 49
q2 16 24 -2q19 -15 24 -35q1 -11 -23.5 -43.5t-59 -73t-45.5 -57.5q-10 -5 -16.5 15t-2.5 29q43 61 60 88z" />
    <glyph glyph-name="d_0.004" unicode="&#xe028;" horiz-adv-x="483" 
d="M221 136q-65 -81 -112 -113q-45 -30 -74 -20q-169 51 10 317q45 66 100 114t96 61q43 13 81 -3.5t51 -39.5l29 55q-62 4 -237 20.5t-298.5 24t-271 10.5t-240.5 -16.5t-122 -60.5q-12 -10 -16 16q-8 47 17 96q14 28 36 42q43 27 144 30.5t235 -11t266.5 -34t279.5 -39.5
t233 -26q22 41 53 103.5t39 77.5q43 83 124 94q68 10 112 -33q51 -51 19 -131l-8 -16q-26 -50 -84 -94.5t-136 -54.5q-194 -369 -210 -424q-3 -14 0 -16q23 -11 148 156l4 4q16 11 33 -2q7 -7 8 -17t-5 -17q-78 -99 -117 -135q-74 -68 -120 -48q-55 23 -67 62q-10 27 0 68z
M362 435q-69 -4 -176 -148q-80 -108 -109 -187q-14 -38 2 -35q16 4 59 52q73 82 194 255l32 62q-1 0 -2 1zM577 564q78 20 105 81q18 40 3 59q-16 18 -43 -19q-8 -10 -16 -24q-9 -22 -49 -97z" />
    <glyph glyph-name="e_0.004" unicode="&#xe029;" horiz-adv-x="356" 
d="M115 107q8 -44 48 -44q20 1 54 21.5t67.5 34.5t59.5 2q36 -15 46 -53t-15 -92q-30 -56 -98 -103t-159 -48q-62 0 -217.5 13.5t-313 26.5t-319 19t-278.5 -12.5t-149 -64.5q-12 -10 -16 16q-8 47 17 96q14 28 36 42q47 30 166 31.5t269.5 -17.5t302.5 -42t297.5 -40
t221.5 -14q107 5 160 82q33 48 23 84q-9 30 -42 10q-1 -1 -3 -2q-48 -31 -94.5 -42.5t-84 -4.5t-64 32.5t-36.5 64.5t1 95.5t45 121.5q38 73 88.5 117.5t95.5 58.5q36 11 68.5 0t52.5 -31q21 38 24 48q2 16 24 -2q19 -15 24 -35q1 -14 -47 -90t-123 -163.5t-132 -115.5z
M328 434q-83 -14 -174 -184q-25 -46 -34 -84q91 69 208 268z" />
    <glyph glyph-name="f_0.004" unicode="&#xe02a;" horiz-adv-x="288" 
d="M266 763q41 71 120.5 78.5t116.5 -44.5t0 -143q-26 -50 -83.5 -94t-135.5 -54q-10 -20 -146 -285q90 -2 157 7h6q8 -1 14 -8.5t7 -16.5q1 -10 -5.5 -17.5t-16.5 -8.5q-11 -1 -40 -4.5t-58.5 -6.5t-56.5 -3q3 -56 -17 -135t-55 -151t-88.5 -119.5t-108.5 -39.5
q-51 8 -68 62q-19 60 53 193l106 202h-7q-17 1 -3 28q14 28 32 29q2 0 4 -1l2 -1l142 277q-62 4 -237 20.5t-298 24t-270.5 10.5t-240.5 -16.5t-122 -60.5q-12 -10 -16 16q-8 47 17 96q14 28 36 42q43 27 143.5 30.5t234.5 -11t267 -34t279.5 -39.5t233.5 -26q23 45 47.5 95
t38 77t16.5 32zM54 -53q52 126 50 209l-84 -164q-11 -22 -19 -36.5t-19 -36t-18.5 -36.5t-16 -32.5t-13 -29.5t-8 -23t-3 -16.5t3.5 -6.5q21 -4 59 48t68 124zM314 564q79 21 105 83q16 39 1 57q-16 19 -44 -18q-2 -4 -5 -8zM104 164v-8l5 8h-5z" />
    <glyph glyph-name="g_0.004" unicode="&#xe02b;" 
d="M362 436q-69 -4 -176 -148q-80 -108 -109 -187q-14 -38 2 -35q16 4 59 52q69 77 210 278l11 24q9 19 46 -1q41 -23 53 -58q7 -20 -2 -37q-2 -6 -6 -13.5t-15.5 -29t-27 -50t-48 -89.5t-71.5 -135l-16 -28q56 -4 165.5 -14t198.5 -17.5t202 -15t202 -7.5t172 5.5t138 23.5
t75 48q12 10 16 -16q8 -47 -17 -96q-14 -28 -36 -42q-42 -27 -140.5 -31t-230.5 10.5t-262.5 33.5t-277 39.5t-233.5 26.5l-31 -58l-23 -42q-64 -123 -162 -155q-74 -24 -123 16q-50 40 -27 113q5 16 13 32q27 52 88.5 97.5t144.5 52.5l2 3l53 103q-41 -44 -70 -65
q-44 -29 -74 -20q-169 51 10 317q45 66 100 114t96 61q62 19 113 -23q27 -21 23 -33q-1 -2 -3 -3q-4 -3 -12 -1zM96 -73q-84 -16 -111 -78q-17 -40 0 -63q16 -23 43 7q7 7 13 17q35 76 55 117z" />
    <glyph glyph-name="h_0.004" unicode="&#xe02c;" horiz-adv-x="478" 
d="M256 739q46 86 128 99q67 11 110 -33q51 -51 18 -132q-4 -9 -9 -19q-26 -49 -83 -93t-134 -55l-32 -61l-40 -76q64 84 101 109q44 30 74 20q18 -4 30 -12q29 -13 50 -42t11 -57q-6 -18 -51 -99.5t-77 -149t-20 -73.5q23 -11 148 156l3 4q16 11 33 -2q8 -7 9 -16.5
t-6 -17.5q-78 -100 -118 -136q-73 -67 -118 -47q-56 24 -68 62q-19 58 53 193l84 159q4 20 -9 15q-17 -6 -57 -51q-33 -37 -80 -105.5t-101 -152.5t-73 -112l-2 -4q-6 -11 -23 -8l-6 2q-30 10 -54.5 41t-13.5 61q5 16 64 128l14 27q39 74 128 246q-61 4 -195 16t-239 21.5
t-238 15t-227 2t-170.5 -22.5t-100.5 -54q-12 -10 -16 16q-8 47 17 96q14 28 36 42q43 27 144 30.5t235 -11.5t267.5 -34t280 -39.5t233.5 -25.5q21 40 51.5 102t38.5 78zM364 666l-48 -101q98 38 121 100q13 36 -7 50q-20 15 -48 -20q-9 -12 -18 -29z" />
    <glyph glyph-name="i_0.004" unicode="&#xe02d;" horiz-adv-x="219" 
d="M226 395q-6 -18 -51.5 -101t-78.5 -152.5t-22 -75.5q10 -5 33.5 10.5t52.5 33t50 14.5q43 -5 58 -47.5t-14 -100.5q-30 -56 -98 -103t-159 -48q-62 0 -217.5 13.5t-313 26.5t-319 19t-278.5 -12.5t-149 -64.5q-12 -10 -16 16q-8 47 17 96q14 28 36 42q47 30 166 31.5
t269.5 -17.5t302.5 -42t297.5 -40t221.5 -14q109 5 163 78q34 46 23 81q-9 32 -48 15q-18 -8 -38 -25h-1q-52 -37 -88 -22q-56 24 -68 62q-19 58 53 193q104 195 118 231q10 19 47 -3q42 -25 52 -63q4 -16 -1 -31zM327 595q-2 -12 -30 -46t-40 -61q-9 -7 -28 10t-27 30
q-10 24 11.5 79.5t23.5 71.5q0 13 33 -6q46 -26 56 -59q2 -10 1 -19z" />
    <glyph glyph-name="j_0.004" unicode="&#xe02e;" horiz-adv-x="222" 
d="M230 394l-222 -415q62 -4 237 -20t297.5 -24t269 -10.5t239 17t120.5 60.5q12 10 16 -16q8 -47 -17 -96q-14 -28 -36 -42q-43 -27 -143 -31t-233 11t-265 34t-278.5 39.5t-233.5 26.5q-83 -160 -102 -192q-42 -77 -120 -87t-121.5 46t-0.5 138q27 51 86 95.5t139 53.5
l271 509q10 19 48 -3q43 -25 52 -61q5 -18 -3 -33zM308 594q-2 -11 -29.5 -44.5t-39.5 -61.5q-9 -7 -29 10.5t-26 29.5q-10 24 11.5 80.5t23.5 70.5q0 13 32 -5q45 -25 55 -59q4 -11 2 -21zM-169 -76q-81 -18 -109 -81q-17 -39 -2 -59t43 17q11 13 21 33z" />
    <glyph glyph-name="k_0.004" unicode="&#xe02f;" horiz-adv-x="478" 
d="M256 739q46 88 128 101q67 11 110 -34q50 -51 18 -132q-4 -10 -9 -20q-26 -49 -83 -93t-134 -55l-32 -61v1l-40 -77q64 84 101 109q31 21 55 22t56 -17l1 -1q27 -15 44.5 -42t8.5 -53q-4 -10 -55 -25t-108.5 -39t-74.5 -56q-13 -25 5.5 -79.5t50 -92.5t52.5 -23
q44 32 130 149l3 4q15 12 33 -2q8 -7 9 -16.5t-6 -17.5q-80 -102 -122 -139q-70 -63 -114 -44q-58 25 -87 101.5t-10 141.5q-30 -44 -83 -126t-71 -109l-2 -4q-6 -12 -23 -7q-4 0 -6 1q-30 10 -54.5 41t-13.5 61q5 16 64 128q4 9 14 27q4 8 25.5 49t49.5 95t53 102
q-61 4 -195 16t-239 21.5t-238 15t-227 2t-170.5 -22.5t-100.5 -54q-12 -10 -16 16q-8 47 17 96q14 28 36 42q43 27 144 30.5t235 -11.5t267.5 -34t280 -39.5t233.5 -25.5q19 38 50 100.5t40 79.5zM364 666q-2 -5 -48 -101q100 37 116 94q9 31 -12 44q-23 14 -45 -16
q-6 -9 -11 -21zM348 420q8 13 -1 12q-19 0 -61 -48q-23 -26 -53 -67q10 9 48.5 40.5t55.5 49.5q8 8 11 13z" />
    <glyph glyph-name="l_0.004" unicode="&#xe030;" horiz-adv-x="222" 
d="M256 739q38 82 118 96q68 13 114 -29q54 -49 26 -128q-5 -12 -11 -24q-26 -50 -83.5 -94t-135.5 -54q-54 -103 -77.5 -148t-65.5 -128.5t-57.5 -122.5t-9.5 -42q23 -11 148 156l4 3q6 5 16 4.5t16 -6.5q19 -14 4 -33q-73 -92 -101 -119q-85 -86 -136 -64q-56 22 -68 61
q-19 59 53 194l129 246q-62 4 -195.5 16t-238.5 21.5t-238.5 15t-227 2t-170 -22.5t-100.5 -54q-12 -10 -16 16q-8 47 17 96q14 28 36 42q43 27 144 30.5t235 -11t267 -34t280 -39.5t233 -26q80 156 91 180zM364 666q-4 -7 -22.5 -46t-27.5 -56q88 24 110 82q13 35 -5 52
q-19 17 -43 -15q-6 -7 -12 -17z" />
    <glyph glyph-name="m_0.004" unicode="&#xe031;" horiz-adv-x="739" 
d="M231 397q-5 -8 -15 -25q61 79 99 106q44 30 74 20q18 -4 30 -12q29 -13 50 -42t11 -57q-2 -6 -11 -24q69 89 106 115q44 30 74 20q18 -4 30 -12q29 -13 50 -42t11 -57q-6 -18 -50.5 -99.5t-76.5 -149t-21 -73.5q6 -3 18 6q25 24 58 40t60 12q27 -3 43.5 -24t16.5 -53
t-19 -70q-30 -56 -98 -103t-159 -48q-62 0 -217.5 13.5t-313 26.5t-319 19t-278.5 -12.5t-149 -64.5q-12 -10 -16 16q-8 47 17 96q14 28 36 42q47 30 166 31.5t269.5 -17.5t302.5 -42t297.5 -40t221.5 -14q110 5 164 79q33 46 21 81q-10 31 -52 11q-4 -2 -9 -5
q-67 -58 -110 -39q-56 24 -68 62q-19 58 53 193q40 70 84 159q5 27 -20 9q-17 -13 -46 -45q-45 -50 -148 -208t-106 -163l-2 -3q-4 -11 -23 -8l-6 2q-29 10 -53.5 41t-14.5 61q3 9 29 61q18 40 46 94l84 159q5 27 -20 9q-17 -13 -46 -45q-33 -37 -80.5 -106t-100.5 -152.5
t-73 -112.5l-2 -3q-6 -11 -23 -8l-6 2q-30 10 -54.5 41t-13.5 61q5 16 64 128l14 27q108 199 122 233q9 19 48 -3q44 -24 53 -60q6 -19 -3 -34z" />
    <glyph glyph-name="n_0.004" unicode="&#xe032;" horiz-adv-x="478" 
d="M231 397l-15 -25q61 79 99 106q44 29 74 20q12 -3 30 -12q29 -14 50 -43t11 -57q-6 -18 -50.5 -99.5t-77 -148.5t-20.5 -73q8 -4 33 19l2 2q47 46 101 38q42 -7 56.5 -49t-13.5 -99q-30 -56 -98 -103t-159 -48q-62 0 -217.5 13.5t-313 26.5t-319 19t-278.5 -12.5
t-149 -64.5q-12 -10 -16 16q-8 47 17 96q14 28 36 42q47 30 166 31.5t269.5 -17.5t302.5 -42t297.5 -40t221.5 -14q108 5 163 77q34 46 23 82q-9 32 -49 14q-11 -5 -22 -13q-62 -52 -103 -34q-56 24 -68 62q-19 60 53 193q6 12 23.5 44.5t33 62t27.5 53.5q5 27 -20 9
q-17 -13 -46 -45q-33 -37 -80.5 -106t-100.5 -152.5t-73 -112.5l-2 -4q-6 -10 -23 -7q-2 0 -6 2q-30 10 -54.5 41t-13.5 61q4 13 64 127q4 9 14 27q112 210 122 234q9 19 48 -3q43 -25 53 -60q6 -19 -3 -34z" />
    <glyph glyph-name="o_0.004" unicode="&#xe033;" horiz-adv-x="401" 
d="M354 434q-55 -3 -128.5 -94t-115.5 -181.5t-21 -93.5q32 -5 93 75t107 171q-13 42 11 82.5t56 29.5q38 -15 6 -81l-4 -7v-1q-3 -6 -7 -18q64 -20 108 -59.5t62.5 -87t17 -98t-23.5 -95.5q-27 -56 -96 -103t-161 -48q-62 0 -217.5 13.5t-313 26.5t-319 19t-278.5 -12.5
t-149 -64.5q-12 -10 -16 16q-8 47 17 96q14 28 36 42q47 30 166 31.5t269.5 -17.5t302.5 -42t297.5 -40t221.5 -14q63 3 106 41t55 91t6.5 107.5t-37 96t-78.5 50.5q-29 -67 -76 -131t-104 -104.5t-99 -27.5q-103 32 -75 160q23 107 116 219q79 94 144 114q63 19 114 -24
q27 -22 21 -34q0 -1 -2 -2q-4 -1 -12 -1z" />
    <glyph glyph-name="p_0.004" unicode="&#xe034;" horiz-adv-x="482" 
d="M224 394l-4 -9q59 67 96 93q42 29 74 20q168 -51 -10 -317q-45 -67 -100 -114.5t-97 -60.5q-46 -15 -86.5 5.5t-48.5 43.5q-13 -25 -41 -75q62 -4 195.5 -16t239 -21.5t238.5 -15t227 -2t170.5 22.5t100.5 54q12 10 16 -16q8 -47 -17 -96q-14 -28 -36 -42
q-43 -27 -144 -30.5t-235.5 11.5t-268 34t-280 39.5t-232.5 25.5q-22 -41 -54 -107.5t-41 -83.5q-41 -78 -120 -87q-68 -8 -112 36q-52 53 -16 134l6 13q26 50 84 94.5t137 54.5l6 10q36 68 140.5 270t115.5 229q9 19 45 -2q42 -25 53 -62q4 -18 -1 -33zM73 101l-19 -35
q5 2 8 0q70 4 177 148q80 108 108 187q14 38 -2 34.5t-59 -51.5q-82 -93 -212 -282zM-210 -166l45 89q-94 -29 -124 -94q-18 -39 -1 -58q17 -20 49 15q16 18 31 48z" />
    <glyph glyph-name="q_0.004" unicode="&#xe035;" 
d="M362 434q-70 -3 -177 -148q-79 -107 -108 -185q-14 -39 1 -36q16 3 60 52q71 79 209 277q8 15 12 25q9 19 46 -2q42 -25 52 -62q4 -18 -1 -33q-9 -27 -72 -137q-12 -21 -28 -47.5t-27 -45.5t-22 -41q22 -9 30.5 -16t17.5 -21q14 -29 14 -68.5t-21 -82.5t-50 -78
t-71.5 -55t-86.5 -14q-49 7 -67 62q-15 44 43 169q-78 -23 -214.5 -30t-273.5 -6.5t-270.5 -3t-236 -27.5t-140.5 -73q-12 -10 -16 16q-8 47 17 96q14 28 36 42q40 25 148.5 30.5t244.5 -2t274.5 -15t265 -3t189.5 28.5l59 110q-52 -60 -90 -87q-43 -30 -74 -21
q-169 51 10 317q45 67 100 115t96 61q62 19 113 -23q28 -22 23 -34q-1 -2 -3 -3q-3 -1 -12 -1zM192 -227q17 -4 46 24.5t50.5 68.5t27.5 80t-24 58q-26 -50 -41 -78.5t-34.5 -69t-25.5 -61t1 -22.5z" />
    <glyph glyph-name="r_0.004" unicode="&#xe036;" horiz-adv-x="353" 
d="M266 604q-2 -9 -9 -23.5t-22 -41t-21 -38.5q-2 -4 -2 -5q28 -13 45.5 -23t44.5 -29t37.5 -41t2.5 -44q-7 -18 -48 -92t-70 -134.5t-18 -66.5q12 -6 60 29.5t76 28.5q42 -10 56 -50t-13 -98q-30 -56 -98 -103t-159 -48q-62 0 -217.5 13.5t-313 26.5t-319 19t-278.5 -12.5
t-149 -64.5q-12 -10 -16 16q-8 47 17 96q14 28 36 42q47 30 166 31.5t269.5 -17.5t302.5 -42t297.5 -40t221.5 -14q109 5 163 79q34 46 23 80q-10 33 -51 13q-11 -5 -22 -13q-61 -48 -101 -32q-55 23 -67 62q-20 57 53 193q10 20 43.5 81.5t46.5 87.5q-23 14 -40 22
q-67 -154 -174 -290q-6 -8 -16.5 -9.5t-18.5 4.5q-20 15 -5 36q105 135 171 287l-1 1q-37 23 -46 36q-10 24 20.5 90.5t33.5 85.5q0 12 39 -7q55 -28 68 -62q4 -11 2 -20z" />
    <glyph glyph-name="s_0.004" unicode="&#xe037;" horiz-adv-x="365" 
d="M311 434q-67 -10 -139 -127q-55 -88 -30 -113q162 61 241 -9q57 -51 44 -141q-14 -94 -93 -157q-78 -62 -189 -62q-68 0 -287.5 19.5t-408.5 34t-365.5 0t-215.5 -71.5q-12 -10 -16 16q-8 47 17 96q14 28 36 42q47 30 166 30.5t269.5 -19.5t303 -43.5t297.5 -39.5
t221 -10q100 8 156 90q47 66 33 130t-82 72q-6 1 -13 1q24 -11 30 -34t-9 -48q-25 -38 -85 -65.5t-138 -16.5h-1q-24 3 -43 21q-27 26 -18 53.5t29.5 47.5t38.5 26q-108 43 3 229q49 81 142 111q38 11 71 0t52 -32q13 22 22 49q2 15 24 -1q20 -16 25 -36q1 -11 -23.5 -43.5
t-59 -73t-45.5 -57.5q-11 -5 -17 15t-3 29q38 51 60 88zM134 143q-93 -43 -93 -67q-1 -8 5 -12t17 -6q33 2 70 33q38 33 14 47z" />
    <glyph glyph-name="t_0.004" unicode="&#xe038;" horiz-adv-x="222" 
d="M332 601q-2 -7 -9 -20q50 -4 58 -4q10 -6 -3.5 -22.5t-22.5 -18.5q-28 2 -53 2q-15 -30 -52.5 -100.5t-66 -125.5t-58 -114t-43 -94t-7.5 -38q5 -2 18 6q30 21 42.5 29.5t35.5 17t39 4.5q41 -11 54.5 -50.5t-13.5 -96.5q-30 -56 -98 -103t-159 -48q-62 0 -217.5 13.5
t-313 26.5t-319 19t-278.5 -12.5t-149 -64.5q-12 -10 -16 16q-8 47 17 96q14 28 36 42q47 30 166 31.5t269.5 -17.5t302.5 -42t297.5 -40t221.5 -14q109 5 163 78q34 46 23 81q-10 33 -52 13q-5 -2 -11 -6q-65 -57 -108 -38q-56 24 -68 61q-19 59 53 194q56 104 143 274
q-36 -4 -49 -8q-10 -5 -12 12q-2 29 15 49q10 8 75 4q41 77 52 104q10 20 46 -2q42 -24 52 -61q5 -18 -1 -33z" />
    <glyph glyph-name="u_0.004" unicode="&#xe039;" horiz-adv-x="456" 
d="M462 395q-6 -18 -51.5 -101.5t-79 -152.5t-21.5 -75q4 -2 33 19q38 26 58 34.5t44 4.5q42 -7 56.5 -49t-13.5 -99q-30 -56 -98 -103t-159 -48q-62 0 -217.5 13.5t-313 26.5t-319 19t-278.5 -12.5t-149 -64.5q-12 -10 -16 16q-8 47 17 96q14 28 36 42q47 30 166 31.5
t269.5 -17.5t302.5 -42t297.5 -40t221.5 -14q109 5 163 79q34 45 23 80q-10 33 -51 14q-9 -5 -20 -12q-62 -51 -102 -34q-56 24 -68 62q-6 18 -3 46q-116 -129 -165 -108q-56 24 -68 62q-19 60 53 193q104 195 118 231q10 19 47 -3q42 -25 52 -63q4 -16 -1 -31
q-6 -18 -51.5 -101t-78.5 -152.5t-22 -75.5q21 -10 178 206q100 191 112 220q10 19 47 -3q42 -25 52 -63q4 -16 -1 -31z" />
    <glyph glyph-name="x_0.004" unicode="&#xe03a;" horiz-adv-x="421" 
d="M301 412q-2 -11 -12 -69q122 142 122 156q10 8 38 -11t13 -36q-93 -92 -184 -194q-24 -183 -4 -192q7 -4 26 12q4 6 10 10q36 25 54 31.5t45 4.5q43 -3 57.5 -47t-14.5 -101q-30 -56 -98 -103t-159 -48q-62 0 -217.5 13.5t-313 26.5t-319 19t-278.5 -12.5t-149 -64.5
q-12 -10 -16 16q-8 47 17 96q14 28 36 42q47 30 166 31.5t269.5 -17.5t302.5 -42t297.5 -40t221.5 -14q109 5 163 78q34 46 23 81q-9 32 -49 15q-11 -5 -23 -14q-61 -49 -101 -33q-26 11 -49 33t-30 42q-2 6 -4 14q-64 -82 -67 -93q-5 -5 -20 2.5t-27 19t-8 16.5
q52 57 118 131q0 7 0.5 21t0.5 22l11 155q-72 -118 -131 -192q-15 -19 -36 -4q-19 15 -4 36q65 79 158 236q10 16 14 28q0 9 7 14q8 12 32.5 9t50.5 -12.5t45 -30t15 -41.5z" />
    <glyph glyph-name="y_0.004" unicode="&#xe03b;" horiz-adv-x="454" 
d="M226 395q-6 -18 -51.5 -101.5t-79 -152.5t-21.5 -75q19 -10 175 203q110 197 120 222q10 20 48 -3q42 -24 52 -59q5 -19 -3 -34q-44 -87 -223 -417q57 -4 166.5 -14t197.5 -17.5t201 -15t200.5 -7t170 6t137 24t74.5 47.5q12 10 16 -16q8 -47 -17 -96q-14 -28 -36 -42
q-42 -27 -139.5 -31t-228.5 10.5t-260 33t-275.5 39t-233.5 27.5q-25 -47 -46.5 -82.5t-42 -64.5t-24.5 -34q-53 -80 -137 -90q-70 -8 -109 36q-46 54 -1 141q28 54 93 100.5t151 50.5l3 5q22 40 39 76q-77 -75 -117 -59q-56 24 -68 62q-19 60 53 193q104 195 118 231
q10 19 47 -3q42 -25 52 -63q4 -16 -1 -31zM68 -72q-92 -16 -125 -81q-20 -40 -5 -62q14 -21 43 12q13 13 25 36q26 36 62 95z" />
    <glyph glyph-name="z_0.004" unicode="&#xe03c;" horiz-adv-x="499" 
d="M541 488q-9 -9 -15 -13v-1q-27 -26 -51.5 -47t-47 -39t-88 -71.5t-136.5 -111.5q72 25 108 -8t33.5 -95t-33.5 -128q43 -4 166.5 -15t195 -16.5t187.5 -12.5t190 -5.5t154 7.5t128.5 24t67.5 46q12 10 16 -16q8 -47 -17 -96q-14 -28 -36 -42q-49 -31 -183.5 -30.5
t-268.5 18.5t-332 46.5t-292 38.5q-30 -58 -70.5 -109t-79.5 -77q-100 -80 -194 -68q-69 8 -90 62q-17 46 13 104q30 56 98 103t159 48h30l3 5q29 57 24 109q-5 46 -40 30q-6 -3 -14 -8q-7 -3 -24.5 -1.5t-34 8.5t-12.5 14q16 29 117 142q117 133 143 168l-23 4q-9 2 -46 9
t-51 9q-90 -202 -177 -312q-6 -8 -17 -9.5t-19 5.5t-9.5 17.5t5.5 18.5q42 54 91.5 143t80.5 162q10 23 22.5 27t38.5 -4q160 -32 214 -28h3q10 2 16 2q43 8 64 33q5 9 15.5 11t19.5 -4t11 -16.5t-4 -18.5zM106 -70q-92 -4 -152 -72q-37 -43 -30 -69q7 -27 58 7
q56 36 140 135q-2 0 -8 -0.5t-8 -0.5z" />
    <glyph glyph-name="a_0.005" unicode="&#xe03d;" 
d="M362 436q-69 -4 -176 -148q-80 -108 -109 -187q-14 -38 2 -35q16 4 59 52q67 75 209 277q6 10 12 25q9 19 46 -2q42 -23 53 -58q7 -19 -2 -36q-4 -8 -23 -41.5t-32 -58t-32 -62.5t-28.5 -66.5t-16 -58t-1 -49t23.5 -27.5q22 -10 57 8.5t72 58.5t74 92.5t63.5 112
t41 114.5t6.5 103t-41 75q-8 8 10 11q38 5 75 -17q14 -9 22 -19q32 -37 33 -98t-23 -126t-68 -131.5t-96.5 -117t-115 -79.5t-117.5 -23q-86 10 -115 71t-4 142q-64 -81 -112 -114q-44 -29 -74 -20q-169 51 10 317q45 66 100 114t96 61q62 19 113 -23q27 -21 23 -33
q-1 -2 -3 -3q-4 -3 -12 -1z" />
    <glyph glyph-name="b_0.005" unicode="&#xe03e;" horiz-adv-x="476" 
d="M364 662q-9 -24 -110 -217l-38 -70q61 72 104 103q44 29 74 20q164 -51 -5 -309q93 32 165 81q76 52 111 119t11 123q-2 9 8 8q24 -1 51 -32q18 -22 25 -47q16 -60 -18 -123t-104 -105q-135 -80 -305 -97q-79 -90 -145 -110q-49 -15 -91 8t-45 44q-16 -34 -22 -49
q-9 -19 -46 2q-42 25 -52 62q-5 18 1 33q4 13 64 127q4 9 14 27q36 68 140.5 270t115.5 229q9 19 45 -2q42 -25 53 -62q4 -18 -1 -33zM99 133q34 3 86 11q84 90 145 209q42 82 23 83q-15 0 -62 -53q-70 -78 -192 -250zM143 104q-43 -5 -65 -14.5t-10 -23.5q30 1 75 38z
M56 65l-1 1v-1h1z" />
    <glyph glyph-name="c_0.005" unicode="&#xe03f;" horiz-adv-x="356" 
d="M331 434q-78 -11 -176 -184q-37 -66 -45 -130t23 -110t101 -48q53 1 107.5 34t97.5 84t75.5 115.5t45.5 126t2 116.5t-49 87q-8 8 10 11q38 5 75 -17q14 -9 22 -19q32 -38 38 -96.5t-12 -121.5t-57 -127t-91.5 -114.5t-122 -82.5t-141.5 -32q-46 0 -91 14.5t-86.5 52.5
t-56.5 93q-28 102 41 234q38 73 88.5 117.5t95.5 58.5q37 11 70 0t53 -32q15 29 22 49q2 16 24 -2q19 -15 24 -35q1 -11 -23.5 -43.5t-59 -73t-45.5 -57.5q-10 -5 -16.5 15t-2.5 29q43 61 60 88z" />
    <glyph glyph-name="d_0.005" unicode="&#xe040;" horiz-adv-x="483" 
d="M221 136q-65 -81 -112 -113q-45 -30 -74 -20q-169 51 10 317q45 66 100 114t96 61q43 13 81 -3.5t51 -39.5q145 279 156 307q9 19 47 -3q42 -25 52 -61q5 -18 -2 -33q-32 -68 -74 -150t-73 -141.5t-63 -123.5t-51 -108.5t-30.5 -84t-7.5 -62.5t23 -31q27 -11 69.5 17
t86 79.5t81.5 119.5t60.5 133.5t18 124.5t-42.5 90q-8 8 10 11q38 5 75 -17q14 -9 22 -19q32 -37 33 -98t-23 -126t-68 -131.5t-97 -117t-115 -79.5t-117 -23q-42 5 -71 27t-40.5 52t-15.5 65t5 67zM362 435q-69 -4 -176 -148q-80 -108 -109 -187q-14 -38 2 -35q16 4 59 52
q73 82 194 255l32 62q-1 0 -2 1z" />
    <glyph glyph-name="e_0.005" unicode="&#xe041;" horiz-adv-x="356" 
d="M418 476q1 -14 -46.5 -87.5t-124.5 -162t-138 -125.5q-2 -61 29 -99t96 -40q53 1 107.5 34t97.5 84t75.5 115.5t45.5 126t2 116.5t-49 87q-8 8 10 11q38 5 75 -17q14 -9 22 -19q32 -38 38 -96.5t-12 -121.5t-57 -127t-91.5 -114.5t-122 -82.5t-141.5 -32q-46 0 -91 14.5
t-86.5 52.5t-56.5 93q-28 102 41 234q38 73 88.5 117.5t95.5 58.5q37 11 70 0t53 -32q15 29 22 49q2 16 24 -2q19 -15 24 -35zM331 434q-78 -11 -176 -184q-21 -36 -34 -81q90 78 210 265z" />
    <glyph glyph-name="f_0.005" unicode="&#xe042;" horiz-adv-x="288" 
d="M234 697q10 20 47 -2q42 -25 52 -63q4 -16 -1 -31q-2 -6 -31.5 -67t-77 -155.5t-86.5 -171.5q262 -36 417 63q77 49 112 117t10 125q-2 9 8 8q24 -1 51 -32q18 -22 25 -47q16 -60 -18 -123t-104 -105q-177 -105 -493 -54q2 -57 -18.5 -135.5t-55.5 -149.5t-87.5 -117.5
t-107.5 -38.5q-51 8 -68 62q-19 60 53 193l106 202h-7q-17 1 -3 28q14 28 32 29q2 0 4 -1l2 -1q230 444 239 467zM54 -53q52 126 50 209l-84 -164q-11 -22 -19 -36.5t-19 -36t-18.5 -36.5t-16 -32.5t-13 -29.5t-8 -23t-3 -16.5t3.5 -6.5q21 -4 59 48t68 124zM104 164v-8l5 8
h-5z" />
    <glyph glyph-name="g_0.005" unicode="&#xe043;" 
d="M362 436q-69 -4 -176 -148q-80 -108 -109 -187q-14 -38 2 -35q16 4 59 52q69 77 210 278l11 24q9 19 46 -1q41 -23 53 -58q7 -20 -2 -37q-14 -33 -38 -77t-57 -100.5t-45 -78.5q35 12 87.5 28t80 25.5t67.5 29t79 46.5q74 52 106.5 121.5t5.5 125.5q-3 9 8 8
q25 -1 53 -32q18 -20 25 -44q18 -59 -13 -123.5t-100 -108.5q-65 -42 -133.5 -66.5t-169.5 -47.5t-128 -30q-14 -25 -38.5 -71t-32.5 -60q-69 -135 -130 -152q-54 -15 -89 21q-32 33 -35.5 66t20 64.5t58.5 59t89 58.5l53 103q-41 -44 -70 -65q-44 -29 -74 -20
q-169 51 10 317q45 66 100 114t96 61q62 19 113 -23q27 -21 23 -33q-1 -2 -3 -3q-4 -3 -12 -1zM70 -117q1 3 5 9q-81 -62 -63 -80q8 -6 33 32l7 10z" />
    <glyph glyph-name="h_0.005" unicode="&#xe044;" horiz-adv-x="478" 
d="M363 662q-11 -30 -109 -217l-40 -76q64 84 101 109q44 30 74 20q18 -4 30 -12q29 -13 50 -42t11 -57q-21 -55 -53.5 -121t-56 -110.5t-41.5 -87.5t-15 -69.5t30 -37.5q22 -10 57 8.5t72 58.5t74 92.5t63.5 112t41 114.5t6.5 103t-41 75q-8 8 10 11q38 5 75 -17
q14 -9 22 -19q32 -37 33 -97.5t-23 -125.5t-68 -131t-97 -116.5t-115 -80t-117 -24.5q-66 7 -99.5 49t-26.5 117t57 170l84 159q4 20 -9 15q-17 -6 -57 -51q-33 -37 -80 -105.5t-101 -152.5t-73 -112l-2 -4q-6 -11 -23 -8l-6 2q-30 10 -54.5 41t-13.5 61q5 16 64 128l14 27
q30 55 137 262.5t118 235.5q9 19 45 -2q42 -25 53 -62q4 -18 -1 -33z" />
    <glyph glyph-name="i_0.005" unicode="&#xe045;" horiz-adv-x="219" 
d="M226 395q-105 -185 -133 -248q-65 -151 -4 -186q21 -12 55.5 5.5t71.5 57.5t74 92.5t64 113t41.5 116t7 104t-40.5 75.5q-8 8 10 11q38 5 75 -17q14 -8 22 -19q32 -37 33 -97.5t-23 -125.5t-68 -130.5t-97 -116.5t-115 -80.5t-117 -24.5q-108 10 -127 94.5t55 241.5
q9 19 59 113t59 118q10 19 47 -3q42 -25 52 -63q4 -16 -1 -31zM327 595q-2 -12 -30 -46t-40 -61q-9 -7 -28 10t-27 30q-10 24 11.5 79.5t23.5 71.5q0 13 33 -6q46 -26 56 -59q2 -10 1 -19z" />
    <glyph glyph-name="j_0.005" unicode="&#xe046;" horiz-adv-x="222" 
d="M444 144q-64 -41 -131.5 -66t-166.5 -47t-126 -30l-71 -133q-73 -136 -131 -152q-53 -15 -89 21q-32 33 -35 66.5t22.5 65.5t61 59.5t89.5 59.5q10 19 61.5 119.5t80.5 153.5q111 198 124 230q10 19 48 -3q43 -25 52 -61q5 -18 -3 -33q-12 -26 -28.5 -56.5t-59.5 -108.5
t-85 -157q29 10 82 26t78 25t64.5 28t77.5 46q74 52 106.5 121.5t5.5 125.5q-3 9 8 8q25 -1 53 -32q18 -20 25 -44q18 -59 -13 -123.5t-100 -108.5zM308 594q-2 -11 -29.5 -44.5t-39.5 -61.5q-9 -7 -29 10.5t-26 29.5q-10 24 11.5 80.5t23.5 70.5q0 13 32 -5q45 -25 55 -59
q4 -11 2 -21zM-195 -118l6 10q-82 -64 -63 -80q7 -7 33 31l7 11z" />
    <glyph glyph-name="k_0.005" unicode="&#xe047;" horiz-adv-x="478" 
d="M363 662q-11 -30 -109 -217v1l-40 -77q64 84 101 109q31 21 55 22t56 -17l1 -1q27 -15 44.5 -42t8.5 -53q-4 -10 -48 -25t-102.5 -37.5t-88.5 -44.5q-18 -268 100 -318q2 -1 3 -1q22 -10 57 8.5t72 58.5t74 92.5t63.5 112t41 114.5t6.5 103t-41 75q-8 8 10 11
q38 5 75 -17q14 -9 22 -19q32 -37 33 -97.5t-23 -125t-68 -130t-97 -116.5t-115 -81t-117 -25q-67 6 -120.5 92t-37.5 221q-43 -72 -147 -224l-2 -4q-6 -12 -23 -7q-4 0 -6 1q-30 10 -54.5 41t-13.5 61q5 16 64 128q4 9 14 27q35 66 139.5 268.5t115.5 229.5q9 19 45 -2
q42 -25 53 -62q4 -18 -1 -33zM348 420q8 13 -1 12q-19 0 -61 -48q-23 -26 -53 -67q10 9 48.5 40.5t55.5 49.5q8 8 11 13z" />
    <glyph glyph-name="l_0.005" unicode="&#xe048;" horiz-adv-x="222" 
d="M363 662q-15 -40 -44.5 -100.5t-62 -120.5t-68 -126t-63 -124t-46 -107t-18 -81.5t22.5 -41.5q22 -10 57 8.5t72 58.5t74 92.5t63.5 112t41 114.5t6.5 103t-41 75q-8 8 10 11q38 5 75 -17q14 -8 22 -19q32 -37 33 -97.5t-23 -125.5t-68 -131t-97 -116.5t-115 -80
t-117 -24.5q-29 3 -55.5 17.5t-49 47t-22 84t25.5 126.5q9 36 145.5 277t144.5 282q9 19 45 -2q42 -25 53 -62q4 -18 -1 -33z" />
    <glyph glyph-name="m_0.005" unicode="&#xe049;" horiz-adv-x="739" 
d="M231 397q-5 -8 -15 -25q61 79 99 106q44 30 74 20q18 -4 30 -12q29 -13 50 -42t11 -57q-2 -6 -11 -24q69 89 106 115q44 30 74 20q18 -4 30 -12q30 -13 51.5 -42.5t9.5 -56.5q-14 -31 -41 -89q-40 -87 -58 -128.5t-37.5 -95t-18 -79t19.5 -34.5q22 -11 57 8t72 59
t74 92.5t63.5 112t41 114.5t6.5 103t-41 75q-8 8 10 11q38 5 75 -17q14 -9 22 -19q32 -37 33 -97.5t-23 -125t-68 -130.5t-97 -116.5t-115 -80.5t-117 -25q-104 9 -124 99.5t54 236.5q9 18 39.5 74.5t44.5 84.5q5 27 -20 9q-17 -13 -46 -45q-45 -50 -148 -208t-106 -163
l-2 -3q-4 -11 -23 -8l-6 2q-29 10 -53.5 41t-14.5 61q3 9 29 61q18 40 46 94l84 159q5 27 -20 9q-17 -13 -46 -45q-33 -37 -80.5 -106t-100.5 -152.5t-73 -112.5l-2 -3q-6 -11 -23 -8l-6 2q-30 10 -54.5 41t-13.5 61q5 16 64 128l14 27q108 199 122 233q9 19 48 -3
q44 -24 53 -60q6 -19 -3 -34z" />
    <glyph glyph-name="n_0.005" unicode="&#xe04a;" horiz-adv-x="478" 
d="M231 397l-15 -25q61 79 99 106q44 29 74 20q12 -3 30 -12q30 -14 52 -44t9 -56q-112 -217 -130 -259q-54 -125 -17 -159q5 -4 11 -7q22 -11 56.5 7t71.5 58t74 92.5t63.5 112.5t41 115t7 103.5t-40.5 75.5q-8 8 10 11q38 5 75 -17q14 -9 22 -19q32 -37 33 -97.5t-23 -125
t-68 -130t-97 -116t-115 -80.5t-117 -26q-99 8 -119.5 101.5t50.5 233.5q6 12 23.5 44.5t33 62t27.5 53.5q5 27 -20 9q-17 -13 -46 -45q-33 -37 -80.5 -106t-100.5 -152.5t-73 -112.5l-2 -4q-6 -10 -23 -7q-2 0 -6 2q-30 10 -54.5 41t-13.5 61q4 13 64 127q4 9 14 27
q112 210 122 234q9 19 48 -3q43 -25 53 -60q6 -19 -3 -34z" />
    <glyph glyph-name="o_0.005" unicode="&#xe04b;" horiz-adv-x="401" 
d="M354 434q-55 -3 -128.5 -94t-115.5 -181.5t-21 -93.5q32 -5 93 75t107 171q-13 42 11 82.5t56 29.5q38 -15 6 -81l-4 -7v-1q-5 -11 -8 -20q29 -34 73 -43t85.5 7.5t76 52.5t44.5 92t-8 126q-8 11 7 11q28 0 55 -30q36 -41 26 -108q-12 -77 -60.5 -126.5t-108.5 -63.5
t-119 -6t-94 38q-33 -67 -79 -129.5t-102 -104t-98 -28.5q-103 32 -75 160q23 107 116 219q79 94 144 114q63 19 114 -24q27 -22 21 -34q0 -1 -2 -2q-4 -1 -12 -1z" />
    <glyph glyph-name="p_0.005" unicode="&#xe04c;" horiz-adv-x="482" 
d="M224 394l-4 -9q59 67 96 93q42 29 74 20q165 -51 -6 -311q90 29 170 83q76 52 111 119t11 123q-2 9 8 8q24 -1 51 -32q18 -22 25 -47q16 -60 -18 -123t-104 -105q-137 -81 -309 -98q-81 -89 -146 -109q-46 -15 -86.5 5.5t-48.5 43.5q-123 -229 -158 -314q-9 -19 -46 2
q-42 25 -52 62q-5 18 1 33q4 13 64 127q4 9 14 27q36 68 140.5 270t115.5 229q9 19 45 -2q42 -25 53 -62q4 -18 -1 -33zM95 132q33 3 85 11q83 88 145 208q44 86 22 85q-15 -1 -61 -52q-76 -87 -191 -252zM137 103q-40 -5 -60 -14t-10 -23q29 4 70 37z" />
    <glyph glyph-name="q_0.005" unicode="&#xe04d;" 
d="M362 434q-70 -3 -177 -148q-79 -107 -108 -185q-14 -39 1 -36q16 3 60 52q71 79 209 277q8 15 12 25q9 19 46 -2q42 -25 52 -62q4 -18 -1 -33q-9 -27 -72 -137l-65 -113q13 4 56.5 17t58.5 18t49 17t53 21t45 22.5t49 29.5q74 52 106.5 121.5t5.5 125.5q-3 9 8 8
q25 -1 53 -32q18 -20 25 -44q18 -59 -13 -123.5t-100 -108.5q-70 -45 -150 -71t-194 -51l-16 -8q8 -41 -4 -95t-38.5 -102.5t-72.5 -78.5t-100 -22q-49 7 -67 62q-18 54 40 169q-24 -11 -44 -24q-9 -3 -9 9q0 25 19 48q8 8 15 10q18 8 54 22l51 98q-52 -60 -90 -87
q-43 -30 -74 -21q-169 51 10 317q45 67 100 115t96 61q62 19 113 -23q28 -22 23 -34q-1 -2 -3 -3q-3 -1 -12 -1zM310 1q-9 0 -18 3q-26 -50 -41 -78.5t-34.5 -69t-25.5 -61t1 -22.5q24 -6 54 38t48.5 101t15.5 89z" />
    <glyph glyph-name="r_0.005" unicode="&#xe04e;" horiz-adv-x="353" 
d="M266 604q-2 -9 -9 -23.5t-22 -41t-21 -38.5q-2 -4 -2 -5q28 -13 45.5 -23t44.5 -29t37.5 -41t2.5 -44q-3 -9 -17.5 -35t-32.5 -58t-38.5 -71t-35.5 -76.5t-23.5 -70t-3 -56t26.5 -31.5q27 -10 69.5 18t86 79.5t82 119.5t60.5 133t17.5 124t-42.5 90q-8 8 10 11
q38 5 75 -17q14 -9 22 -19q32 -37 33 -97.5t-23 -125.5t-68 -131t-97 -116.5t-115 -80t-117 -24.5q-22 2 -45 11.5t-44.5 31t-33 51.5t-7.5 77.5t29 103.5q60 135 123 230q-23 14 -40 22q-67 -154 -174 -290q-6 -8 -16.5 -9.5t-18.5 4.5q-20 15 -5 36q105 135 171 287l-1 1
q-37 23 -46 36q-10 24 20.5 90.5t33.5 85.5q0 12 39 -7q55 -28 68 -62q4 -11 2 -20z" />
    <glyph glyph-name="s_0.005" unicode="&#xe04f;" horiz-adv-x="365" 
d="M311 434q-67 -10 -139 -127q-52 -81 -34 -109q57 26 143.5 54t141 54t94.5 69q63 67 81 139.5t-18 124.5q-5 10 10 10q31 1 64 -30q15 -13 24 -30q28 -56 9.5 -123.5t-77.5 -126.5q-27 -28 -74 -52t-86 -37.5t-111 -35.5t-109 -35q37 -5 52 -31.5t-5 -57.5
q-25 -38 -85 -65.5t-138 -16.5h-1q-24 3 -43 21q-18 17 -21 35.5t7.5 35t25.5 30.5t36 27q-105 42 5 228q49 81 142 111q38 11 71 0t52 -32q13 22 22 49q2 15 24 -1q20 -16 25 -36q1 -11 -23.5 -43.5t-59 -73t-45.5 -57.5q-11 -5 -17 15t-3 29q38 51 60 88zM135 143
q-94 -47 -94 -67q-1 -8 5 -12t17 -6q33 1 70 33q38 33 14 47z" />
    <glyph glyph-name="t_0.005" unicode="&#xe050;" horiz-adv-x="222" 
d="M332 601q-2 -7 -9 -20q50 -4 58 -4q10 -6 -3.5 -22.5t-22.5 -18.5q-28 2 -53 2q-18 -33 -53 -97q-55 -98 -81 -147.5t-59 -118t-42 -108.5t0 -62q12 -37 57 -44q38 -5 94 38.5t105 115t84.5 149.5t35 151t-45.5 110q-8 8 10 11q38 5 75 -17q14 -8 22 -19q32 -37 33 -97
t-23 -124t-67.5 -129.5t-96.5 -116t-115 -81t-118 -27.5q-28 2 -55 9t-55.5 26.5t-43.5 48.5t-12 80t32 115q21 46 77.5 152t93.5 180q-36 -4 -49 -8q-10 -5 -12 12q-2 29 15 49q10 8 75 4q41 77 52 104q10 20 46 -2q42 -24 52 -61q5 -18 -1 -33z" />
    <glyph glyph-name="u_0.005" unicode="&#xe051;" horiz-adv-x="456" 
d="M462 395q-13 -29 -48.5 -90.5t-62 -109.5t-46 -103t-12.5 -89t27 -42q22 -10 57 8.5t72 58.5t74 92.5t63.5 112t41 114.5t6.5 103t-41 75q-8 8 10 11q38 5 75 -17q14 -9 22 -19q32 -37 33 -97.5t-23 -125.5t-68 -131t-97 -116.5t-115 -80t-117 -24.5q-54 5 -96.5 51
t-30.5 134q-111 -124 -161 -104q-56 24 -68 62q-19 60 53 193q104 195 118 231q10 19 47 -3q42 -25 52 -63q4 -16 -1 -31q-6 -18 -51.5 -101t-78.5 -152.5t-22 -75.5q21 -10 178 206q100 191 112 220q10 19 47 -3q42 -25 52 -63q4 -16 -1 -31z" />
    <glyph glyph-name="x_0.005" unicode="&#xe052;" horiz-adv-x="421" 
d="M301 412q-2 -11 -12 -69q122 142 122 156q10 8 38 -11t13 -36q-93 -92 -184 -194h-1q-36 -265 31 -297q22 -10 57 8.5t72 58.5t74 92.5t63.5 112t41 114.5t6.5 103t-41 75q-8 8 10 11q38 5 75 -17q14 -9 22 -19q32 -37 33 -97.5t-23 -125.5t-68 -131t-97 -116.5t-115 -80
t-117 -24.5q-46 5 -95.5 48.5t-63.5 121.5q-64 -82 -67 -93q-5 -5 -20 2.5t-27 19t-8 16.5q52 57 118 131q0 7 0.5 21t0.5 22l11 155q-72 -118 -131 -192q-15 -19 -36 -4q-19 15 -4 36q65 79 158 236q10 16 14 28q0 9 7 14q8 12 32.5 9t50.5 -12.5t45 -30t15 -41.5z" />
    <glyph glyph-name="y_0.005" unicode="&#xe053;" horiz-adv-x="456" 
d="M226 395q-6 -18 -51.5 -101.5t-79 -152.5t-21.5 -75q19 -10 175 203q110 197 120 222q10 20 48 -3q42 -24 52 -59q5 -19 -3 -34q-31 -59 -102.5 -191.5t-72.5 -134.5q33 12 85.5 28t79 25t66.5 28.5t79 46.5q74 52 106.5 121.5t5.5 125.5q-3 9 8 8q25 -1 53 -32
q18 -20 25 -44q18 -59 -13 -123.5t-100 -108.5q-65 -42 -133.5 -66.5t-169.5 -47.5t-128 -30q-38 -71 -70 -132q-73 -136 -131 -152q-53 -15 -89 21q-32 33 -35 66.5t22.5 66t61 60t89.5 59.5q22 40 39 76q-77 -75 -117 -59q-56 24 -68 62q-19 60 53 193q104 195 118 231
q10 19 47 -3q42 -25 52 -63q4 -16 -1 -31zM41 -117l6 9q-82 -62 -63 -80q7 -7 33 31l7 11z" />
    <glyph glyph-name="z_0.005" unicode="&#xe054;" horiz-adv-x="499" 
d="M541 488q-9 -9 -15 -13v-1q-27 -26 -51.5 -47t-47 -39t-88 -71.5t-136.5 -111.5q64 30 102.5 -14.5t27.5 -128.5q41 15 94.5 31.5t83 26t70.5 29.5t82 48q74 52 106.5 121.5t5.5 125.5q-3 9 8 8q25 -1 53 -32q18 -20 25 -44q18 -59 -13 -123.5t-100 -108.5
q-65 -42 -133 -66.5t-168 -47.5t-127 -30q-26 -85 -95.5 -178t-129.5 -106q-54 -14 -89 21q-32 33 -33.5 66.5t27 66t64.5 59.5t92 60q29 57 24 109q-5 46 -40 30q-6 -3 -14 -8q-7 -3 -24.5 -1.5t-34 8.5t-12.5 14q16 29 117 142q117 133 143 168l-23 4q-9 2 -46 9t-51 9
q-90 -202 -177 -312q-6 -8 -17 -9.5t-19 5.5t-9.5 17.5t5.5 18.5q42 54 91.5 143t80.5 162q10 23 22.5 27t38.5 -4q160 -32 214 -28h3q10 2 16 2q43 8 64 33q5 9 15.5 11t19.5 -4t11 -16.5t-4 -18.5zM94 -117l5 9q-81 -62 -63 -80q8 -7 33 31l7 11q12 18 18 29z" />
    <glyph glyph-name="a_0" unicode="&#xe055;" 
d="M443 293q-1 -1 -1 -2q-107 -194 -141 -288q-27 -72 -20.5 -118.5t45.5 -50.5q8 -1 0 -12q-4 -6 -9 -6q-59 -1 -93.5 23t-44 66t-3 90.5t26.5 103.5q8 22 13 33q-61 -75 -107 -108q-44 -29 -74 -20q-169 51 10 317q45 66 100 114t96 61q62 19 113 -23q27 -21 23 -33
q-1 -2 -3 -3q-4 -3 -12 -1q-69 -4 -176 -148q-80 -108 -109 -187q-14 -38 2 -35q16 4 59 52q67 75 209 277q6 10 12 25q9 20 46 -2q41 -24 52 -61q5 -18 -1 -33q-3 -9 -13 -31z" />
    <glyph glyph-name="b_0" unicode="&#xe056;" horiz-adv-x="476" 
d="M244 424l-2 -2l-26 -47q61 72 104 103q44 29 74 20q168 -51 -10 -317q-45 -66 -100 -114t-96 -61q-49 -15 -91 8t-45 44q-16 -34 -22 -49q-9 -19 -47 3q-43 24 -52 61q-5 18 2 33q225 474 327 626q32 48 68 82t75.5 51t79.5 3t73 -62q6 -8 -3 -17q-4 -2 -6 -1
q-32 36 -84 -3.5t-105 -136.5q-15 -32 -41 -81q-12 -27 -26.5 -55.5t-28 -53.5t-18.5 -34zM69 94l-14 -29q4 3 12 1q70 4 177 149q80 108 108 186q14 38 -2 34t-59 -52q-73 -81 -213 -281q-3 -6 -9 -8z" />
    <glyph glyph-name="c_0" unicode="&#xe057;" horiz-adv-x="356" 
d="M331 434q-42 -6 -88 -56t-88 -128q-32 -61 -38 -106t10 -64.5t47 -15.5q28 4 66 32.5t65 62.5q33 36 56 69q14 10 33 -5q16 -13 0 -34q-4 -4 -10.5 -14.5t-10.5 -15.5q-96 -135 -209 -159q-88 -18 -138 39q-58 68 -22 192q13 44 37 89q38 73 88.5 117.5t95.5 58.5
q37 11 70 0t53 -32q15 29 22 49q2 16 24 -2q19 -15 24 -35q1 -11 -23.5 -43.5t-59 -73t-45.5 -57.5q-10 -5 -16.5 15t-2.5 29q43 61 60 88z" />
    <glyph glyph-name="d_0" unicode="&#xe058;" horiz-adv-x="483" 
d="M626 662q-48 -99 -123.5 -243t-126.5 -247t-75 -170q-26 -72 -19.5 -118t44.5 -50q8 -1 0 -12q-4 -6 -9 -6q-59 -1 -93.5 23t-44 66t-3 90.5t26.5 103.5l11 29q-63 -76 -105 -105q-45 -30 -74 -20q-169 51 10 317q45 66 100 114t96 61q43 13 81 -3.5t51 -39.5
q145 279 156 307q9 19 45 -2q42 -25 53 -62q4 -18 -1 -33zM362 435q-69 -4 -176 -148q-80 -108 -109 -187q-14 -38 2 -35q16 4 59 52q73 82 194 255l32 62q-1 0 -2 1z" />
    <glyph glyph-name="e_0" unicode="&#xe059;" horiz-adv-x="356" 
d="M115 107q8 -44 48 -44q24 1 69 31.5t72 64.5q1 1 14 16t25.5 29.5t12.5 13.5q13 21 37 5q7 -6 8 -16t-5 -18q-4 -5 -11.5 -15.5t-10.5 -14.5q-96 -134 -208 -158q-89 -20 -140 38q-59 66 -24 189q13 45 38 92q38 73 88.5 117.5t95.5 58.5q36 11 68.5 0t52.5 -31
q21 38 24 48q2 16 24 -2q19 -15 24 -35q1 -14 -47 -90t-123 -163.5t-132 -115.5zM328 434q-83 -14 -174 -184q-25 -46 -34 -84q91 69 208 268z" />
    <glyph glyph-name="f_0" unicode="&#xe05a;" horiz-adv-x="288" 
d="M547 788q-57 60 -195 -171q-40 -66 -172 -317q-25 -48 -42 -79q90 -2 157 7h6q8 -1 14 -8.5t7 -16.5q1 -10 -5.5 -17.5t-16.5 -8.5q-11 -1 -40 -4.5t-58.5 -6.5t-56.5 -3q3 -56 -17 -135t-55 -151t-88.5 -119.5t-108.5 -39.5q-51 8 -68 62q-19 60 53 193l106 202h-7
q-17 1 -3 28q14 28 32 29q2 0 4 -1l2 -1q47 91 95.5 184.5t69.5 135t43 83t33.5 61.5t23.5 38q32 48 68 82t75.5 51t79.5 3t73 -62q6 -8 -3 -17q-4 -2 -6 -1zM54 -53q52 126 50 209l-84 -164q-11 -22 -19 -36.5t-19 -36t-18.5 -36.5t-16 -32.5t-13 -29.5t-8 -23t-3 -16.5
t3.5 -6.5q21 -4 59 48t68 124zM104 164v-8l5 8h-5z" />
    <glyph glyph-name="g_0" unicode="&#xe05b;" 
d="M362 436q-69 -4 -176 -148q-80 -108 -109 -187q-14 -38 2 -35q16 4 59 52q69 77 210 278l11 24q9 19 46 -1q41 -23 53 -58q7 -20 -2 -37q-50 -109 -243 -455q-20 -36 -47.5 -68.5t-61.5 -57t-68.5 -34t-71 6t-65.5 57.5q-7 8 3 16q3 4 6 1q23 -25 58 -11q50 24 86 75
t73 132l7 14q19 41 40 81q-34 -37 -63 -57q-44 -29 -74 -20q-169 51 10 317q45 66 100 114t96 61q62 19 113 -23q27 -21 23 -33q-1 -2 -3 -3q-4 -3 -12 -1z" />
    <glyph glyph-name="h_0" unicode="&#xe05c;" horiz-adv-x="478" 
d="M291 3q-26 -72 -20 -118.5t45 -50.5q8 -1 0 -12q-4 -6 -9 -6q-59 -1 -93.5 23t-44 66t-3 90.5t26.5 103.5q14 38 34.5 82.5t35.5 72.5t46 86t43 80q4 20 -9 15q-17 -6 -57 -51q-33 -37 -80 -105.5t-101 -152.5t-73 -112l-2 -4q-6 -11 -23 -8l-6 2q-30 10 -54.5 41
t-13.5 61q5 16 64 128q24 45 124.5 242.5t138.5 255.5q32 48 68 82t75.5 51t79.5 3t73 -62q6 -8 -3 -17q-4 -2 -6 -1q-33 36 -86.5 -6.5t-108.5 -144.5l-31 -63q-18 -38 -45.5 -90t-31.5 -60q-2 -2 -3 -2l-27 -53q64 84 101 109q44 30 74 20q18 -4 30 -12q29 -13 50 -42
t11 -57q-2 -5 -41 -81t-84.5 -168.5t-63.5 -134.5z" />
    <glyph glyph-name="i_0" unicode="&#xe05d;" horiz-adv-x="219" 
d="M225 391q-1 -3 -55 -109t-75 -144q-47 -82 -68.5 -150t-13.5 -109t44 -45q8 -1 0 -12q-4 -6 -9 -6q-59 -1 -93.5 23t-44 66t-3 90.5t26.5 103.5q27 71 197 401q0 16 31 -1q42 -22 60 -60q11 -26 3 -48zM327 595q-2 -12 -30 -46t-40 -61q-9 -7 -28 10t-27 30
q-10 24 11.5 79.5t23.5 71.5q0 13 33 -6q46 -26 56 -59q2 -10 1 -19z" />
    <glyph glyph-name="j_0" unicode="&#xe05e;" horiz-adv-x="222" 
d="M-347 -210q20 -22 49 -14q12 1 30 19t41.5 52.5t45.5 69.5t51.5 88t49 89t48.5 90.5t41 76.5q111 198 124 230q10 19 48 -3q43 -25 52 -61q5 -18 -3 -33q-15 -31 -157 -298q-22 -41 -37.5 -69t-38.5 -67.5t-41 -66t-41.5 -58.5t-43.5 -50.5t-43.5 -37t-45.5 -24t-45 -5
t-46.5 15t-46.5 39.5q-7 8 3 16q3 4 6 1zM308 594q-2 -11 -29.5 -44.5t-39.5 -61.5q-9 -7 -29 10.5t-26 29.5q-10 24 11.5 80.5t23.5 70.5q0 13 32 -5q45 -25 55 -59q4 -11 2 -21z" />
    <glyph glyph-name="k_0" unicode="&#xe05f;" horiz-adv-x="478" 
d="M352 637q-41 -71 -138 -268q64 84 101 109q31 21 55 22t56 -17l1 -1q27 -15 44.5 -42t8.5 -53q-4 -10 -55 -25t-108.5 -39t-74.5 -56q-13 -25 5.5 -79.5t50 -92.5t52.5 -23q44 32 130 149l3 4q15 12 33 -2q8 -7 9 -16.5t-6 -17.5q-80 -102 -122 -139q-70 -63 -114 -44
q-58 25 -87 101.5t-10 141.5q-30 -44 -83 -126t-71 -109l-2 -4q-6 -12 -23 -7q-4 0 -6 1q-30 10 -55.5 41.5t-12.5 60.5q46 99 124 249.5t135.5 256t67.5 120.5q32 48 68 82t75.5 51t79.5 3t73 -62q6 -8 -3 -17q-4 -2 -6 -1q-32 36 -84.5 -6.5t-110.5 -144.5zM348 420
q8 13 -1 12q-19 0 -61 -48q-23 -26 -53 -67q10 9 48.5 40.5t55.5 49.5q8 8 11 13z" />
    <glyph glyph-name="l_0" unicode="&#xe060;" horiz-adv-x="222" 
d="M352 638q-222 -387 -321 -634q-29 -71 -22 -118.5t47 -51.5q8 -1 0 -12q-4 -6 -9 -6q-59 -1 -93.5 23t-44 66t-3 90.5t26.5 103.5q112 293 327 633q42 66 91 105t105 35.5t100 -66.5q6 -8 -3 -17q-4 -2 -6 -1q-33 36 -86.5 -6t-108.5 -144z" />
    <glyph glyph-name="m_0" unicode="&#xe061;" horiz-adv-x="739" 
d="M231 397q-5 -8 -15 -25q61 79 99 106q44 30 74 20q18 -4 30 -12q29 -13 50 -42t11 -57q-2 -6 -11 -24q69 89 106 115q44 30 74 20q18 -4 30 -12q30 -13 51.5 -43t9.5 -56q-16 -34 -90.5 -178t-99.5 -206q-26 -72 -20 -118.5t45 -50.5q8 -1 0 -12q-4 -6 -9 -6
q-59 -1 -93.5 23t-44 66t-3 90.5t26.5 103.5q7 19 16 40t16.5 37.5t19.5 41t19 38t22 41.5t20.5 38.5t23.5 43t23 41.5q5 27 -20 9q-17 -13 -46 -45q-45 -50 -148 -208t-106 -163l-2 -3q-4 -11 -23 -8l-6 2q-29 10 -53.5 41t-14.5 61q3 9 29 61q18 40 46 94l84 159
q5 27 -20 9q-17 -13 -46 -45q-33 -37 -80.5 -106t-100.5 -152.5t-73 -112.5l-2 -3q-6 -11 -23 -8l-6 2q-30 10 -54.5 41t-13.5 61q5 16 64 128l14 27q108 199 122 233q9 19 48 -3q44 -24 53 -60q6 -19 -3 -34z" />
    <glyph glyph-name="n_0" unicode="&#xe062;" horiz-adv-x="478" 
d="M231 397l-15 -25q61 79 99 106q44 29 74 20q12 -3 30 -12q30 -14 52.5 -44.5t8.5 -55.5q-132 -246 -191 -383q-29 -71 -22 -117.5t47 -51.5q8 -1 0 -12q-4 -6 -9 -6q-59 -1 -93.5 23t-44 66t-3 90.5t26.5 103.5q12 31 26 63t33 68.5t31.5 60t37 68t33.5 61.5q5 27 -20 9
q-17 -13 -46 -45q-33 -37 -80.5 -106t-100.5 -152.5t-73 -112.5l-2 -4q-6 -10 -23 -7q-2 0 -6 2q-30 10 -54.5 41t-13.5 61q4 13 64 127q4 9 14 27q112 210 122 234q9 19 48 -3q43 -25 53 -60q6 -19 -3 -34z" />
    <glyph glyph-name="o_0" unicode="&#xe063;" horiz-adv-x="401" 
d="M354 434q-55 -3 -128.5 -94t-115.5 -181.5t-21 -93.5q32 -5 93 75t107 171q-13 42 11 82.5t56 29.5q38 -15 6 -81l-4 -7v-1l-9 -23l2 -2q36 -21 98 14q10 5 22 13q20 13 35 -7q13 -20 -7 -35q-92 -56 -149 -39q-16 6 -23 10q-35 -68 -80 -130t-101 -104t-98 -29
q-103 32 -75 160q23 107 116 219q79 94 144 114q63 19 114 -24q27 -22 21 -34q0 -1 -2 -2q-4 -1 -12 -1z" />
    <glyph glyph-name="p_0" unicode="&#xe064;" horiz-adv-x="482" 
d="M224 394l-4 -9q59 67 96 93q42 29 74 20q168 -51 -10 -317q-45 -67 -100 -114.5t-97 -60.5q-46 -14 -85.5 5t-49.5 42q-66 -135 -109 -206q-29 -49 -65.5 -84t-76 -51.5t-80.5 -2t-74 63.5q-7 8 3 16q3 4 6 1q37 -40 98 19.5t126 190.5q20 41 81.5 159t112 215.5
t57.5 116.5q9 19 45 -2q42 -25 53 -62q4 -18 -1 -33zM73 101q-5 -13 -11 -23t-7 -12q3 2 7 0q70 4 177 148q80 108 108 187q14 38 -2 34.5t-59 -51.5q-82 -93 -212 -282z" />
    <glyph glyph-name="q_0" unicode="&#xe065;" 
d="M96 -33q23 4 41 5q1 2 2 5.5t2 5.5q23 59 54 120q0 1 1.5 3t2.5 4q-52 -60 -90 -87q-43 -30 -74 -21q-169 51 10 317q45 67 100 115t96 61q62 19 113 -23q28 -22 23 -34q-1 -2 -3 -3q-3 -1 -12 -1q-70 -3 -177 -148q-79 -107 -108 -185q-14 -39 1 -36q16 3 60 52
q71 79 209 277q8 15 12 25q9 19 46 -2q42 -25 52 -62q4 -18 -1 -33q-13 -38 -67.5 -142.5t-104.5 -189.5q81 17 121 57q8 6 8 -5q-2 -25 -22 -54q-6 -9 -11 -12q-33 -19 -121 -37q-42 -94 -41 -155t46 -66q8 -1 0 -12q-4 -6 -9 -6q-93 -2 -124 56t-13 150q-50 -15 -78 -30
q-6 -3 -7 7q-4 25 18 55q18 24 45 29z" />
    <glyph glyph-name="r_0" unicode="&#xe066;" horiz-adv-x="353" 
d="M266 604q-2 -9 -9 -23.5t-22 -41t-21 -38.5q-2 -4 -2 -5q28 -13 46 -23.5t46 -30t38 -41t0 -42.5q-29 -61 -82.5 -157.5t-94.5 -198.5q-29 -70 -22 -117.5t47 -51.5q8 -1 0 -12q-4 -6 -9 -6q-59 -1 -93.5 23t-44 66t-3 90.5t26.5 103.5q15 40 37 86.5t39.5 79t46.5 85.5
t43 80q-23 14 -40 22q-67 -154 -174 -290q-6 -8 -16.5 -9.5t-18.5 4.5q-20 15 -5 36q105 135 171 287l-1 1q-37 23 -46 36q-10 24 20.5 90.5t33.5 85.5q0 12 39 -7q55 -28 68 -62q4 -11 2 -20z" />
    <glyph glyph-name="s_0" unicode="&#xe067;" horiz-adv-x="365" 
d="M311 434q-67 -10 -139 -127q-72 -114 14 -125q60 -7 60 -67q1 -61 -51 -120q-63 -72 -139 -64q-43 5 -82 37q-82 67 0 179q14 18 35 -12q20 -27 13 -41l-2 -2q-21 -19 -24 -46t12 -37q22 -16 68 24.5t50 78.5q5 34 -37 38h-7q-19 0 -35 5.5t-30.5 21.5t-17.5 40.5
t12.5 68t51.5 99.5q38 59 83 91.5t93.5 31t88.5 -43.5q13 22 22 49q2 15 24 -1q20 -16 25 -36q1 -11 -23.5 -43.5t-59 -73t-45.5 -57.5q-11 -5 -17 15t-3 29q38 51 60 88z" />
    <glyph glyph-name="t_0" unicode="&#xe068;" horiz-adv-x="222" 
d="M302 538q-16 -33 -114 -222t-154 -312q-26 -73 -20.5 -119.5t44.5 -50.5q8 -1 0 -12q-4 -6 -9 -6q-59 -1 -93.5 23t-44 66t-3 90.5t26.5 103.5q26 66 57.5 130.5t88.5 170.5t73 136q-36 -4 -49 -8q-10 -5 -12 12q-2 29 15 49q10 8 75 4q41 77 52 104q10 20 46 -2
q42 -24 52 -61q5 -18 -1 -33q-2 -7 -9 -20q50 -4 58 -4q10 -6 -3.5 -22.5t-22.5 -18.5q-28 2 -53 2z" />
    <glyph glyph-name="u_0" unicode="&#xe069;" horiz-adv-x="456" 
d="M462 395q-139 -249 -195 -392q-28 -71 -21.5 -118t46.5 -51q8 -1 0 -12q-4 -6 -9 -6q-57 -1 -91.5 21.5t-44.5 62.5t-5.5 86.5t22.5 99.5q-95 -98 -139 -80q-56 24 -68 62q-19 60 53 193q104 195 118 231q10 19 47 -3q42 -25 52 -63q4 -16 -1 -31q-6 -18 -51.5 -101
t-78.5 -152.5t-22 -75.5q21 -10 178 206l32 60q62 114 80 160q10 19 47 -3q42 -25 52 -63q4 -16 -1 -31z" />
    <glyph glyph-name="x_0" unicode="&#xe06a;" horiz-adv-x="421" 
d="M301 412q-2 -11 -12 -69q122 142 122 156q10 8 38 -11t13 -36q-93 -92 -184 -194q-3 -47 -4 -101t8 -110.5t23 -103t41.5 -77.5t62.5 -35q8 -1 0 -12q-4 -6 -9 -6q-242 8 -257 282h-1q-64 -82 -67 -93q-5 -5 -20 2.5t-27 19t-8 16.5q52 57 118 131q0 7 0.5 21t0.5 22
l11 155q-72 -118 -131 -192q-15 -19 -36 -4q-19 15 -4 36q65 79 158 236q10 16 14 28q0 9 7 14q8 12 32.5 9t50.5 -12.5t45 -30t15 -41.5z" />
    <glyph glyph-name="y_0" unicode="&#xe06b;" horiz-adv-x="456" 
d="M226 395q-6 -18 -51.5 -101.5t-79 -152.5t-21.5 -75q19 -10 175 203q110 197 120 222q10 20 48 -2q42 -25 51 -61q5 -18 -2 -33q-194 -402 -293 -548q-33 -48 -69 -82t-75 -51.5t-79 -3t-73 62.5q-7 8 3 16q3 4 6 1q27 -25 63 -8.5t79 74.5t82 144q10 22 31 64
q-76 -74 -116 -58q-56 24 -68 62q-19 60 53 193q104 195 118 231q10 19 47 -3q42 -25 52 -63q4 -16 -1 -31z" />
    <glyph glyph-name="z_0" unicode="&#xe06c;" horiz-adv-x="499" 
d="M541 488q-9 -9 -15 -13v-1q-27 -26 -51.5 -47t-47 -39t-88 -71.5t-136.5 -111.5q45 19 75.5 4.5t45 -49t7.5 -71.5q0 -1 0.5 -1t0.5 -1q-3 -42 -26 -111t-60 -129q-51 -84 -131 -124q-110 -56 -182 50q-7 8 3 16q3 4 6 1q36 -39 97 19.5t117 179.5q28 61 22 112
q-6 50 -48 22q-2 -2 -4 -3q-7 -3 -24.5 -1.5t-34 8.5t-12.5 14q16 29 117 142q117 133 143 168l-23 4q-9 2 -46 9t-51 9q-90 -202 -177 -312q-6 -8 -17 -9.5t-19 5.5t-9.5 17.5t5.5 18.5q42 54 91.5 143t80.5 162q10 23 22.5 27t38.5 -4q160 -32 214 -28h3q10 2 16 2
q43 8 64 33q5 9 15.5 11t19.5 -4t11 -16.5t-4 -18.5z" />
    <glyph glyph-name="o_r_0.001" unicode="&#xe074;" horiz-adv-x="717" 
d="M354 434q-55 -3 -128.5 -94t-115.5 -181.5t-21 -93.5q32 -5 93 75t107 171q-13 42 11 82.5t56 29.5q38 -15 6 -81l-4 -7v-1l-9 -23l2 -2q15 -7 27.5 -6t27 14t26 27t24.5 35.5t22 38.5t19 35t16 27l-1 1q-37 23 -46 36q-10 24 20.5 90.5t33.5 85.5q0 12 39 -7
q55 -28 68 -62q4 -11 2 -20t-9 -23.5t-22 -41t-21 -38.5q-2 -4 -2 -5q11 -5 16.5 -8t18.5 -9.5t20.5 -11l20 -12t20 -14t16.5 -15t13.5 -16t8 -16t2.5 -17.5t-6 -18q-14 -25 -50.5 -90t-53 -97.5t-32 -81t-14.5 -87.5q4 -63 53 -92.5t110.5 -20t103.5 48.5q9 3 12 -11
q1 -16 -8 -25q-45 -39 -93.5 -59t-91 -20.5t-82 13.5t-66.5 43t-45 67t-17.5 87t16.5 103q20 61 78.5 164t70.5 129q-23 14 -40 22q-33 -75 -67.5 -122.5t-59.5 -63.5t-49 -17t-34.5 4t-18.5 12q-35 -68 -80 -130t-101 -104t-98 -29q-103 32 -75 160q23 107 116 219
q79 94 144 114q63 19 114 -24q27 -22 21 -34q0 -1 -2 -2q-4 -1 -12 -1z" />
    <glyph glyph-name="o_r_0.005" unicode="&#xe075;" horiz-adv-x="711" 
d="M353 434q-55 -3 -128.5 -94t-115.5 -181.5t-21 -93.5q32 -5 93 75t107 171q-13 42 11 82.5t56 29.5q38 -15 6 -81l-13 -31l2 -2q14 -5 25.5 -4.5t26 14t25.5 27t24.5 34.5t23 37.5t20 35.5t15.5 27l-1 1q-37 23 -46 36q-10 24 20.5 90.5t33.5 85.5q0 12 39 -7
q55 -28 68 -62q4 -11 2 -20t-9 -23.5t-22 -41t-21 -38.5q-2 -4 -2 -5q28 -13 45.5 -23t44.5 -29t37.5 -41t2.5 -44q-3 -9 -17.5 -35t-32.5 -58t-38.5 -71t-35.5 -76.5t-23.5 -70t-3 -56t26.5 -31.5q27 -10 69.5 18t86 79.5t82 119.5t60.5 133t17.5 124t-42.5 90q-8 8 10 11
q38 5 75 -17q14 -9 22 -19q32 -37 33 -97.5t-23 -125.5t-68 -131t-97 -116.5t-115 -80t-117 -24.5q-22 2 -45 11.5t-44.5 31t-33 51.5t-7.5 77.5t29 103.5q60 135 123 230q-23 14 -40 22q-130 -250 -224 -189q-2 2 -3 2q-35 -68 -80 -130t-101 -104t-98 -29q-103 32 -75 160
q23 107 116 219q79 94 144 114q63 19 114 -24q27 -22 21 -34q0 -1 -2 -2q-4 -1 -12 -1z" />
    <glyph glyph-name="o_r_0.004" unicode="&#xe076;" horiz-adv-x="711" 
d="M354 434q-55 -3 -128.5 -94t-115.5 -181.5t-21 -93.5q32 -5 93 75t107 171q-13 42 11 82.5t56 29.5q38 -15 6 -81l-4 -7v-1l-9 -23l2 -2q19 -11 40 -0.5t42 40.5t35 54.5t32 60.5q5 11 8 16l-1 1q-37 23 -46 36q-10 24 20.5 90.5t33.5 85.5q0 12 39 -7q55 -28 68 -62
q4 -11 2 -20t-9 -23.5t-22 -41t-21 -38.5q-2 -4 -2 -5q28 -13 45.5 -23t44.5 -29t37.5 -41t2.5 -44q-7 -18 -48 -92t-70 -134.5t-18 -66.5q12 -6 60 29.5t76 28.5q42 -10 56 -50t-13 -98q-30 -56 -98 -103t-159 -48q-62 0 -217.5 13.5t-313 26.5t-319 19t-278.5 -12.5
t-149 -64.5q-12 -10 -16 16q-8 47 17 96q14 28 36 42q47 30 166 31.5t269.5 -17.5t302.5 -42t297.5 -40t221.5 -14q109 5 163 79q34 46 23 80q-10 33 -51 13q-11 -5 -22 -13q-61 -48 -101 -32q-55 23 -67 62q-20 57 53 193q10 20 43.5 81.5t46.5 87.5q-23 14 -40 22
q-64 -123 -95 -160q-62 -72 -129 -27q-35 -68 -80 -130t-101 -104t-98 -29q-103 32 -75 160q23 107 116 219q79 94 144 114q63 19 114 -24q27 -22 21 -34q0 -1 -2 -2q-4 -1 -12 -1z" />
    <glyph glyph-name="o_r_0" unicode="&#xe077;" horiz-adv-x="707" 
d="M354 434q-55 -3 -128.5 -94t-115.5 -181.5t-21 -93.5q32 -5 93 75t107 171q-13 42 11 82.5t56 29.5q38 -15 6 -81l-4 -7v-1l-9 -23l2 -2q21 -13 55.5 21.5t59.5 77t37 72.5l-1 1q-37 23 -46 36q-10 24 20.5 90.5t33.5 85.5q0 12 39 -7q55 -28 68 -62q4 -11 2 -20
t-9 -23.5t-22 -41t-21 -38.5q-2 -4 -2 -5q28 -13 46 -23.5t46 -30t38 -41t0 -42.5q-29 -61 -82.5 -157.5t-94.5 -198.5q-29 -70 -22 -117.5t47 -51.5q8 -1 0 -12q-4 -6 -9 -6q-59 -1 -93.5 23t-44 66t-3 90.5t26.5 103.5q15 40 37 86.5t39.5 79t46.5 85.5t43 80
q-23 14 -40 22q-97 -203 -179 -203q-22 0 -40 16q-35 -68 -80 -130t-101 -104t-98 -29q-103 32 -75 160q23 107 116 219q79 94 144 114q63 19 114 -24q27 -22 21 -34q0 -1 -2 -2q-4 -1 -12 -1z" />
    <glyph glyph-name="o_x_0.001" unicode="&#xe078;" horiz-adv-x="792" 
d="M353 434q-55 -3 -128.5 -94t-115.5 -181.5t-21 -93.5q32 -5 93 75t107 171q-13 42 11 82.5t56 29.5q38 -15 6 -81l-4 -7v-1l-9 -23l2 -2q12 -8 25 -8.5t25 5.5t23.5 15t22.5 23.5t20 27.5t18.5 30t15 28.5t12.5 25t9 17.5q0 9 7 14q8 12 32.5 9t50.5 -12.5t45 -30
t15 -41.5q-2 -11 -12 -69q122 142 122 156q10 8 38 -11t13 -36q-102 -106 -191 -203q-12 -91 -6 -157.5t25.5 -111t48 -70t62 -34.5t67.5 -5t65.5 18t54.5 36q9 3 12 -11q1 -16 -8 -25q-76 -65 -154.5 -80t-140.5 15.5t-104.5 101.5t-50.5 169q-64 -82 -67 -93
q-5 -5 -20 2.5t-27 19t-8 16.5q52 57 118 131q0 7 0.5 21t0.5 22l11 155q-94 -160 -194 -104q-35 -68 -80 -130t-101 -104t-98 -29q-103 32 -75 160q23 107 116 219q79 94 144 114q63 19 114 -24q27 -22 21 -34q0 -1 -2 -2q-4 -1 -12 -1z" />
    <glyph glyph-name="o_x_0.005" unicode="&#xe079;" horiz-adv-x="793" 
d="M353 434q-55 -3 -128.5 -94t-115.5 -181.5t-21 -93.5q32 -5 93 75t107 171q-13 42 11 82.5t56 29.5q38 -15 6 -81l-4 -7v-1l-9 -23l2 -2q16 -10 31 -10.5t28.5 8t25 20t23 29t19.5 32t17 32t14 25.5q10 16 14 28q0 9 7 14q8 12 32.5 9t50.5 -12.5t45 -30t15 -41.5
q-2 -11 -12 -69q122 142 122 156q10 8 38 -11t13 -36q-93 -92 -184 -194h-1q-36 -265 31 -297q22 -10 57 8.5t72 58.5t74 92.5t63.5 112t41 114.5t6.5 103t-41 75q-8 8 10 11q38 5 75 -17q14 -8 22 -19q32 -37 33 -97.5t-23 -125.5t-68 -131t-97 -116.5t-115 -80t-117 -24.5
q-46 5 -95.5 48.5t-63.5 121.5q-64 -82 -67 -93q-5 -5 -20 2.5t-27 19t-8 16.5q52 57 118 131q0 7 0.5 21t0.5 22l11 155q-96 -182 -195 -104q-35 -68 -80 -130t-101 -104t-98 -29q-103 32 -75 160q23 107 116 219q79 94 144 114q63 19 114 -24q27 -22 21 -34q0 -1 -2 -2
q-4 -1 -12 -1z" />
    <glyph glyph-name="o_x_0.004" unicode="&#xe07a;" horiz-adv-x="788" 
d="M353 434q-55 -3 -128.5 -94t-115.5 -181.5t-21 -93.5q32 -5 93 75t107 171q-13 42 11 82.5t56 29.5q38 -15 6 -81l-4 -7v-1l-9 -23l2 -2q15 -9 29.5 -9.5t27 6.5t25 20t22.5 28t20 33t17 33t14.5 30.5t12.5 22.5q0 9 7 14q8 12 32.5 9t50.5 -12.5t45 -30t15 -41.5
q-2 -11 -12 -69q122 142 122 156q10 8 38 -11t13 -36q-93 -92 -184 -194q-24 -183 -4 -192q7 -4 26 12q4 6 10 10q36 25 54 31.5t45 4.5q43 -3 57.5 -47t-14.5 -101q-30 -56 -98 -103t-159 -48q-62 0 -217.5 13.5t-313 26.5t-319 19t-278.5 -12.5t-149 -64.5q-12 -10 -16 16
q-8 47 17 96q14 28 36 42q47 30 166 31.5t269.5 -17.5t302.5 -42t297.5 -40t221.5 -14q109 5 163 78q34 46 23 81q-9 32 -49 15q-11 -5 -23 -14q-61 -49 -101 -33q-26 11 -49 33t-30 42q-2 6 -4 14q-64 -82 -67 -93q-5 -5 -20 2.5t-27 19t-8 16.5q52 57 118 131q0 7 0.5 21
t0.5 22l11 155q-26 -55 -57.5 -85t-59.5 -33t-45.5 1t-29.5 11q-56 -110 -136.5 -194.5t-141.5 -66.5q-103 32 -75 160q23 107 116 219q79 94 144 114q63 19 114 -24q27 -22 21 -34q0 -1 -2 -2q-4 -1 -12 -1z" />
    <glyph glyph-name="o_x_0" unicode="&#xe07b;" horiz-adv-x="788" 
d="M352 434q-55 -3 -128.5 -94t-115.5 -181.5t-21 -93.5q32 -5 93 75t107 171q-13 42 11 82.5t56 29.5q38 -15 6 -81l-4 -7v-1l-9 -23l2 -2q15 -9 29.5 -9.5t27 6.5t25 20t22.5 28t20 33t17 33t14.5 30.5t12.5 22.5q0 9 7 14q8 12 32.5 9t50.5 -12.5t45 -30t15 -41.5
q-2 -11 -12 -69q122 142 122 156q10 8 38 -11t13 -36q-93 -92 -184 -194q-3 -47 -4 -101t8 -110.5t23 -103t41.5 -77.5t62.5 -35q8 -1 0 -12q-4 -6 -9 -6q-242 8 -257 282h-1q-64 -82 -67 -93q-5 -5 -20 2.5t-27 19t-8 16.5q52 57 118 131q0 7 0.5 21t0.5 22l11 155
q-22 -48 -48.5 -77t-48 -38.5t-42.5 -9t-33 6t-20 11.5q-57 -110 -137 -194t-141 -66q-103 32 -75 160q23 107 116 219q79 94 144 114q63 19 114 -24q27 -22 21 -34q0 -1 -2 -2q-4 -1 -12 -1z" />
    <glyph glyph-name="o_z_0.001" unicode="&#xe07c;" horiz-adv-x="861" 
d="M354 434q-55 -3 -128.5 -94t-115.5 -181.5t-21 -93.5q32 -5 93 75t107 171q-13 42 11 82.5t56 29.5q38 -15 6 -81l-4 -7v-1l-9 -23l2 -2q14 -6 25.5 -8t24 7.5t22.5 19t21 27t19 32.5t16.5 34t13.5 32t10.5 27t7.5 18q10 23 22.5 27t38.5 -4q160 -32 214 -28h3q10 2 16 2
q43 8 64 33q5 9 15.5 11t19.5 -4t11 -16.5t-4 -18.5l-9 -12q-9 -9 -15 -13v-1q-27 -26 -51.5 -47t-47 -39t-88 -71.5t-136.5 -111.5q122 14 140 -81q21 -109 -95 -301q-21 -35 -46 -71q-76 -115 -195 -142q-100 -23 -169 26q-74 53 -57 154q5 28 17 57q3 8 12 15t17.5 8
t11.5 -5q-15 -39 -14.5 -74t18.5 -59.5t43.5 -36.5t60.5 -4t70 37q51 42 120 172q77 149 70 212q-6 52 -81 8q-8 -2 -25.5 -0.5t-33.5 8t-12 13.5q16 29 117 142q117 133 143 168l-23 4q-9 2 -46 9t-51 9q-21 -46 -41 -82.5t-36.5 -60.5t-32 -41.5t-27.5 -26.5t-24 -13
t-20.5 -3.5t-16.5 3t-13.5 6t-10.5 6.5t-7 4q-35 -68 -80 -130t-101 -104t-98 -29q-103 32 -75 160q23 107 116 219q79 94 144 114q63 19 114 -24q27 -22 21 -34q0 -1 -2 -2q-4 -1 -12 -1z" />
    <glyph glyph-name="o_z_0.005" unicode="&#xe07d;" horiz-adv-x="863" 
d="M352 434q-55 -3 -128.5 -94t-115.5 -181.5t-21 -93.5q32 -5 93 75t107 171q-13 42 11 82.5t56 29.5q38 -15 6 -81l-4 -7v-1l-9 -23l2 -2q13 -8 26 -8.5t25 7t23 18.5t21.5 27.5t19 32t17 34.5t14 32t11 27.5t7.5 18.5q10 23 22.5 27t38.5 -4q160 -32 214 -28h3q10 2 16 2
q43 8 64 33q5 9 15.5 11t19.5 -4t11 -16.5t-4 -18.5l-9 -12q-9 -9 -15 -13v-1q-27 -26 -51.5 -47t-47 -39t-88 -71.5t-136.5 -111.5q64 30 102.5 -14.5t27.5 -128.5q41 15 94.5 31.5t83 26t70.5 29.5t82 48q74 52 106.5 121.5t5.5 125.5q-3 9 8 8q25 -1 53 -32
q18 -20 25 -44q18 -59 -13 -123.5t-100 -108.5q-65 -42 -133 -66.5t-168 -47.5t-127 -30q-26 -85 -95.5 -178t-129.5 -106q-54 -14 -89 21q-32 33 -33.5 66.5t27 66t64.5 59.5t92 60q29 57 24 109q-5 46 -40 30q-6 -3 -14 -8q-7 -3 -24.5 -1.5t-34 8.5t-12.5 14
q16 29 117 142q117 133 143 168l-23 4q-9 2 -46 9t-51 9q-16 -37 -31 -67t-34.5 -63.5t-39 -54.5t-40.5 -34.5t-43.5 -11t-44.5 22.5q-35 -68 -80 -130t-101 -104t-98 -29q-103 32 -75 160q23 107 116 219q79 94 144 114q63 19 114 -24q27 -22 21 -34q0 -1 -2 -2
q-4 -1 -12 -1zM457 -117l5 9q-81 -62 -63 -80q8 -7 33 31l7 11q12 18 18 29z" />
    <glyph glyph-name="o_z_0.004" unicode="&#xe07e;" horiz-adv-x="861" 
d="M352 434q-55 -3 -128.5 -94t-115.5 -181.5t-21 -93.5q32 -5 93 75t107 171q-13 42 11 82.5t56 29.5q38 -15 6 -81l-4 -7v-1l-9 -23l2 -2q11 -7 22.5 -7t22 5t21 15t19 22t17.5 27t16 29.5t14 30.5t11.5 27.5t9 23.5t6.5 16q10 23 22.5 27t38.5 -4q160 -32 214 -28h3
q10 2 16 2q43 8 64 33q5 9 15.5 11t19.5 -4t11 -16.5t-4 -18.5l-9 -12q-9 -9 -15 -13v-1q-27 -26 -51.5 -47t-47 -39t-88 -71.5t-136.5 -111.5q72 25 108 -8t33.5 -95t-33.5 -128q43 -4 166.5 -15t195 -16.5t187.5 -12.5t190 -5.5t154 7.5t128.5 24t67.5 46q12 10 16 -16
q8 -47 -17 -96q-14 -28 -36 -42q-49 -31 -183.5 -30.5t-268.5 18.5t-332 46.5t-292 38.5q-30 -58 -70.5 -109t-79.5 -77q-100 -80 -194 -68q-69 8 -90 62q-17 46 13 104q30 56 98 103t159 48h30l3 5q29 57 24 109q-5 46 -40 30q-6 -3 -14 -8q-7 -3 -24.5 -1.5t-34 8.5
t-12.5 14q16 29 117 142q117 133 143 168l-23 4q-9 2 -46 9t-51 9q-65 -129 -82 -155q-50 -76 -108 -67q-18 3 -38 14q-35 -68 -80 -130t-101 -104t-98 -29q-103 32 -75 160q23 107 116 219q79 94 144 114q63 19 114 -24q27 -22 21 -34q0 -1 -2 -2q-4 -1 -12 -1zM464 -70
q-92 -4 -152 -72q-37 -43 -30 -69q7 -27 58 7q56 36 140 135q-2 0 -7.5 -0.5t-8.5 -0.5z" />
    <glyph glyph-name="o_z_0" unicode="&#xe07f;" horiz-adv-x="856" 
d="M352 434q-55 -3 -128.5 -94t-115.5 -181.5t-21 -93.5q32 -5 93 75t107 171q-13 42 11 82.5t56 29.5q38 -15 6 -81l-4 -7v-1l-9 -23l2 -2q13 -5 24 -6t23 8t21.5 19t20 27t18.5 32t16 33.5t13 31t10.5 26t7.5 18.5q10 23 22.5 27t38.5 -4q160 -32 214 -28h3q10 2 16 2
q43 8 64 33q5 9 15.5 11t19.5 -4t11 -16.5t-4 -18.5l-9 -12q-9 -9 -15 -13v-1q-27 -26 -51.5 -47t-47 -39t-88 -71.5t-136.5 -111.5q45 19 75.5 4.5t45 -49t7.5 -71.5q0 -1 0.5 -1t0.5 -1q-3 -42 -26 -111t-60 -129q-51 -84 -131 -124q-110 -56 -182 50q-7 8 3 16q3 4 6 1
q36 -39 97 19.5t117 179.5q28 61 22 112q-6 50 -48 22l-4 -3q-7 -3 -24.5 -1.5t-34 8.5t-12.5 14q16 29 117 142q117 133 143 168l-23 4q-9 2 -46 9t-51 9q-50 -136 -105 -188t-81.5 -44t-36.5 24q-35 -68 -80 -130t-101 -104t-98 -29q-103 32 -75 160q23 107 116 219
q79 94 144 114q63 19 114 -24q27 -22 21 -34q0 -1 -2 -2q-4 -1 -12 -1z" />
    <glyph glyph-name="t_t_0.001" unicode="&#xe080;" horiz-adv-x="444" 
d="M400 733q-59 -112 -70 -133q14 -1 32 -3t28.5 -3t15.5 -1q41 77 52 104q10 20 46 -2q42 -24 52 -61q5 -18 -1 -33q-2 -7 -9 -20q50 -4 58 -4q10 -6 -3.5 -22.5t-22.5 -18.5q-28 2 -53 2q-19 -34 -52.5 -94t-51.5 -93.5t-44 -82.5t-40.5 -80.5t-29.5 -68t-21.5 -65
t-7.5 -51.5q-1 -69 48 -102.5t112.5 -24.5t107.5 49q9 3 12 -11q1 -16 -8 -25q-59 -50 -123 -69t-116 -5t-92 48t-57 91t-4 122q-83 -90 -132 -69q-56 24 -68 61q-3 10 -4 22t2 26t6 25.5t10 29.5t11.5 28.5t14 31.5t13.5 31q20 50 140 275q-50 0 -53 -1q-9 -4 -6 14
q5 36 25 64q1 2 3 4q3 3 72 -4q109 210 111 215q10 20 48 -2q42 -24 52 -60q4 -19 -3 -34zM75 66q6 -3 21 10.5t36.5 41t37.5 48.5t36 49q70 165 171 321q-12 -2 -81 0q-239 -461 -221 -470z" />
    <glyph glyph-name="t_t_0" unicode="&#xe081;" horiz-adv-x="444" 
d="M526 538q-16 -33 -114 -222t-154 -312q-26 -73 -20.5 -119.5t44.5 -50.5q8 -1 0 -12q-4 -6 -9 -6q-69 -1 -105.5 33t-37.5 87t14 117q-71 -66 -118 -46q-56 24 -68 61q-3 10 -4 22t2 26t6 25.5t10 29.5t11.5 28.5t14 31.5t13.5 31q12 31 140 276q-45 0 -51 -2
q-10 -4 -6 15q8 35 27 57q2 2 67 -1q109 208 115 222q10 20 48 -2q42 -24 52 -60q4 -19 -3 -34l-71 -135q15 -1 32.5 -2t29 -2t16.5 -1q41 77 52 104q10 20 46 -2q42 -24 52 -61q5 -18 -1 -33q-2 -7 -9 -20q50 -4 58 -4q10 -6 -3.5 -22.5t-22.5 -18.5q-28 2 -53 2zM75 66
q18 -9 121 120q24 52 50.5 105.5t72 138.5t59.5 111l-80 -2q-243 -463 -223 -473z" />
    <glyph glyph-name="t_t_0.003" unicode="&#xe082;" horiz-adv-x="444" 
d="M400 731q-3 -13 -71 -138l75 -3q40 78 53 107q10 20 46 -2q42 -24 52 -61q5 -18 -1 -33q-3 -9 -4 -11q192 5 245 51q8 6 7 -4q-2 -25 -23 -57q-6 -10 -11 -13q-53 -34 -249 -39q-15 -29 -53.5 -101.5t-65 -124t-55.5 -109.5t-41.5 -91t-6.5 -36q23 -11 148 156l4 3
q6 5 16 4.5t16 -6.5q19 -14 4 -33q-73 -92 -101 -119q-85 -86 -136 -64q-56 24 -68 61q-2 5 -4 17q-94 -102 -150 -78t-68 61q-19 59 53 194q12 22 140 271q-332 12 -413 4q-42 -4 -59 -12q-5 -2 -6 8q-3 31 23 69q28 41 70 46q32 3 55 3t73 -5.5t87.5 -11t99.5 -14
t109 -14.5q95 181 113 221q10 20 46 -2q42 -24 52 -61q5 -18 -1 -33zM75 66q11 -6 47 32.5t75 89.5q16 38 36 74q106 201 139 265q-12 0 -37 0.5t-38 0.5q-16 -31 -53 -101t-64.5 -123.5t-56.5 -110.5t-41.5 -90.5t-6.5 -36.5z" />
    <glyph glyph-name="t_0_t_0.003" unicode="&#xe083;" horiz-adv-x="444" 
d="M392 731l-67 -135l79 -6q40 78 53 107q10 20 46 -2q42 -24 52 -61q5 -18 -1 -33q-1 -2 -6 -11.5t-6 -10.5q61 -2 126 -3.5t129 12.5t90 44q9 7 7 -6q-4 -29 -26 -64q-3 -4 -5 -7q-20 -22 -80 -32t-124.5 -8.5t-126.5 1.5q-14 1 -21 1q-12 -24 -52 -99.5t-64 -122.5
t-53 -105.5t-40 -89.5t-5 -34q23 -11 148 156l4 3q6 5 16 4.5t16 -6.5q19 -14 4 -33q-73 -92 -101 -119q-85 -86 -136 -64q-56 24 -68 61q-19 59 53 194q133 251 139 263q-20 1 -79 5l-259 -526q-26 -73 -20.5 -119.5t44.5 -50.5q8 -1 0 -12q-4 -6 -9 -6q-59 -1 -93.5 23
t-44 66t-3 90.5t26.5 103.5q36 89 217 441q-504 32 -597 -17q-4 -2 -5 5q-4 26 21 65q29 42 71 53q17 4 43 5.5t63 0t70.5 -3.5t86.5 -7t88 -9t98.5 -11t97.5 -11q89 173 103 207q11 12 38 5.5t49.5 -35t12.5 -56.5z" />
    <glyph glyph-name="t_0.001_t_0.003" unicode="&#xe084;" horiz-adv-x="444" 
d="M400 721q0 -1 -69 -125l75 -6q40 78 53 107q10 20 46 -2q42 -24 52 -61q5 -18 -1 -33q-1 -2 -6 -11.5t-6 -10.5q61 -2 126 -3.5t129 12.5t90 44q9 7 7 -6q-4 -29 -26 -64q-3 -4 -5 -7q-20 -22 -80 -32t-124.5 -8.5t-126.5 1.5q-14 1 -21 1q-12 -24 -52 -99.5t-64 -122.5
t-53 -105.5t-40 -89.5t-5 -34q23 -11 148 156l4 3q6 5 16 4.5t16 -6.5q19 -14 4 -33q-73 -92 -101 -119q-85 -86 -136 -64q-56 24 -68 61q-19 59 53 194q133 251 139 263q-22 1 -77 5q-18 -32 -51.5 -93t-50.5 -92t-43 -80.5t-40 -80t-28.5 -67t-21 -64t-7.5 -50.5
q-1 -69 48 -102.5t112.5 -24.5t107.5 49q9 3 12 -11q1 -16 -8 -25q-40 -34 -82.5 -53.5t-81 -24t-75 3.5t-65.5 26.5t-51 47.5t-32.5 64.5t-9 79.5t17.5 90q71 200 204 417q-502 32 -595 -17q-4 -2 -5 5q-4 26 21 65q29 42 71 53q17 4 43 5.5t63.5 0t70.5 -3.5t86.5 -7.5
t88.5 -9t99 -10.5t97 -11q14 26 41 76.5t47.5 88t22.5 42.5q10 20 46 -2q42 -24 52 -61q5 -18 -1 -33z" />
    <glyph glyph-name="t_0.003_t_0" unicode="&#xe085;" horiz-adv-x="444" 
d="M366 649q-1 -2 -21 -35t-21 -35q60 -3 65 -3q123 229 128 241q11 12 38 5.5t49.5 -35t12.5 -56.5l-74 -150q94 14 126 51q9 7 7 -6q-4 -29 -26 -64q-3 -4 -5 -7q-28 -31 -134 -38l-252 -513q-26 -73 -20.5 -119.5t44.5 -50.5q8 -1 0 -12q-4 -6 -9 -6q-68 -1 -104.5 32.5
t-38 86t12.5 115.5q-69 -62 -114 -43q-56 24 -68 61q-19 59 53 194q133 251 139 263l-116 8t-138 9t-135 7.5t-140.5 4.5t-118.5 -2t-104 -9.5t-65 -19.5q-4 -2 -5 5q-4 26 21 65q29 42 71 53q46 7 94.5 6.5t140 -8.5t169 -17t181.5 -20.5t177 -16.5q10 20 30 57t35.5 65.5
t17.5 32.5q10 20 46 -2q42 -24 52 -61q5 -18 -1 -33zM186 169q51 121 171 346q-26 0 -64 2q-12 -24 -52 -99.5t-64 -122.5t-53 -105.5t-40 -89.5t-5 -34q18 -9 107 103z" />
    <glyph glyph-name="t_0.003_t_0.001" unicode="&#xe086;" horiz-adv-x="444" 
d="M621 721q-1 -3 -35.5 -65.5t-41.5 -73.5q92 12 125 50q9 7 7 -6q-4 -29 -26 -64q-3 -4 -5 -7q-28 -31 -134 -38q-15 -28 -49.5 -90t-50 -90t-42 -78.5t-38.5 -78.5t-27 -64.5t-21 -63t-7 -49.5q-1 -69 48 -102.5t112.5 -24.5t107.5 49q9 3 12 -11q1 -16 -8 -25
q-57 -49 -119.5 -68t-113.5 -7t-91.5 43.5t-59.5 84.5t-11 116q-77 -71 -123 -51q-56 24 -68 61q-19 59 53 194q133 251 139 263l-116 8t-138 9t-135 7.5t-140.5 4.5t-118.5 -2t-104 -9.5t-65 -19.5q-4 -2 -5 5q-4 26 21 65q29 42 71 53q46 7 94.5 6.5t140 -8.5t169 -17
t181.5 -20.5t177 -16.5q10 20 30 57t35.5 65.5t17.5 32.5q10 20 46 -2q42 -24 52 -61q5 -18 -1 -33q-1 -2 -21 -35t-21 -35q63 -3 71 -3q12 22 45 83.5t57.5 107t26.5 50.5q10 20 46 -2q42 -24 52 -61q5 -18 -1 -33zM79 66q17 -9 106 102q64 167 176 347q-28 0 -68 2
q-12 -24 -52 -99.5t-64 -122.5t-53 -105.5t-40 -89.5t-5 -34z" />
    <glyph glyph-name="b_0.003" unicode="&#xe087;" horiz-adv-x="476" 
d="M287 505h-2q0 -1 -31 -60l-38 -70q61 72 104 103q44 29 74 20q168 -51 -10 -317q-45 -66 -100 -114t-96 -61q-49 -15 -91 8t-45 44q-16 -34 -22 -49q-9 -19 -46 2q-42 25 -52 62q-5 18 1 33q4 13 64 127q4 9 14 27q2 4 58 109t74 143q-62 12 -106 40t-62.5 64t-21.5 77.5
t18 81.5q18 32 71 41q39 8 39 -7q0 -4 -3 -8q-20 -29 -30.5 -63.5t-8 -71t35.5 -66t95 -39.5q22 41 46 89.5t38 76.5t20 37q45 69 120 74.5t115 -50t-1 -134.5q-26 -50 -84 -94.5t-137 -54.5zM69 94l-14 -29q4 3 12 1q70 4 177 149q80 108 108 186q14 38 -2 34t-59 -52
q-73 -81 -213 -281q-3 -6 -9 -8zM362 653q-7 -14 -45 -89q80 20 107 82q16 39 1 58t-44 -19q-9 -13 -19 -32z" />
    <glyph glyph-name="i_0.003" unicode="&#xe088;" horiz-adv-x="219" 
d="M226 395q-6 -18 -51.5 -101t-78.5 -152.5t-22 -75.5q8 -4 28.5 14.5t47 50t42.5 52t30 38.5q1 3 4 4q6 5 16 4t16 -6q8 -6 9 -16.5t-5 -17.5q-74 -93 -104 -122q-83 -82 -133 -61q-56 24 -68 62q-19 58 53 193q104 195 118 231q10 19 47 -3q42 -25 52 -63q4 -16 -1 -31z
M417 825q-2 -12 -30 -46t-40 -61q-9 -7 -28 10t-27 30q-10 24 11.5 79.5t23.5 71.5q0 13 33 -6q46 -26 56 -59q2 -10 1 -19z" />
    <glyph glyph-name="fi" unicode="&#xfb01;" horiz-adv-x="507" 
d="M290 796q10 20 47 -2q42 -25 52 -63q4 -16 -1 -31q-1 -4 -13 -25t-43 -78.5t-69 -129.5q80 -2 144 5l9 20q10 19 47 -3q42 -25 52 -63q4 -16 -1 -31q-6 -18 -51.5 -101t-78.5 -152.5t-22 -75.5q8 -4 28.5 14.5t47 50t42.5 52t30 38.5q1 3 4 4q6 5 16 4t16 -6
q8 -6 9 -16.5t-5 -17.5q-74 -93 -104 -122q-83 -82 -133 -61q-56 24 -68 62q-19 58 53 193l83 157q-74 -9 -111 -9q16 -65 -21.5 -186.5t-100 -235t-139.5 -195.5t-133 -74q-51 8 -68 62q-19 60 53 193q4 8 50.5 97.5t102 198.5t78.5 152h-7q-17 1 -3 28q14 28 32 29
q2 0 4 -1l2 -1q43 84 85 161.5t61.5 113t23.5 45.5zM-73 -225q34 -7 116.5 126.5t144 291t41.5 209.5l-209 -410q-11 -22 -19 -36.5t-19 -36t-18.5 -36.5t-16 -32.5t-13 -29.5t-8 -23t-3 -16.5t3.5 -6.5zM229 410v-8l5 8h-5z" />
    <glyph glyph-name="fl" unicode="&#xfb02;" horiz-adv-x="510" 
d="M234 697q10 20 47 -2q42 -25 52 -63q4 -16 -1 -31q-7 -18 -122 -241q79 -2 143 5q178 338 201 394q9 19 45 -2q42 -25 53 -62q4 -18 -1 -33q-6 -17 -86 -168t-147 -287t-56 -142q23 -11 148 156l4 3q6 5 16 4.5t16 -6.5q19 -14 4 -33q-73 -92 -101 -119q-85 -86 -136 -64
q-56 22 -68 61q-19 59 53 194q15 27 26 49q-62 -8 -107 -8q3 -57 -23 -154.5t-70 -194.5t-111.5 -167t-136.5 -68q-48 1 -68 62q-19 60 53 193l178 341h-7q-17 1 -3 28q14 28 32 29q2 0 4 -1l2 -1q158 304 167 328zM80 -29q30 60 63.5 175t32.5 149q-104 -205 -156 -303
q-11 -22 -19 -36.5t-19 -36t-18.5 -36.5t-16 -32.5t-13 -29.5t-8 -23t-3 -16.5t3.5 -6.5q20 -4 69 60t84 136zM176 303v-8l5 8h-5z" />
    </font>
</defs>
</svg>
